<?xml version="1.0" standalone="no"?>
<!DOCTYPE svg PUBLIC "-//W3C//DTD SVG 1.1//EN" "http://www.w3.org/Graphics/SVG/1.1/DTD/svg11.dtd" >
<svg xmlns="http://www.w3.org/2000/svg">
<metadata></metadata>
<defs>
<font id="atzuritalic" horiz-adv-x="993" >
<font-face units-per-em="2048" ascent="1536" descent="-512" />
<missing-glyph horiz-adv-x="618" />
<glyph horiz-adv-x="0" />
<glyph horiz-adv-x="682" />
<glyph horiz-adv-x="0" />
<glyph horiz-adv-x="0" />
<glyph unicode="&#xd;" horiz-adv-x="591" />
<glyph unicode=" "  horiz-adv-x="618" />
<glyph unicode="&#x09;" horiz-adv-x="618" />
<glyph unicode="&#xa0;" horiz-adv-x="618" />
<glyph unicode="!" horiz-adv-x="415" d="M117 88q8 43 42 72.5t77 29.5t68 -29.5t18 -72.5q-6 -42 -41 -72t-78 -30t-67.5 29.5t-18.5 72.5zM203 315l143 1160h193l-226 -1160h-110z" />
<glyph unicode="&#x26;" horiz-adv-x="1409" d="M164 389q38 240 295 379l84 41l-29 43q-2 3 -6 8.5t-15.5 23.5t-20 37t-20.5 48.5t-16.5 58.5t-8 67.5t4.5 73.5q23 145 130 232.5t288 87.5q184 0 271 -86.5t63 -235.5q-20 -122 -120 -225t-237 -178l258 -367q55 80 90 161t42 126h247l-16 -115h-154 q-58 -142 -147 -260l221 -309h-256l-108 152q-195 -166 -437 -166q-210 0 -322 104t-81 299zM356 389q-12 -76 6.5 -134.5t59 -90.5t87.5 -48t97 -16q183 0 340 136l-307 438q-21 -9 -90 -47q-81 -47 -131.5 -103.5t-61.5 -134.5zM621 1169q-4 -29 2 -62t17.5 -59.5 t24 -49.5t21.5 -36l10 -12l39 -55q111 60 178.5 131.5t77.5 140.5q34 207 -160 207q-179 0 -210 -205z" />
<glyph unicode="'" horiz-adv-x="317" d="M287 1141l18 375h184l-100 -375h-102z" />
<glyph unicode="(" horiz-adv-x="550" d="M180 424q2 85 15 170q18 109 53 216t77.5 191.5t90 162t91 133t79 96.5t56.5 61l22 21h110q-13 -17 -34 -47.5t-79 -126.5t-106 -194t-97.5 -239.5t-70.5 -273.5q-20 -143 -17 -272.5t23 -241t42.5 -193t40.5 -127.5l18 -47h-111q-3 4 -9 12.5t-24 37.5t-34.5 60.5 t-38 81.5t-38.5 102.5t-32 121.5t-22 139.5t-5 155.5z" />
<glyph unicode=")" horiz-adv-x="550" d="M-35 -287q13 17 34 47.5t78.5 126.5t105 194t96 239.5t69.5 273.5q21 143 18.5 272.5t-22 241t-42 193t-40.5 127.5l-18 47h110q3 -4 9 -12.5t24 -37.5t35 -60.5t38.5 -81.5t38.5 -102.5t31.5 -121.5t21.5 -139.5t5 -155.5t-16 -170q-17 -109 -52 -216t-77.5 -191.5 t-89.5 -162t-91 -133t-79 -96.5t-56 -61l-22 -21h-109z" />
<glyph unicode="+" horiz-adv-x="1126" d="M168 489l16 103h420l68 420h102l-67 -420h419l-16 -103h-420l-65 -419h-103l66 419h-420z" />
<glyph unicode="," horiz-adv-x="356" d="M35 -240q6 5 15.5 13t35 33.5t45.5 50.5t39 61t23 68l2 2q-4 0 -12 -1t-11 -1q-43 0 -67.5 29.5t-18.5 72.5q8 43 42 72.5t77 29.5t68 -29.5t18 -72.5q-8 -49 -23.5 -93t-35 -76t-41.5 -59.5t-42 -45.5t-36.5 -30.5t-26.5 -17.5l-10 -6h-41z" />
<glyph unicode="-" horiz-adv-x="798" d="M166 469l29 184h614l-29 -184h-614z" />
<glyph unicode="." horiz-adv-x="352" d="M86 88q8 43 42 72.5t77 29.5t68 -29.5t18 -72.5q-6 -42 -41 -72t-78 -30t-67.5 29.5t-18.5 72.5z" />
<glyph unicode="/" horiz-adv-x="557" d="M0 -14l674 1530h119l-687 -1530h-106z" />
<glyph unicode="0" horiz-adv-x="1191" d="M202.5 500.5q-1.5 111.5 16.5 236.5q24 155 79 291.5t133.5 239t182 162t217.5 59.5q151 0 248 -103t128 -272t-1 -377q-33 -208 -118 -377t-215 -271.5t-281 -102.5q-91 0 -164.5 38.5t-120.5 107t-75 163t-29.5 206zM393.5 486.5q-0.5 -113.5 20.5 -201t70.5 -136.5 t125.5 -49q100 0 182.5 86.5t135.5 226.5t82 324q21 137 21 250.5t-21 201t-71 136.5t-126 49q-100 0 -182 -86.5t-134.5 -226.5t-80.5 -324q-22 -137 -22.5 -250.5z" />
<glyph unicode="1" horiz-adv-x="692" d="M188 1130l412 345h193l-234 -1475h-192l208 1327l-333 -276z" />
<glyph unicode="2" horiz-adv-x="1048" d="M61 0l17 111q15 12 42 32.5t104.5 86t149 131t161 158t157 177t119 178t63.5 170.5q26 161 -30.5 245.5t-194.5 84.5q-49 0 -89 -16.5t-61 -40t-35.5 -47t-19.5 -40.5l-4 -16q-52 0 -83 29t-25 76q9 55 108 112.5t230 57.5q238 0 338 -109.5t67 -314.5 q-18 -113 -82.5 -235.5t-145 -222t-185.5 -201.5t-184.5 -167.5t-162.5 -127.5h664l-16 -111h-902z" />
<glyph unicode="3" horiz-adv-x="923" d="M55 143q3 23 23.5 37.5t54.5 14.5q1 -4 3.5 -11t16 -25t34.5 -31.5t64 -24.5t99 -11q50 0 102 17.5t103 53.5t89.5 100t51.5 147q27 166 -36.5 244t-213.5 83h-14l17 107h12q136 2 210 63.5t95 200.5q10 72 0 124t-37.5 85.5t-62.5 49t-76 15.5q-51 0 -91.5 -17 t-61.5 -41t-34.5 -47.5t-17.5 -40.5l-4 -17q-52 0 -82.5 28t-24.5 72q9 53 106.5 111.5t227.5 58.5q65 0 120.5 -12t105 -39t79 -71t43.5 -108.5t-2 -150.5q-38 -244 -225 -324q199 -106 156 -374q-16 -104 -72.5 -187.5t-135.5 -133.5t-167.5 -76.5t-177.5 -26.5 q-139 0 -212.5 51.5t-64.5 105.5z" />
<glyph unicode="4" horiz-adv-x="1011" d="M82 389l16 111l717 975h193l-156 -975h211l-16 -111h-211l-62 -389h-192l61 389h-561zM225 500h434l121 760z" />
<glyph unicode="5" horiz-adv-x="1007" d="M68 160q3 24 23 39.5t54 15.5q1 -5 4.5 -12.5t22 -27.5t45.5 -35t80 -27.5t121 -12.5q152 0 241 82.5t117 268.5q13 95 4.5 161.5t-38.5 108.5t-69.5 61t-88.5 19q-50 0 -101.5 -23t-77.5 -46l-26 -23h-158l123 766h700l-18 -111h-508l-82 -514q108 65 207 65 q179 0 272 -120t58 -344q-36 -226 -194 -345.5t-398 -119.5q-82 0 -147 17.5t-100.5 44.5t-52.5 56t-13 56z" />
<glyph unicode="6" horiz-adv-x="1056" d="M172 451l59 368q50 312 207.5 491t388.5 179q130 0 209 -58.5t70 -111.5q-6 -44 -44.5 -72t-90.5 -28q0 3 0.5 8.5t-1 22t-6 31t-15.5 32.5t-28 30.5t-46 21.5t-66 9q-299 0 -385 -555l-2 -6q94 102 244 102q87 0 158.5 -29.5t121 -86t69 -146t1.5 -202.5 q-24 -149 -100 -256.5t-178.5 -158t-219.5 -50.5q-181 0 -281 121.5t-65 343.5zM365 451q-28 -180 21.5 -265.5t150.5 -85.5q102 0 178 85.5t104 265.5q29 180 -20.5 265t-151.5 85q-99 0 -174 -81t-104 -251z" />
<glyph unicode="7" horiz-adv-x="968" d="M172 0l698 1364h-493l-21 -123h-110l39 234h843l-755 -1475h-201z" />
<glyph unicode="8" horiz-adv-x="1052" d="M166 410q21 133 87.5 228t166.5 148q-140 85 -103 322q17 105 59 181t103.5 118.5t131 62t151.5 19.5t145.5 -19.5t110.5 -62t64.5 -118.5t0.5 -181q-37 -238 -206 -322q83 -53 120.5 -148t16.5 -228q-16 -105 -63 -187.5t-114.5 -133.5t-147 -77t-167.5 -26t-159 26 t-121.5 77t-71 133.5t-4.5 187.5zM354 410q-26 -164 29 -241t158 -77t180.5 77t103.5 241q26 165 -27 246t-155 81h-10q-100 -5 -176.5 -85.5t-102.5 -241.5zM506 1108q-22 -136 22.5 -200t130.5 -64h9q82 2 144.5 66.5t82.5 197.5q22 137 -22.5 205.5t-129.5 68.5 q-84 0 -149.5 -68.5t-87.5 -205.5z" />
<glyph unicode="9" horiz-adv-x="1015" d="M141 156q6 44 44.5 72t90.5 28q0 -3 -0.5 -8.5t1 -22t6 -31t15.5 -32.5t28 -31t46 -22t66 -9q299 0 385 555v4q-92 -100 -241 -100q-87 0 -158.5 30t-121 86.5t-69.5 146t-2 202.5q24 149 100 256.5t178.5 158t219.5 50.5q181 0 281 -121.5t65 -343.5v-2l-59 -367 q-50 -311 -207.5 -490t-388.5 -179q-130 0 -209 58.5t-70 111.5zM428 1024q-29 -180 20.5 -265t151.5 -85q98 0 173.5 81t105.5 251l4 18q28 180 -21.5 265t-150.5 85q-102 0 -178.5 -85t-104.5 -265z" />
<glyph unicode=":" horiz-adv-x="360" d="M86 88q8 43 42 72.5t77 29.5t68 -29.5t18 -72.5q-6 -42 -41 -72t-78 -30t-67.5 29.5t-18.5 72.5zM221 936q6 42 41 72t78 30t67.5 -29.5t18.5 -72.5q-8 -43 -42 -72.5t-77 -29.5t-68 29.5t-18 72.5z" />
<glyph unicode=";" horiz-adv-x="364" d="M35 -240q6 5 15.5 13t35 33.5t45.5 50.5t39 61t23 68l2 2q-4 0 -12 -1t-11 -1q-43 0 -67.5 29.5t-18.5 72.5q8 43 42 72.5t77 29.5t68 -29.5t18 -72.5q-8 -49 -23.5 -93t-35 -76t-41.5 -59.5t-42 -45.5t-36.5 -30.5t-26.5 -17.5l-10 -6h-41zM221 936q6 42 41 72t78 30 t67.5 -29.5t18.5 -72.5q-8 -43 -42 -72.5t-77 -29.5t-68 29.5t-18 72.5z" />
<glyph unicode="&#x3c;" horiz-adv-x="968" d="M145 410l33 204l871 410l-21 -123l-698 -389l575 -389l-18 -123z" />
<glyph unicode="=" horiz-adv-x="1155" d="M139 244l31 184h950l-30 -184h-951zM201 633l30 184h951l-31 -184h-950z" />
<glyph unicode="&#x3e;" horiz-adv-x="1007" d="M100 0l19 123l698 389l-575 389l20 123l739 -410l-32 -204z" />
<glyph unicode="?" horiz-adv-x="927" d="M223 1278q3 21 17.5 46.5t45.5 55t73 53.5t108 40t143 16q84 0 152 -17t113.5 -47.5t78.5 -72.5t46.5 -91.5t18 -104.5t-6.5 -112q-8 -49 -29 -99.5t-57.5 -101t-83 -93t-109.5 -75.5t-133 -48l-49 -312h-193l66 414h68q59 0 109.5 18.5t86 49t62.5 72t42.5 85t22.5 90.5 q53 330 -225 330q-59 0 -107.5 -20.5t-75 -50t-45 -59t-24.5 -50.5l-6 -20q-52 0 -84 29t-25 75zM315 88q8 43 42 72.5t77 29.5t68 -29.5t18 -72.5q-6 -42 -41 -72t-78 -30t-67.5 29.5t-18.5 72.5z" />
<glyph unicode="A" horiz-adv-x="1230" d="M10 0l742 1364h-97l19 111h213l334 -1475h-203l-94 442h-562l-233 -442h-119zM420 553h479l-137 645z" />
<glyph unicode="B" horiz-adv-x="1087" d="M133 0l215 1364h-123l19 111h536q99 0 168 -17t119 -58q51 -41 67 -116q8 -37 7 -82q0 -47 -8 -102q-40 -234 -213 -322q138 -82 137 -267q0 -46 -8 -99q-65 -412 -476 -412h-440zM342 111h248q96 0 167 74.5t95 226.5q9 58 9 105q0 202 -175 202h-248zM457 829h245 q94 8 153 70.5t81 200.5q7 48 7 86q0 80 -32 120q-48 58 -149 58h-221z" />
<glyph unicode="C" horiz-adv-x="1136" d="M204 428q-5 45 -5 94q0 100 20 215q37 230 123 396.5t227 261t324 94.5q116 0 214 -36t150 -101l-26 -170h-111l17 108q-55 92 -263 92q-192 0 -301 -165t-157 -480q-23 -154 -24 -274q0 -35 3 -69q9 -144 78 -223t199 -79q206 0 291 92l16 109h111l-27 -170 q-72 -65 -183 -101t-227 -36q-138 0 -235.5 53.5t-148.5 152t-65 236.5z" />
<glyph unicode="D" horiz-adv-x="1193" d="M123 0l215 1364h-113l19 111h526q138 0 236 -51.5t150 -147.5t66 -232q5 -46 6 -95q0 -98 -20 -212q-55 -348 -226 -542.5t-445 -194.5h-414zM332 111h221q99 0 175.5 41t131 123.5t91.5 195.5t61 266q22 149 22 264q0 40 -3 75q-10 139 -79 213.5t-200 74.5h-222z" />
<glyph unicode="E" horiz-adv-x="1044" d="M125 0l215 1364h-115l19 111h919l-18 -111h-613l-83 -535h489l-18 -110h-490l-96 -608h612l-16 -111h-805z" />
<glyph unicode="F" horiz-adv-x="1032" d="M125 0l215 1364h-115l19 111h919l-18 -111h-613l-83 -535h489l-18 -110h-490l-113 -719h-192z" />
<glyph unicode="G" horiz-adv-x="1292" d="M204 428q-5 46 -5 94q0 100 20 215q37 230 123 396.5t227 261t324 94.5q264 0 379 -215h-176q-64 100 -222 100q-193 0 -301.5 -162t-156.5 -475q-23 -154 -23 -273q0 -36 2 -68q9 -142 77.5 -219t199.5 -77q164 0 255.5 117t145.5 354h-264l16 111h465 q-63 -330 -221 -513t-416 -183q-138 0 -235.5 53.5t-148.5 152t-65 236.5z" />
<glyph unicode="H" horiz-adv-x="1193" d="M133 0l215 1364h-123l19 111h315l-104 -650h542l105 650h192l-233 -1475h-193l113 715h-543l-112 -715h-193z" />
<glyph unicode="I" horiz-adv-x="456" d="M131 0l215 1364h-121l19 111h313l-233 -1475h-193z" />
<glyph unicode="J" horiz-adv-x="825" d="M35 160q3 27 28.5 50t61.5 23q25 0 41.5 -10t23 -24.5t15.5 -32t19.5 -32t34.5 -24.5t60 -10q85 0 150.5 74.5t85.5 196.5q9 55 30 179t31 187l99 627h-123l18 111h316l-117 -738q-13 -85 -24.5 -146t-27.5 -131t-32 -119.5t-39.5 -102.5t-50 -88.5t-62 -69t-77 -52.5 t-94 -30.5t-113.5 -11.5q-68 0 -121.5 18.5t-82 46t-41.5 56.5q-10 22 -10 41q0 6 1 12z" />
<glyph unicode="K" horiz-adv-x="1073" d="M123 0l215 1364h-113l19 111h305l-96 -601l591 601h132l-627 -650l514 -825h-238l-407 655l-103 -655h-192z" />
<glyph unicode="L" horiz-adv-x="1017" d="M131 0l215 1364h-121l19 111h313l-217 -1364h573l21 122h110l-36 -233h-877z" />
<glyph unicode="M" horiz-adv-x="1421" d="M133 0l215 1364h-123l19 111h362l164 -1061l516 1061h236l-234 -1475h-192l198 1264l-495 -1018h-195l-164 999l-196 -1245h-111z" />
<glyph unicode="N" horiz-adv-x="1177" d="M125 0l215 1364h-115l19 111h225l459 -983l57 -166l182 1149h111l-234 -1475h-110l-461 987l-57 162l-180 -1149h-111z" />
<glyph unicode="O" horiz-adv-x="1306" d="M204 428q-4 44 -5 92q0 101 20 217q56 350 227 551t443 201q138 0 235 -54t147.5 -152.5t64.5 -236.5q5 -45 4 -94q0 -100 -19 -215q-37 -230 -122.5 -396.5t-226 -260.5t-323.5 -94q-138 0 -235 53.5t-146.5 152t-63.5 236.5zM394 396q8 -142 75.5 -219t198.5 -77 q99 0 175 43t130 127.5t90.5 198.5t60.5 268q22 155 22 274q0 35 -2 67q-8 142 -75.5 219t-198.5 77q-99 0 -175 -43t-130 -127.5t-89.5 -198.5t-59.5 -268q-24 -158 -24 -279q0 -32 2 -62z" />
<glyph unicode="P" d="M133 0l215 1364h-123l19 111h563q89 0 157.5 -22t117.5 -69q50 -47 68 -129q10 -43 9 -94q0 -47 -8 -100q-35 -222 -157 -319t-320 -97h-248l-100 -645h-193zM444 756h248q101 0 167.5 70t94.5 235q11 68 11 120q0 76 -24 116q-40 67 -153 67h-247z" />
<glyph unicode="Q" horiz-adv-x="1370" d="M204 428q-5 44 -5 92q0 101 20 217q56 350 227 551t443 201q138 0 235 -54t147.5 -152.5t64.5 -236.5q5 -46 5 -94q0 -100 -20 -215q-45 -284 -168 -472.5t-315 -250.5q9 -60 46 -97.5t95 -37.5q45 0 81.5 18t56 44t32 52t16.5 44l4 18q50 0 75 -27q18 -21 18 -52 q0 -10 -2 -21q-9 -53 -95 -111.5t-202 -58.5q-85 0 -146.5 55.5t-68.5 153.5q-41 -8 -99 -8q-138 0 -235 53.5t-147 152t-63 236.5zM394 396q8 -142 75.5 -219t198.5 -77q99 0 175 43t130 127.5t90.5 198.5t60.5 268q22 155 22 274q0 35 -2 67q-8 142 -75.5 219t-198.5 77 q-99 0 -175 -43t-130 -127.5t-89.5 -198.5t-59.5 -268q-24 -158 -24 -279q0 -33 2 -62z" />
<glyph unicode="R" horiz-adv-x="1116" d="M133 0l215 1364h-123l19 111h551q89 0 157.5 -22t117.5 -69q50 -47 68 -129q10 -43 9 -94q0 -47 -8 -100q-51 -321 -301 -393l268 -668h-215l-258 645h-207l-100 -645h-193zM444 756h236q101 0 167.5 70t94.5 235q11 68 11 120q0 76 -24 116q-40 67 -153 67h-235z" />
<glyph unicode="S" horiz-adv-x="1103" d="M117 100l30 196h111l-20 -128q144 -68 309 -68q50 0 99 16.5t96 50.5t82 97t48 146q4 24 4 45q0 23 -4 43q-8 39 -27.5 65t-51.5 48t-64 37t-74 32q-4 1 -6 2q-150 61 -218 108q-156 107 -156 265q0 26 4 53q29 181 162.5 281t326.5 100q58 0 114.5 -7t103.5 -20.5 t77 -23.5t64 -24t36 -15l-33 -197h-110l18 109q-137 63 -288 63q-103 0 -180 -65t-99 -201q-2 -14 -2 -27q0 -59 40 -99q49 -48 169 -103q15 -7 51 -21q62 -25 98 -41.5t95 -56.5t90 -82q30 -44 48 -114q10 -41 11 -86q0 -33 -6 -68q-22 -140 -99.5 -237.5t-188.5 -142 t-249 -44.5q-83 0 -157.5 15t-111 30t-85.5 40.5t-57 28.5z" />
<glyph unicode="T" horiz-adv-x="1161" d="M207 1249l37 226h1140l-36 -226h-111l18 115h-362l-215 -1364h-193l215 1364h-364l-19 -115h-110z" />
<glyph unicode="U" horiz-adv-x="1224" d="M225 1364l19 111h313l-117 -738q-16 -103 -24 -185q-6 -62 -5 -119q1 -19 1 -37q2 -74 17 -127t43 -92t73 -58t106 -19q346 0 447 637l116 738h111l-117 -738q-28 -178 -71.5 -310t-110.5 -234t-165.5 -154.5t-227.5 -52.5q-130 0 -219 53.5t-132.5 152t-53.5 236.5 q-2 34 -2 71q0 110 22 238l98 627h-121z" />
<glyph unicode="V" horiz-adv-x="1159" d="M225 1364l19 111h280l160 -1315l580 1315h118l-661 -1475h-205l-180 1364h-111z" />
<glyph unicode="W" horiz-adv-x="1630" d="M225 1364l19 111h280l160 -1315l217 491l-106 824h200l70 -582l256 582h119l-353 -781l68 -534l580 1315h118l-661 -1475h-205l-61 459l-205 -459h-205l-180 1364h-111z" />
<glyph unicode="X" horiz-adv-x="1101" d="M59 0l533 768l-223 596h-144l19 111h299l200 -545l398 545h121l-476 -658l306 -817h-213l-246 655l-453 -655h-121z" />
<glyph unicode="Y" horiz-adv-x="1114" d="M225 1364l19 111h280l242 -652l451 652h120l-526 -762l-113 -713h-192l110 709l-268 655h-123z" />
<glyph unicode="Z" horiz-adv-x="1226" d="M98 0l959 1364h-543l-18 -115h-111l37 226h930l-963 -1364h664l18 114h111l-35 -225h-1049z" />
<glyph unicode="[" horiz-adv-x="575" d="M80 -287l280 1762h416l-18 -111h-223l-244 -1540h223l-18 -111h-416z" />
<glyph unicode="\" horiz-adv-x="598" d="M262 1516h119l186 -1530h-106z" />
<glyph unicode="]" horiz-adv-x="561" d="M-27 -287l19 111h221l244 1540h-224l19 111h416l-281 -1762h-414z" />
<glyph unicode="^" horiz-adv-x="1175" d="M158 793l565 723h205l336 -723h-123l-338 583l-522 -583h-123z" />
<glyph unicode="_" horiz-adv-x="1320" d="M37 -289l16 103h1147l-16 -103h-1147z" />
<glyph unicode="`" horiz-adv-x="509" d="M336 1530h184l49 -334h-102z" />
<glyph unicode="a" d="M89 229q-7 49 -7 105q0 80 14 178q41 257 152 391.5t307 134.5q192 0 262 -137l21 123h184l-162 -1024h-164l4 172q-30 -38 -45.5 -56.5t-47.5 -48.5t-59.5 -44t-69.5 -25.5t-91 -11.5q-132 0 -206.5 63t-91.5 180zM285 512q-15 -96 -15 -170q0 -90 22 -148 q40 -106 161 -106q93 0 180 124t123 300l4 20q12 82 12 148q0 260 -184 260q-236 0 -303 -428z" />
<glyph unicode="b" horiz-adv-x="1079" d="M133 0l223 1413h-123l17 103h307l-104 -650q118 172 333 172q132 0 202 -63t82 -180q4 -38 4 -81q0 -90 -17 -202q-40 -261 -142.5 -393.5t-296.5 -132.5q-218 0 -278 174l-43 -160h-164zM397 512q-15 -95 -15 -169q0 -259 183 -259q236 0 303 428q15 95 15 169 q0 259 -183 259q-232 0 -299 -408z" />
<glyph unicode="c" horiz-adv-x="968" d="M182 512q24 151 106 272.5t197 187.5t240 66q130 0 212 -59q76 -54 76 -103q0 -4 -1 -8q-7 -44 -46.5 -72t-91.5 -28q0 4 0.5 10t-1 24.5t-5.5 35t-15.5 37t-28 35t-45.5 24.5t-66 10q-111 0 -211.5 -123t-130.5 -309q-11 -67 -10 -126q0 -105 34 -182q54 -120 164 -120 q50 0 95 7.5t75 18.5t51.5 22t33.5 18l11 8q24 0 34.5 -7t8.5 -20q-3 -18 -31.5 -42.5t-72 -47.5t-103.5 -39t-118 -16q-189 0 -293 148q-77 110 -77 266q0 53 9 112z" />
<glyph unicode="d" horiz-adv-x="1079" d="M175 229q-7 49 -7 105q0 80 14 178q41 257 152 391.5t307 134.5q192 0 262 -137l82 512h-123l17 103h307l-240 -1516h-164l4 131q-114 -145 -313 -145q-132 0 -206.5 63t-91.5 180zM371 512q-15 -95 -15 -169q0 -259 183 -259q236 0 303 428l4 20q12 82 12 148 q0 260 -184 260q-236 0 -303 -428z" />
<glyph unicode="e" horiz-adv-x="1024" d="M182 512q40 248 173 387t335 139q200 0 280 -138q53 -92 54 -233q0 -71 -14 -155h-635q-11 -67 -11 -126q0 -105 35 -182q54 -120 164 -120q50 0 97.5 7.5t80 18.5t57.5 22t38 18l14 8q22 0 31.5 -6t7.5 -17q-3 -18 -34 -43t-76.5 -49t-108.5 -40.5t-123 -16.5 q-189 0 -295 148q-79 111 -79 267q0 53 9 111zM393 614h443q5 49 5 91q0 97 -26 153q-37 82 -141 82q-211 0 -281 -326z" />
<glyph unicode="f" horiz-adv-x="763" d="M59 -532l228 1454h-121l16 102h121l2 20q23 143 61 240t91.5 150t114 74.5t139.5 21.5q124 0 197 -44q64 -39 64 -93q0 -6 -1 -13q-6 -44 -45.5 -72t-91.5 -28q1 6 2 16.5t-3.5 37.5t-16.5 47.5t-42.5 37.5t-75.5 17q-76 0 -126.5 -94t-82.5 -298l-2 -20h265l-17 -102 h-264l-227 -1454h-185z" />
<glyph unicode="g" horiz-adv-x="1155" d="M76 -205q26 170 182 246q-40 20 -66.5 48.5t-37 58.5t-15 62t1.5 58q11 74 62 128.5t123 82.5q-24 53 -24 124q0 39 7 83q26 168 132.5 260t265.5 92q127 0 206 -61q78 61 162 61q88 0 139 -40q44 -36 44 -77q0 -6 -1 -12q-7 -44 -46 -72t-91 -28q1 5 2 14.5t-1 32.5 t-8.5 41t-24.5 32.5t-46 14.5q-44 0 -81 -16q48 -64 48 -169q0 -34 -5 -73q-27 -167 -138.5 -259.5t-271.5 -92.5q-153 0 -227 80q-49 -14 -82.5 -48t-38.5 -67q-5 -32 0.5 -52t30.5 -37.5t80 -25.5t145 -8h108q218 0 316 -98q76 -75 76 -203q0 -38 -7 -80 q-15 -90 -63 -157.5t-121.5 -107t-162 -58.5t-193.5 -19q-200 0 -304 83q-81 64 -81 186q0 34 6 73zM248 -205q-5 -33 -5 -63q0 -189 226 -189q66 0 121.5 12.5t105 40.5t83 78.5t44.5 120.5q4 22 4 42q0 35 -11 62q-18 43 -56.5 63.5t-80.5 29t-95 8.5h-109q-63 0 -104 8 q-97 -41 -123 -213zM481 686q-8 -48 -8 -88q0 -65 21 -106q34 -68 114 -68t141 68t82 194q8 49 8 88q0 174 -147 174q-91 0 -140.5 -64.5t-70.5 -197.5z" />
<glyph unicode="h" horiz-adv-x="1105" d="M133 0l223 1413h-123l17 103h307l-104 -662q111 184 333 184q132 0 201 -63t80 -180q3 -36 3 -76q0 -92 -17 -207l-80 -512h-185l80 512q15 95 15 169q0 259 -183 259q-232 0 -299 -408l-84 -532h-184z" />
<glyph unicode="i" horiz-adv-x="458" d="M131 0l145 922h-120l16 102h305l-162 -1024h-184zM340 1386q6 43 41 73t78 30t67 -30q20 -24 20 -57q0 -8 -1 -16q-8 -43 -42 -72.5t-77 -29.5t-68 30q-20 23 -20 54q0 9 2 18z" />
<glyph unicode="j" horiz-adv-x="595" d="M-49 -432q6 36 28.5 59t43.5 23q1 -1 0 -8.5t2.5 -20t9.5 -24.5t21 -20.5t36 -8.5q74 0 127 202q32 121 90 495q8 50 13 83l92 574h-123l16 102h307l-108 -676q-19 -121 -30 -188t-29.5 -167t-34.5 -156t-38.5 -127.5t-47.5 -110.5t-57 -77t-71 -53.5t-85 -15.5 q-94 0 -131 35q-32 29 -32 66q0 7 1 14zM477 1386q6 43 41 73t78 30t68 -30q19 -24 19 -57q0 -8 -1 -16q-8 -43 -42 -72.5t-77 -29.5t-68 30q-20 23 -20 54q0 9 2 18z" />
<glyph unicode="k" horiz-adv-x="1071" d="M133 0l223 1413h-123l17 103h307l-137 -861l498 369h153l-442 -328l432 -696h-230l-360 580l-72 -54l-82 -526h-184z" />
<glyph unicode="l" horiz-adv-x="450" d="M133 0l223 1413h-123l17 103h307l-240 -1516h-184z" />
<glyph unicode="m" horiz-adv-x="1699" d="M133 0l146 922h-123l16 102h287l-8 -150q99 164 305 164q207 0 264 -168q106 168 332 168q310 0 310 -352q0 -78 -15 -174l-80 -512h-185l80 512q15 95 15 169q0 259 -183 259q-118 0 -177.5 -103.5t-94.5 -324.5l-80 -512h-184l80 512q15 95 15 169q0 259 -183 259 q-113 0 -173 -95t-94 -294l-86 -551h-184z" />
<glyph unicode="n" horiz-adv-x="1105" d="M133 0l146 922h-123l16 102h287l-10 -172q116 186 337 186q132 0 201 -63t80 -180q3 -36 3 -76q0 -92 -17 -207l-80 -512h-185l80 512q15 95 15 169q0 259 -183 259q-232 0 -299 -408l-84 -532h-184z" />
<glyph unicode="o" horiz-adv-x="1052" d="M182 512q40 248 173 387t335 139t291 -139q61 -96 61 -244q0 -66 -12 -143q-38 -248 -172 -387t-336 -139t-290 138q-62 97 -61 248q0 65 11 140zM371 512q-15 -94 -14 -167q-1 -90 21 -148q40 -105 162.5 -105t195.5 105t106 315q15 96 15 169q1 88 -21 146 q-40 105 -162 105t-196 -105.5t-107 -314.5z" />
<glyph unicode="p" horiz-adv-x="1079" d="M47 -532l232 1454h-123l16 102h287l-6 -131q114 145 313 145q196 0 264 -134q42 -84 42 -216q0 -79 -15 -176q-40 -256 -151.5 -391t-307.5 -135q-193 0 -262 135l-105 -653h-184zM397 512q-15 -95 -15 -169q0 -259 183 -259q236 0 303 428q15 95 15 169q0 259 -183 259 q-232 0 -299 -408z" />
<glyph unicode="q" horiz-adv-x="1130" d="M175 229q-7 49 -7 105q0 81 14 178q41 257 152 391.5t307 134.5q200 0 266 -145l37 131h287l-17 -102h-122l-232 -1454h-184l104 653q-114 -135 -307 -135q-132 0 -206.5 63t-91.5 180zM371 512q-15 -95 -15 -169q0 -259 183 -259q236 0 303 428q15 95 15 169 q0 259 -183 259q-236 0 -303 -428z" />
<glyph unicode="r" horiz-adv-x="829" d="M133 0l146 922h-123l16 102h287l-8 -164q108 178 294 178q105 0 163 -45q51 -39 51 -92q0 -8 -1 -16q-7 -44 -46.5 -72.5t-90.5 -28.5q1 6 2 16.5t-3 36.5t-15.5 46t-40.5 36.5t-72 16.5q-91 0 -167.5 -87t-112.5 -245l-95 -604h-184z" />
<glyph unicode="s" horiz-adv-x="954" d="M119 150q0 37 42 63.5t95 26.5q0 -6 2 -16t13 -35.5t28.5 -45t54.5 -35.5t86 -16q50 0 90 6.5t79.5 23t65 51t32.5 85.5q3 15 3 29q0 25 -8 45q-12 32 -48 54.5t-59 32.5t-71 27q-5 2 -8 3q-293 104 -293 292q0 21 4 43q20 121 133 187.5t275 66.5q127 0 215 -49.5 t88 -114.5q0 -37 -42 -63.5t-95 -26.5q0 6 -2 16t-13 35.5t-28.5 45t-54 35.5t-85.5 16q-91 0 -143 -39t-63 -109q-1 -10 -2 -19q0 -37 23 -60q28 -29 112 -68q14 -6 59.5 -22t82 -30t82 -44t74.5 -65t44 -92q9 -33 9 -70q0 -27 -5 -56q-12 -75 -54 -129.5t-107.5 -84.5 t-141.5 -44t-166 -14q-127 0 -215 49.5t-88 114.5z" />
<glyph unicode="t" horiz-adv-x="745" d="M231 922l17 102h139l27 174h2l200 109l-45 -283h252l-16 -102h-252l-94 -594q-11 -83 -11 -135q0 -39 6 -59q15 -50 66 -50q26 0 48 7t34.5 16.5t20.5 19t12 16.5l4 7q19 0 28 -9.5t7 -23.5q-8 -44 -67 -87.5t-154 -43.5q-123 0 -165 84q-25 50 -25 132q0 55 11 126 l95 594h-140z" />
<glyph unicode="u" horiz-adv-x="1075" d="M156 922l16 102h299l-82 -512q-15 -99 -16 -175q0 -88 21 -145q38 -108 159 -108q114 0 178.5 96t99.5 291l89 553h184l-162 -1024h-164l4 156q-104 -170 -315 -170q-99 0 -162 36t-89 104q-28 66 -30 164v22q0 90 19 200l65 410h-114z" />
<glyph unicode="v" d="M156 922l16 102h277l149 -874l434 874h113l-518 -1024h-178l-173 922h-120z" />
<glyph unicode="w" horiz-adv-x="1390" d="M156 922l16 102h268l150 -874l166 331l-101 543h191l55 -326l162 326h113l-248 -485l67 -389l435 874h112l-518 -1024h-178l-64 328l-164 -328h-178l-172 922h-112z" />
<glyph unicode="x" horiz-adv-x="815" d="M61 0l365 532l-143 390h-127l16 102h254l127 -352l244 352h96l-305 -444l217 -580h-180l-164 440l-301 -440h-99z" />
<glyph unicode="y" horiz-adv-x="913" d="M-29 -420q5 28 22 47t42 19v-10.5t4.5 -22.5t13 -28.5t28.5 -23t48 -10.5q51 0 105.5 67.5t121.5 201.5l90 184l-170 918h-120l16 102h277l120 -772l383 772h113l-608 -1204q-110 -218 -180 -292.5t-173 -74.5q-73 0 -106 39q-28 33 -28 72q0 8 1 16z" />
<glyph unicode="z" horiz-adv-x="1032" d="M113 0l657 922h-358l-21 -123h-102l37 225h723l-660 -922h408l20 123h103l-35 -225h-772z" />
<glyph unicode="&#xa1;" horiz-adv-x="401" d="M260 854q-6 43 18.5 72.5t67.5 29.5t78 -30t41 -72q7 -43 -18 -72.5t-68 -29.5t-77 29.5t-42 72.5zM346 627h111l225 -1159h-193z" />
<glyph unicode="&#xa8;" horiz-adv-x="692" d="M301 1386q6 43 41 73t78 30t67.5 -30t18.5 -73q-8 -43 -42 -72.5t-77 -29.5t-68 29.5t-18 72.5zM625 1386q6 43 40.5 73t77.5 30t67.5 -30t18.5 -73q-8 -43 -41.5 -72.5t-76.5 -29.5t-68 29.5t-18 72.5z" />
<glyph unicode="&#xad;" horiz-adv-x="798" d="M166 469l29 184h614l-29 -184h-614z" />
<glyph unicode="&#xb4;" horiz-adv-x="495" d="M283 1196l155 334h185l-238 -334h-102z" />
<glyph unicode="&#xb8;" horiz-adv-x="446" d="M-23 -346q2 11 11.5 19t23.5 8q0 -2 0.5 -4.5t3.5 -9t9 -12t18.5 -9.5t30.5 -4q32 0 72 26t67 76q18 42 20 59q4 37 -32 37q-11 0 -23.5 -2.5t-20 -5.5t-14.5 -6.5t-8 -3.5v-2h-86l125 209h96l-88 -152q57 21 92 21q46 0 66 -22.5t14 -61.5l-2 -11q-2 -23 -22 -71 q-41 -70 -114.5 -105t-149.5 -35q-46 0 -69 19.5t-20 42.5z" />
<glyph unicode="&#xbf;" horiz-adv-x="960" d="M79 -214q-4 55 7 112q8 49 29 99.5t57.5 101t83 93t109.5 75.5t133 48l49 312h192l-65 -414h-68q-59 0 -109.5 -18.5t-86 -49t-62.5 -72t-42.5 -85t-22.5 -90.5q-53 -330 225 -330q43 0 80.5 11t63 29t46.5 39t33 42.5t20.5 39.5t11.5 29l3 11q52 0 83.5 -29.5 t24.5 -75.5q-3 -21 -17.5 -46.5t-45.5 -55t-73 -53.5t-108 -40t-143 -16q-84 0 -152 17t-113.5 47.5t-78 72.5t-46.5 91.5t-18 104.5zM578 854q6 43 40.5 72.5t77.5 29.5t67.5 -29.5t18.5 -72.5q-8 -43 -41.5 -72.5t-76.5 -29.5t-68 29.5t-18 72.5z" />
<glyph unicode="&#xc0;" horiz-adv-x="1230" d="M10 0l742 1364h-97l19 111h213l334 -1475h-203l-94 442h-562l-233 -442h-119zM420 553h479l-137 645zM647 1980h184l50 -333h-103z" />
<glyph unicode="&#xc1;" horiz-adv-x="1230" d="M10 0l742 1364h-97l19 111h213l334 -1475h-203l-94 442h-562l-233 -442h-119zM420 553h479l-137 645zM776 1647l156 333h184l-237 -333h-103z" />
<glyph unicode="&#xc2;" horiz-adv-x="1230" d="M10 0l742 1364h-97l19 111h213l334 -1475h-203l-94 442h-562l-233 -442h-119zM420 553h479l-137 645zM532 1647l279 333h164l172 -333h-123l-147 231l-222 -231h-123z" />
<glyph unicode="&#xc3;" horiz-adv-x="1230" d="M10 0l742 1364h-97l19 111h213l334 -1475h-203l-94 442h-562l-233 -442h-119zM420 553h479l-137 645zM512 1694q15 100 68.5 165.5t140.5 65.5q45 0 85.5 -15t69 -36.5t55 -43.5t55 -37t56.5 -15q43 0 72 37.5t37 89.5h63q-16 -101 -68.5 -166.5t-139.5 -65.5 q-45 0 -85.5 15t-70 37t-56 44t-55.5 37t-57 15q-43 0 -72.5 -38.5t-36.5 -88.5h-61z" />
<glyph unicode="&#xc4;" horiz-adv-x="1230" d="M10 0l742 1364h-97l19 111h213l334 -1475h-203l-94 442h-562l-233 -442h-119zM420 553h479l-137 645zM610 1837q6 42 41 72t78 30t67.5 -29.5t18.5 -72.5q-8 -43 -42 -72.5t-77 -29.5t-68 29.5t-18 72.5zM934 1837q6 42 41 72t78 30t67.5 -29.5t18.5 -72.5 q-8 -43 -42 -72.5t-77 -29.5t-68 29.5t-18 72.5z" />
<glyph unicode="&#xc7;" horiz-adv-x="1110" d="M204 428.5q-14 138.5 15 308.5q37 230 123 396.5t227 261t324 94.5q116 0 214 -36t150 -101l-26 -170h-111l17 108q-55 92 -263 92q-192 0 -301 -165t-157 -480q-30 -200 -21 -343.5t78 -222.5t199 -79q206 0 291 92l16 109h111l-27 -170q-72 -65 -183 -101t-227 -36 q-138 0 -235.5 53.5t-148.5 152t-65 237zM371 -346q2 11 11.5 19t23.5 8v-4.5t3.5 -9t9 -12t18 -9.5t30.5 -4q32 0 72 26t67 76q19 45 21 59q4 37 -33 37q-11 0 -23.5 -2.5t-20 -5.5t-14.5 -6.5t-8 -3.5v-2h-86l125 209h97l-89 -152q57 21 93 21q46 0 66 -22.5t14 -61.5 l-3 -11q-2 -23 -22 -71q-41 -70 -114.5 -105t-149.5 -35q-46 0 -68.5 19.5t-19.5 42.5z" />
<glyph unicode="&#xc8;" horiz-adv-x="1091" d="M125 0l215 1364h-115l19 111h919l-18 -111h-613l-83 -535h489l-18 -110h-490l-96 -608h612l-16 -111h-805zM586 1980h184l49 -333h-102z" />
<glyph unicode="&#xc9;" horiz-adv-x="1091" d="M125 0l215 1364h-115l19 111h919l-18 -111h-613l-83 -535h489l-18 -110h-490l-96 -608h612l-16 -111h-805zM696 1647l156 333h184l-237 -333h-103z" />
<glyph unicode="&#xca;" horiz-adv-x="1091" d="M125 0l215 1364h-115l19 111h919l-18 -111h-613l-83 -535h489l-18 -110h-490l-96 -608h612l-16 -111h-805zM430 1647l279 333h163l172 -333h-122l-148 231l-221 -231h-123z" />
<glyph unicode="&#xcb;" horiz-adv-x="1091" d="M125 0l215 1364h-115l19 111h919l-18 -111h-613l-83 -535h489l-18 -110h-490l-96 -608h612l-16 -111h-805zM500 1837q6 43 40.5 72.5t77.5 29.5t68 -29.5t19 -72.5q-8 -43 -42 -72.5t-77 -29.5t-68 29.5t-18 72.5zM823 1837q6 42 41 72t78 30t67.5 -29.5t18.5 -72.5 q-8 -43 -42 -72.5t-77 -29.5t-68 29.5t-18 72.5z" />
<glyph unicode="&#xcc;" horiz-adv-x="456" d="M131 0l215 1364h-121l19 111h313l-233 -1475h-193zM342 1980h184l49 -333h-102z" />
<glyph unicode="&#xcd;" horiz-adv-x="464" d="M131 0l215 1364h-121l19 111h313l-233 -1475h-193zM354 1647l156 333h184l-237 -333h-103z" />
<glyph unicode="&#xce;" horiz-adv-x="645" d="M244 0l215 1364h-121l18 111h314l-234 -1475h-192zM268 1647l279 333h164l172 -333h-123l-148 231l-221 -231h-123z" />
<glyph unicode="&#xcf;" horiz-adv-x="555" d="M225 0l215 1364h-121l19 111h313l-233 -1475h-193zM301 1837q6 42 41 72t78 30t67.5 -29.5t18.5 -72.5q-8 -43 -42 -72.5t-77 -29.5t-68 29.5t-18 72.5zM625 1837q6 43 40.5 72.5t77.5 29.5t67.5 -29.5t18.5 -72.5q-8 -43 -41.5 -72.5t-76.5 -29.5t-68 29.5t-18 72.5z " />
<glyph unicode="&#xd1;" horiz-adv-x="1177" d="M125 0l215 1364h-115l19 111h225l459 -983l57 -166l182 1149h111l-234 -1475h-110l-461 987l-57 162l-180 -1149h-111zM498 1694q15 100 68.5 165.5t140.5 65.5q45 0 85.5 -15t69 -36.5t55 -43.5t55 -37t56.5 -15q43 0 72 37.5t37 89.5h63q-16 -101 -69 -166.5 t-140 -65.5q-45 0 -85.5 15t-69.5 37t-55.5 44t-55.5 37t-57 15q-43 0 -72.5 -38.5t-36.5 -88.5h-61z" />
<glyph unicode="&#xd2;" horiz-adv-x="1306" d="M203.5 428.5q-13.5 138.5 15.5 308.5q56 350 227 551t443 201q138 0 235 -54t147.5 -152.5t64.5 -237t-15 -308.5q-37 -230 -122.5 -396.5t-226 -260.5t-323.5 -94q-138 0 -235 53.5t-147 152t-63.5 237zM394 395.5q8 -141.5 75.5 -218.5t198.5 -77q99 0 175 43 t130 127.5t90.5 198.5t60.5 268q29 200 20.5 341.5t-76 218.5t-198.5 77q-99 0 -175 -43t-130 -127.5t-89.5 -198.5t-59.5 -268q-30 -200 -22 -341.5zM748 1980h184l49 -333h-102z" />
<glyph unicode="&#xd3;" horiz-adv-x="1306" d="M203.5 428.5q-13.5 138.5 15.5 308.5q56 350 227 551t443 201q138 0 235 -54t147.5 -152.5t64.5 -237t-15 -308.5q-37 -230 -122.5 -396.5t-226 -260.5t-323.5 -94q-138 0 -235 53.5t-147 152t-63.5 237zM394 395.5q8 -141.5 75.5 -218.5t198.5 -77q99 0 175 43 t130 127.5t90.5 198.5t60.5 268q29 200 20.5 341.5t-76 218.5t-198.5 77q-99 0 -175 -43t-130 -127.5t-89.5 -198.5t-59.5 -268q-30 -200 -22 -341.5zM864 1647l156 333h184l-237 -333h-103z" />
<glyph unicode="&#xd4;" horiz-adv-x="1306" d="M203.5 428.5q-13.5 138.5 15.5 308.5q56 350 227 551t443 201q138 0 235 -54t147.5 -152.5t64.5 -237t-15 -308.5q-37 -230 -122.5 -396.5t-226 -260.5t-323.5 -94q-138 0 -235 53.5t-147 152t-63.5 237zM394 395.5q8 -141.5 75.5 -218.5t198.5 -77q99 0 175 43 t130 127.5t90.5 198.5t60.5 268q29 200 20.5 341.5t-76 218.5t-198.5 77q-99 0 -175 -43t-130 -127.5t-89.5 -198.5t-59.5 -268q-30 -200 -22 -341.5zM578 1647l278 333h164l172 -333h-123l-147 231l-222 -231h-122z" />
<glyph unicode="&#xd5;" horiz-adv-x="1306" d="M203.5 428.5q-13.5 138.5 15.5 308.5q56 350 227 551t443 201q138 0 235 -54t147.5 -152.5t64.5 -237t-15 -308.5q-37 -230 -122.5 -396.5t-226 -260.5t-323.5 -94q-138 0 -235 53.5t-147 152t-63.5 237zM394 395.5q8 -141.5 75.5 -218.5t198.5 -77q99 0 175 43 t130 127.5t90.5 198.5t60.5 268q29 200 20.5 341.5t-76 218.5t-198.5 77q-99 0 -175 -43t-130 -127.5t-89.5 -198.5t-59.5 -268q-30 -200 -22 -341.5zM580 1694q15 100 68 165.5t140 65.5q45 0 85.5 -15t69.5 -36.5t55 -43.5t55 -37t57 -15q43 0 72 37.5t37 89.5h63 q-16 -101 -69 -166.5t-140 -65.5q-45 0 -85.5 15t-69.5 37t-55.5 44t-55.5 37t-57 15q-43 0 -72.5 -38.5t-36.5 -88.5h-61z" />
<glyph unicode="&#xd6;" horiz-adv-x="1306" d="M203.5 428.5q-13.5 138.5 15.5 308.5q56 350 227 551t443 201q138 0 235 -54t147.5 -152.5t64.5 -237t-15 -308.5q-37 -230 -122.5 -396.5t-226 -260.5t-323.5 -94q-138 0 -235 53.5t-147 152t-63.5 237zM394 395.5q8 -141.5 75.5 -218.5t198.5 -77q99 0 175 43 t130 127.5t90.5 198.5t60.5 268q29 200 20.5 341.5t-76 218.5t-198.5 77q-99 0 -175 -43t-130 -127.5t-89.5 -198.5t-59.5 -268q-30 -200 -22 -341.5zM668 1837q6 43 40.5 72.5t77.5 29.5t67.5 -29.5t18.5 -72.5q-8 -43 -41.5 -72.5t-76.5 -29.5t-68 29.5t-18 72.5z M991 1837q6 42 41 72t78 30t67.5 -29.5t18.5 -72.5q-8 -43 -42 -72.5t-77 -29.5t-68 29.5t-18 72.5z" />
<glyph unicode="&#xd9;" horiz-adv-x="1224" d="M225 1364l19 111h313l-117 -738q-16 -103 -23.5 -185.5t-5 -156t17.5 -126.5t43 -92t73 -58t106 -19q346 0 447 637l116 738h111l-117 -738q-28 -178 -71.5 -310t-110.5 -234t-165.5 -154.5t-227.5 -52.5q-130 0 -219 53.5t-132.5 152t-53 237t19.5 308.5l98 627h-121z M754 1980h184l49 -333h-102z" />
<glyph unicode="&#xda;" horiz-adv-x="1224" d="M225 1364l19 111h313l-117 -738q-16 -103 -23.5 -185.5t-5 -156t17.5 -126.5t43 -92t73 -58t106 -19q346 0 447 637l116 738h111l-117 -738q-28 -178 -71.5 -310t-110.5 -234t-165.5 -154.5t-227.5 -52.5q-130 0 -219 53.5t-132.5 152t-53 237t19.5 308.5l98 627h-121z M848 1647l156 333h184l-238 -333h-102z" />
<glyph unicode="&#xdb;" horiz-adv-x="1224" d="M225 1364l19 111h313l-117 -738q-16 -103 -23.5 -185.5t-5 -156t17.5 -126.5t43 -92t73 -58t106 -19q346 0 447 637l116 738h111l-117 -738q-28 -178 -71.5 -310t-110.5 -234t-165.5 -154.5t-227.5 -52.5q-130 0 -219 53.5t-132.5 152t-53 237t19.5 308.5l98 627h-121z M592 1647l278 333h164l172 -333h-123l-147 231l-221 -231h-123z" />
<glyph unicode="&#xdc;" horiz-adv-x="1224" d="M225 1364l19 111h313l-117 -738q-16 -103 -23.5 -185.5t-5 -156t17.5 -126.5t43 -92t73 -58t106 -19q346 0 447 637l116 738h111l-117 -738q-28 -178 -71.5 -310t-110.5 -234t-165.5 -154.5t-227.5 -52.5q-130 0 -219 53.5t-132.5 152t-53 237t19.5 308.5l98 627h-121z M666 1837q6 43 40.5 72.5t77.5 29.5t67.5 -29.5t18.5 -72.5q-8 -43 -41.5 -72.5t-76.5 -29.5t-68 29.5t-18 72.5zM989 1837q6 42 41 72t78 30t67.5 -29.5t18.5 -72.5q-8 -43 -42 -72.5t-77 -29.5t-68 29.5t-18 72.5z" />
<glyph unicode="&#xdd;" horiz-adv-x="1114" d="M225 1364l19 111h280l242 -652l451 652h120l-526 -762l-113 -713h-192l110 709l-268 655h-123zM838 1647l155 333h185l-238 -333h-102z" />
<glyph unicode="&#xe0;" d="M89 229q-17 117 7 283q41 257 152 391.5t307 134.5q192 0 262 -137l21 123h184l-162 -1024h-164l4 172q-30 -38 -45.5 -56.5t-47.5 -48.5t-59.5 -44t-69.5 -25.5t-91 -11.5q-132 0 -206.5 63t-91.5 180zM285 512q-33 -211 6.5 -317.5t161.5 -106.5q93 0 180 124t123 300 l4 20q58 408 -172 408q-236 0 -303 -428zM524 1530h185l49 -334h-103z" />
<glyph unicode="&#xe1;" d="M89 229q-17 117 7 283q41 257 152 391.5t307 134.5q192 0 262 -137l21 123h184l-162 -1024h-164l4 172q-30 -38 -45.5 -56.5t-47.5 -48.5t-59.5 -44t-69.5 -25.5t-91 -11.5q-132 0 -206.5 63t-91.5 180zM285 512q-33 -211 6.5 -317.5t161.5 -106.5q93 0 180 124t123 300 l4 20q58 408 -172 408q-236 0 -303 -428zM604 1196l156 334h184l-237 -334h-103z" />
<glyph unicode="&#xe2;" d="M89 229q-17 117 7 283q41 257 152 391.5t307 134.5q192 0 262 -137l21 123h184l-162 -1024h-164l4 172q-30 -38 -45.5 -56.5t-47.5 -48.5t-59.5 -44t-69.5 -25.5t-91 -11.5q-132 0 -206.5 63t-91.5 180zM285 512q-33 -211 6.5 -317.5t161.5 -106.5q93 0 180 124t123 300 l4 20q58 408 -172 408q-236 0 -303 -428zM395 1196l279 334h164l172 -334h-123l-148 231l-221 -231h-123z" />
<glyph unicode="&#xe3;" d="M89 229q-17 117 7 283q41 257 152 391.5t307 134.5q192 0 262 -137l21 123h184l-162 -1024h-164l4 172q-30 -38 -45.5 -56.5t-47.5 -48.5t-59.5 -44t-69.5 -25.5t-91 -11.5q-132 0 -206.5 63t-91.5 180zM285 512q-33 -211 6.5 -317.5t161.5 -106.5q93 0 180 124t123 300 l4 20q58 408 -172 408q-236 0 -303 -428zM360 1243q15 100 68.5 166t140.5 66q45 0 85.5 -15t69.5 -37t55 -44t55 -37t57 -15q43 0 71.5 37.5t36.5 89.5h64q-16 -101 -69 -166t-140 -65q-45 0 -85.5 15t-70 36.5t-56 43.5t-55.5 37t-57 15q-43 0 -72 -38.5t-36 -88.5h-62z " />
<glyph unicode="&#xe4;" d="M89 229q-17 117 7 283q41 257 152 391.5t307 134.5q192 0 262 -137l21 123h184l-162 -1024h-164l4 172q-30 -38 -45.5 -56.5t-47.5 -48.5t-59.5 -44t-69.5 -25.5t-91 -11.5q-132 0 -206.5 63t-91.5 180zM285 512q-33 -211 6.5 -317.5t161.5 -106.5q93 0 180 124t123 300 l4 20q58 408 -172 408q-236 0 -303 -428zM428 1386q6 43 41 73t78 30t67.5 -30t18.5 -73q-8 -43 -42 -72.5t-77 -29.5t-68 29.5t-18 72.5zM752 1386q6 43 40.5 73t77.5 30t67.5 -30t18.5 -73q-8 -43 -41.5 -72.5t-76.5 -29.5t-68 29.5t-18 72.5z" />
<glyph unicode="&#xe7;" horiz-adv-x="974" d="M182 512q24 151 106 272.5t197 187.5t240 66q130 0 212 -59t75 -111q-7 -44 -46.5 -72t-91.5 -28q0 4 0.5 10t-1 24.5t-5.5 35t-15.5 37t-28 35t-45.5 24.5t-66 10q-111 0 -211.5 -123t-130.5 -309q-30 -188 24 -308t164 -120q50 0 95 7.5t75 18.5t51.5 22t33.5 18l11 8 q24 0 34.5 -7t8.5 -20q-3 -18 -31.5 -42.5t-72 -47.5t-103.5 -39t-118 -16q-189 0 -293 148.5t-68 377.5zM236 -346q4 27 34 27q0 -2 0.5 -4.5t3.5 -9t9 -12t18.5 -9.5t30.5 -4q32 0 72 26t67 76q19 45 21 59q4 37 -33 37q-11 0 -23.5 -2.5t-20 -5.5t-14.5 -6.5t-8 -3.5v-2 h-86l125 209h96l-88 -152q57 21 92 21q46 0 66 -22.5t14 -61.5l-2 -11q-2 -23 -22 -71q-41 -70 -114.5 -105t-149.5 -35q-46 0 -68.5 19.5t-19.5 42.5z" />
<glyph unicode="&#xe8;" horiz-adv-x="1032" d="M182 512q-36 -229 69.5 -377.5t295.5 -148.5q60 0 123 16.5t108.5 40.5t76.5 49t34 43q2 11 -7.5 17t-31.5 6l-14 -8q-13 -7 -38 -18t-57.5 -22t-80 -18.5t-97.5 -7.5q-110 0 -164 120t-24 308h635q40 251 -40 388.5t-280 137.5q-202 0 -335 -139t-173 -387zM393 614 q70 326 281 326q104 0 141 -81.5t21 -244.5h-443zM555 1530h184l49 -334h-102z" />
<glyph unicode="&#xe9;" horiz-adv-x="1032" d="M182 512q-36 -229 69.5 -377.5t295.5 -148.5q60 0 123 16.5t108.5 40.5t76.5 49t34 43q2 11 -7.5 17t-31.5 6l-14 -8q-13 -7 -38 -18t-57.5 -22t-80 -18.5t-97.5 -7.5q-110 0 -164 120t-24 308h635q40 251 -40 388.5t-280 137.5q-202 0 -335 -139t-173 -387zM393 614 q70 326 281 326q104 0 141 -81.5t21 -244.5h-443zM645 1196l156 334h184l-237 -334h-103z" />
<glyph unicode="&#xea;" horiz-adv-x="1032" d="M182 512q-36 -229 69.5 -377.5t295.5 -148.5q60 0 123 16.5t108.5 40.5t76.5 49t34 43q2 11 -7.5 17t-31.5 6l-14 -8q-13 -7 -38 -18t-57.5 -22t-80 -18.5t-97.5 -7.5q-110 0 -164 120t-24 308h635q40 251 -40 388.5t-280 137.5q-202 0 -335 -139t-173 -387zM389 1196 l279 334h163l173 -334h-123l-148 231l-221 -231h-123zM393 614q70 326 281 326q104 0 141 -81.5t21 -244.5h-443z" />
<glyph unicode="&#xeb;" horiz-adv-x="1032" d="M182 512q-36 -229 69.5 -377.5t295.5 -148.5q60 0 123 16.5t108.5 40.5t76.5 49t34 43q2 11 -7.5 17t-31.5 6l-14 -8q-13 -7 -38 -18t-57.5 -22t-80 -18.5t-97.5 -7.5q-110 0 -164 120t-24 308h635q40 251 -40 388.5t-280 137.5q-202 0 -335 -139t-173 -387zM393 614 q70 326 281 326q104 0 141 -81.5t21 -244.5h-443zM459 1386q6 43 41 73t78 30t67.5 -30t18.5 -73q-8 -43 -42 -72.5t-77 -29.5t-68 29.5t-18 72.5zM782 1386q6 43 41 73t78 30t67.5 -30t18.5 -73q-8 -43 -42 -72.5t-77 -29.5t-68 29.5t-18 72.5z" />
<glyph unicode="&#xec;" horiz-adv-x="448" d="M131 0l145 922h-120l16 102h305l-162 -1024h-184zM256 1530h184l49 -334h-102z" />
<glyph unicode="&#xed;" horiz-adv-x="452" d="M131 0l145 922h-120l16 102h305l-162 -1024h-184zM289 1196l155 334h185l-238 -334h-102z" />
<glyph unicode="&#xee;" horiz-adv-x="636" d="M199 1196l278 334h164l172 -334h-123l-147 231l-221 -231h-123zM238 0l145 922h-121l17 102h305l-162 -1024h-184z" />
<glyph unicode="&#xef;" horiz-adv-x="552" d="M223 0l146 922h-121l16 102h305l-161 -1024h-185zM229 1386q6 43 41 73t78 30t67.5 -30t18.5 -73q-8 -43 -42 -72.5t-77 -29.5t-68 29.5t-18 72.5zM553 1386q6 43 41 73t78 30t67.5 -30t18.5 -73q-8 -43 -42 -72.5t-77 -29.5t-68 29.5t-18 72.5z" />
<glyph unicode="&#xf1;" horiz-adv-x="1105" d="M133 0l146 922h-123l16 102h287l-10 -172q116 186 337 186q132 0 201 -63t80 -180t-14 -283l-80 -512h-185l80 512q67 428 -168 428q-232 0 -299 -408l-84 -532h-184zM395 1243q15 100 68.5 166t140.5 66q45 0 85.5 -15t69.5 -37t55 -44t55 -37t57 -15q43 0 71.5 37.5 t36.5 89.5h64q-16 -101 -69 -166t-140 -65q-45 0 -85.5 15t-70 36.5t-56 43.5t-55.5 37t-57 15q-43 0 -72 -38.5t-36 -88.5h-62z" />
<glyph unicode="&#xf2;" horiz-adv-x="1052" d="M182 512q40 248 173 387t335 139t291 -139t49 -387q-38 -248 -172 -387t-336 -139q-201 0 -289.5 138.5t-50.5 387.5zM371 512q-33 -210 7.5 -315t162.5 -105t195 105t106 315t-6.5 315t-161.5 105t-196 -105.5t-107 -314.5zM535 1530h184l49 -334h-102z" />
<glyph unicode="&#xf3;" horiz-adv-x="1052" d="M182 512q40 248 173 387t335 139t291 -139t49 -387q-38 -248 -172 -387t-336 -139q-201 0 -289.5 138.5t-50.5 387.5zM371 512q-33 -210 7.5 -315t162.5 -105t195 105t106 315t-6.5 315t-161.5 105t-196 -105.5t-107 -314.5zM639 1196l156 334h184l-238 -334h-102z" />
<glyph unicode="&#xf4;" horiz-adv-x="1052" d="M182 512q40 248 173 387t335 139t291 -139t49 -387q-38 -248 -172 -387t-336 -139q-201 0 -289.5 138.5t-50.5 387.5zM371 512q-33 -210 7.5 -315t162.5 -105t195 105t106 315t-6.5 315t-161.5 105t-196 -105.5t-107 -314.5zM412 1196l278 334h164l172 -334h-123 l-147 231l-221 -231h-123z" />
<glyph unicode="&#xf5;" horiz-adv-x="1052" d="M182 512q40 248 173 387t335 139t291 -139t49 -387q-38 -248 -172 -387t-336 -139q-201 0 -289.5 138.5t-50.5 387.5zM371 512q-33 -210 7.5 -315t162.5 -105t195 105t106 315t-6.5 315t-161.5 105t-196 -105.5t-107 -314.5zM377 1243q15 100 68.5 166t140.5 66 q45 0 85.5 -15t69 -37t55 -44t55 -37t56.5 -15q43 0 72 37.5t37 89.5h63q-16 -101 -69 -166t-140 -65q-55 0 -104.5 23t-79.5 50.5t-67.5 50.5t-71.5 23q-43 0 -72.5 -38.5t-36.5 -88.5h-61z" />
<glyph unicode="&#xf6;" horiz-adv-x="1052" d="M182 512q40 248 173 387t335 139t291 -139t49 -387q-38 -248 -172 -387t-336 -139q-201 0 -289.5 138.5t-50.5 387.5zM371 512q-33 -210 7.5 -315t162.5 -105t195 105t106 315t-6.5 315t-161.5 105t-196 -105.5t-107 -314.5zM479 1386q6 43 41 73t78 30t67.5 -30 t18.5 -73q-8 -43 -42 -72.5t-77 -29.5t-68 29.5t-18 72.5zM803 1386q6 43 41 73t78 30t67.5 -30t18.5 -73q-8 -43 -42 -72.5t-77 -29.5t-68 29.5t-18 72.5z" />
<glyph unicode="&#xf7;" horiz-adv-x="1146" d="M178 489l17 103h942l-17 -103h-942zM502 88q8 43 42 72.5t77 29.5t68 -29.5t18 -72.5q-6 -42 -41 -72t-78 -30t-67.5 29.5t-18.5 72.5zM637 936q6 42 41 72t78 30t67.5 -29.5t18.5 -72.5q-8 -43 -42 -72.5t-77 -29.5t-68 29.5t-18 72.5z" />
<glyph unicode="&#xf9;" horiz-adv-x="1075" d="M156 922l16 102h299l-82 -512q-33 -212 5 -320t159 -108q114 0 178.5 96t99.5 291l89 553h184l-162 -1024h-164l4 156q-104 -170 -315 -170q-99 0 -162 36t-89.5 103.5t-29 165t18.5 221.5l65 410h-114zM524 1530h185l49 -334h-103z" />
<glyph unicode="&#xfa;" horiz-adv-x="1075" d="M156 922l16 102h299l-82 -512q-33 -212 5 -320t159 -108q114 0 178.5 96t99.5 291l89 553h184l-162 -1024h-164l4 156q-104 -170 -315 -170q-99 0 -162 36t-89.5 103.5t-29 165t18.5 221.5l65 410h-114zM645 1196l156 334h184l-237 -334h-103z" />
<glyph unicode="&#xfb;" horiz-adv-x="1075" d="M156 922l16 102h299l-82 -512q-33 -212 5 -320t159 -108q114 0 178.5 96t99.5 291l89 553h184l-162 -1024h-164l4 156q-104 -170 -315 -170q-99 0 -162 36t-89.5 103.5t-29 165t18.5 221.5l65 410h-114zM389 1196l279 334h163l173 -334h-123l-148 231l-221 -231h-123z " />
<glyph unicode="&#xfc;" horiz-adv-x="1075" d="M156 922l16 102h299l-82 -512q-33 -212 5 -320t159 -108q114 0 178.5 96t99.5 291l89 553h184l-162 -1024h-164l4 156q-104 -170 -315 -170q-99 0 -162 36t-89.5 103.5t-29 165t18.5 221.5l65 410h-114zM459 1386q6 43 41 73t78 30t67.5 -30t18.5 -73q-8 -43 -42 -72.5 t-77 -29.5t-68 29.5t-18 72.5zM782 1386q6 43 41 73t78 30t67.5 -30t18.5 -73q-8 -43 -42 -72.5t-77 -29.5t-68 29.5t-18 72.5z" />
<glyph unicode="&#xfd;" horiz-adv-x="913" d="M-29 -420q5 28 22 47t42 19v-10.5t4.5 -22.5t13 -28.5t28.5 -23t48 -10.5q51 0 105.5 67.5t121.5 201.5l90 184l-170 918h-120l16 102h277l120 -772l383 772h113l-608 -1204q-110 -218 -180 -292.5t-173 -74.5q-73 0 -106.5 39.5t-26.5 87.5zM633 1196l155 334h185 l-238 -334h-102z" />
<glyph unicode="&#xff;" horiz-adv-x="913" d="M-29 -420q5 28 22 47t42 19v-10.5t4.5 -22.5t13 -28.5t28.5 -23t48 -10.5q51 0 105.5 67.5t121.5 201.5l90 184l-170 918h-120l16 102h277l120 -772l383 772h113l-608 -1204q-110 -218 -180 -292.5t-173 -74.5q-73 0 -106.5 39.5t-26.5 87.5zM471 1386q6 43 41 73t78 30 t67.5 -30t18.5 -73q-8 -43 -42 -72.5t-77 -29.5t-68 29.5t-18 72.5zM795 1386q6 43 40.5 73t77.5 30t67.5 -30t18.5 -73q-8 -43 -41.5 -72.5t-76.5 -29.5t-68 29.5t-18 72.5z" />
<glyph unicode="&#x178;" horiz-adv-x="1228" d="M293 1364l18 111h281l242 -652l450 652h121l-526 -762l-113 -713h-193l111 709l-268 655h-123zM696 1837q6 42 41 72t78 30t67.5 -29.5t18.5 -72.5q-8 -43 -42 -72.5t-77 -29.5t-68 29.5t-18 72.5zM1020 1837q6 42 41 72t78 30t67.5 -29.5t18.5 -72.5q-8 -43 -42 -72.5 t-77 -29.5t-68 29.5t-18 72.5z" />
<glyph unicode="&#x2c6;" horiz-adv-x="741" d="M242 1196l278 334h164l172 -334h-123l-147 231l-221 -231h-123z" />
<glyph unicode="&#x2dc;" horiz-adv-x="987" d="M358 1243q15 100 68.5 166t140.5 66q45 0 85.5 -15t69.5 -37t55 -44t55 -37t57 -15q43 0 71.5 37.5t36.5 89.5h64q-16 -101 -69 -166t-140 -65q-45 0 -85.5 15t-70 36.5t-56 43.5t-55.5 37t-57 15q-43 0 -72 -38.5t-36 -88.5h-62z" />
<glyph unicode="&#x2000;" horiz-adv-x="990" />
<glyph unicode="&#x2001;" horiz-adv-x="1980" />
<glyph unicode="&#x2002;" horiz-adv-x="990" />
<glyph unicode="&#x2003;" horiz-adv-x="1980" />
<glyph unicode="&#x2004;" horiz-adv-x="660" />
<glyph unicode="&#x2005;" horiz-adv-x="495" />
<glyph unicode="&#x2006;" horiz-adv-x="330" />
<glyph unicode="&#x2007;" horiz-adv-x="330" />
<glyph unicode="&#x2008;" horiz-adv-x="247" />
<glyph unicode="&#x2009;" horiz-adv-x="396" />
<glyph unicode="&#x200a;" horiz-adv-x="110" />
<glyph unicode="&#x2010;" horiz-adv-x="798" d="M166 469l29 184h614l-29 -184h-614z" />
<glyph unicode="&#x2011;" horiz-adv-x="798" d="M166 469l29 184h614l-29 -184h-614z" />
<glyph unicode="&#x2012;" horiz-adv-x="798" d="M166 469l29 184h614l-29 -184h-614z" />
<glyph unicode="&#x2013;" horiz-adv-x="1351" d="M178 489l17 103h1146l-16 -103h-1147z" />
<glyph unicode="&#x2014;" horiz-adv-x="1536" d="M178 489l17 103h1331l-17 -103h-1331z" />
<glyph unicode="&#x2022;" horiz-adv-x="337" d="M150 549q6 43 42.5 74.5t79.5 31.5t69.5 -31.5t20.5 -74.5t-42.5 -75t-79.5 -32t-69.5 32t-20.5 75z" />
<glyph unicode="&#x2026;" horiz-adv-x="1056" d="M86 88q8 43 42 72.5t77 29.5t68 -29.5t18 -72.5q-6 -42 -41 -72t-78 -30t-67.5 29.5t-18.5 72.5zM438 88q8 43 42 72.5t77 29.5t68 -29.5t18 -72.5q-6 -42 -41 -72t-78 -30t-67.5 29.5t-18.5 72.5zM791 88q8 43 41.5 72.5t76.5 29.5t68 -29.5t18 -72.5 q-6 -43 -40.5 -72.5t-77.5 -29.5t-67.5 29.5t-18.5 72.5z" />
<glyph unicode="&#x202f;" horiz-adv-x="396" />
<glyph unicode="&#x2039;" horiz-adv-x="540" d="M168 430l25 164l370 225l-20 -123l-260 -184l202 -184l-20 -123z" />
<glyph unicode="&#x203a;" horiz-adv-x="532" d="M131 205l21 123l260 184l-203 184l20 123l297 -225l-24 -164z" />
<glyph unicode="&#x205f;" horiz-adv-x="495" />
<glyph unicode="&#x25fc;" horiz-adv-x="1024" d="M0 0v1024h1024v-1024h-1024z" />
<glyph unicode="&#xfb01;" horiz-adv-x="987" d="M59 -532l228 1454h-121l16 102h121l2 20q23 143 61 240t91.5 150t114 74.5t139.5 21.5q124 0 196.5 -44t63.5 -106q-6 -44 -45.5 -72t-91.5 -28q1 6 2 16.5t-3.5 37.5t-16.5 47.5t-42.5 37.5t-75.5 17q-76 0 -126.5 -94t-82.5 -298l-2 -20h265l-17 -102h-264l-227 -1454 h-185zM653 922l17 102h387l-162 -1024h-184l145 922h-203z" />
</font>
</defs>
</svg>
