<?xml version="1.0" standalone="no"?>
<!DOCTYPE svg PUBLIC "-//W3C//DTD SVG 1.1//EN" "http://www.w3.org/Graphics/SVG/1.1/DTD/svg11.dtd" >
<svg xmlns="http://www.w3.org/2000/svg">
<metadata></metadata>
<defs>
<font id="atzurregular" horiz-adv-x="993" >
<font-face units-per-em="2048" ascent="1516" descent="-532" />
<missing-glyph horiz-adv-x="618" />
<glyph horiz-adv-x="0" />
<glyph horiz-adv-x="682" />
<glyph horiz-adv-x="0" />
<glyph horiz-adv-x="0" />
<glyph unicode="&#xd;" horiz-adv-x="591" />
<glyph unicode=" "  horiz-adv-x="618" />
<glyph unicode="&#x09;" horiz-adv-x="618" />
<glyph unicode="&#xa0;" horiz-adv-x="618" />
<glyph unicode="!" horiz-adv-x="415" d="M104 88q0 43 30 72.5t73 29.5t72.5 -29.5t29.5 -72.5t-29.5 -72.5t-72.5 -29.5t-73 29.5t-30 72.5zM113 1475h192l-41 -1160h-110z" />
<glyph unicode="&#x26;" horiz-adv-x="1409" d="M102 389q0 239 236 379l78 41l-35 43q-5 6 -14 16.5t-32 44t-40.5 68.5t-32 86.5t-14.5 101.5q0 146 92.5 233t273.5 87q184 0 284.5 -86.5t100.5 -235.5q0 -122 -83.5 -225t-208.5 -178l317 -367q42 80 64 161t22 126h248v-115h-154q-33 -140 -104 -260l268 -309h-256 l-131 152q-169 -166 -410 -166q-210 0 -339.5 104t-129.5 299zM295 389q0 -76 28.5 -134.5t74 -90.5t95 -48t99.5 -16q181 0 317 136l-377 438q-9 -4 -81 -47q-73 -47 -114.5 -103.5t-41.5 -134.5zM436 1169q0 -45 28 -100t56 -87l27 -32l47 -55q101 60 157 131.5t56 140.5 q0 207 -193 207q-178 0 -178 -205z" />
<glyph unicode="'" horiz-adv-x="317" d="M66 1516h184l-41 -375h-103z" />
<glyph unicode="(" horiz-adv-x="550" d="M102 594q0 109 18 216t47 191.5t64 162t70 133t64 96.5t47 61l18 21h111q-10 -17 -26.5 -47.5t-59 -126.5t-75 -194t-59 -239.5t-26.5 -273.5t25.5 -271t61.5 -243.5t72 -190.5t62 -131l25 -45h-111q-7 7 -18.5 21t-46 60.5t-65.5 98t-68.5 131.5t-65 163t-46 190.5 t-18.5 216.5z" />
<glyph unicode=")" horiz-adv-x="550" d="M10 -287q10 17 26.5 47.5t59 126.5t75 194t59 239.5t26.5 273.5t-25.5 271t-61.5 243.5t-72 190.5t-61 131l-26 45h111q7 -7 18.5 -21t46 -60.5t65.5 -98t68.5 -131.5t65 -163t46 -190.5t18.5 -216.5t-18 -216t-47 -191.5t-64 -162t-70 -133t-64 -96.5t-47 -61l-18 -21 h-111z" />
<glyph unicode="+" horiz-adv-x="1126" d="M92 489v103h420v420h102v-420h420v-103h-420v-419h-102v419h-420z" />
<glyph unicode="," horiz-adv-x="356" d="M74 88q0 43 29.5 72.5t72.5 29.5t73 -29.5t30 -72.5q0 -67 -17 -125t-41 -93.5t-48 -62t-41 -37.5l-17 -10h-41q5 5 13.5 13t29.5 33.5t37 50.5t29.5 61t13.5 68v2q-4 0 -11 -1t-10 -1q-43 0 -72.5 29.5t-29.5 72.5z" />
<glyph unicode="-" horiz-adv-x="798" d="M92 469v184h615v-184h-615z" />
<glyph unicode="." horiz-adv-x="352" d="M74 88q0 43 29.5 72.5t72.5 29.5t73 -29.5t30 -72.5t-30 -72.5t-73 -29.5t-72.5 29.5t-29.5 72.5z" />
<glyph unicode="/" horiz-adv-x="557" d="M4 -14l430 1530h119l-442 -1530h-107z" />
<glyph unicode="0" horiz-adv-x="1191" d="M102 737q0 155 34 291.5t96 239t156 162t208 59.5t208 -59.5t156 -162t96 -239t34 -291.5q0 -208 -57.5 -377t-171.5 -271.5t-265 -102.5t-265 102.5t-171.5 271.5t-57.5 377zM299 737q0 -184 30 -324t98.5 -226.5t168.5 -86.5t168.5 86.5t98.5 226.5t30 324t-30 324 t-98.5 226.5t-168.5 86.5t-168.5 -86.5t-98.5 -226.5t-30 -324z" />
<glyph unicode="1" horiz-adv-x="692" d="M10 1130l357 345h192v-1475h-192v1327l-291 -276z" />
<glyph unicode="2" horiz-adv-x="1048" d="M61 0v111q14 12 37 32.5t90.5 86t129 131t136.5 158t129 177t91 178t37 170.5q0 161 -70.5 245.5t-208.5 84.5q-49 0 -86 -16.5t-54.5 -40t-28 -47t-11.5 -40.5l-2 -16q-52 0 -88.5 29.5t-36.5 75.5q0 55 89 112.5t220 57.5q238 0 355.5 -109.5t117.5 -314.5 q0 -113 -45 -235t-109.5 -222t-153 -202t-158 -168t-142.5 -127h664v-111h-902z" />
<glyph unicode="3" horiz-adv-x="923" d="M33 143q0 23 17.5 37.5t51.5 14.5q1 -4 5 -11t20.5 -25t40 -31.5t68 -24.5t100.5 -11q50 0 99.5 17.5t95 53.5t74 100t28.5 147q0 166 -75.5 244t-227.5 83h-15v107h13q136 2 200 63.5t64 200.5q0 134 -65.5 204t-153.5 70q-51 0 -89 -17t-55.5 -41t-27.5 -47.5 t-11 -40.5l-2 -17q-51 0 -85.5 28t-34.5 72q0 53 87.5 111.5t217.5 58.5q83 0 152.5 -19.5t128.5 -62t92.5 -119t33.5 -180.5q0 -244 -174 -324q215 -107 215 -374q0 -84 -28.5 -155t-76 -119.5t-110.5 -83t-131.5 -50.5t-138.5 -16q-139 0 -221 51.5t-82 105.5z" />
<glyph unicode="4" horiz-adv-x="1011" d="M20 389v111l562 975h192v-975h211v-111h-211v-389h-192v389h-562zM147 500h435v760z" />
<glyph unicode="5" horiz-adv-x="1007" d="M43 160q0 24 18 39.5t52 15.5q2 -5 6.5 -12.5t26 -27.5t50.5 -35t84 -27.5t123 -12.5q152 0 228 82.5t76 268.5q0 92 -21 161.5t-56.5 109.5t-78.5 59.5t-92 19.5q-32 0 -63 -9.5t-53 -23t-40 -27t-27 -23.5l-8 -9h-157v766h700v-111h-508v-514q97 65 197 65 q179 0 291 -120t112 -344q0 -226 -139.5 -345.5t-378.5 -119.5q-158 0 -250 57t-92 117z" />
<glyph unicode="6" horiz-adv-x="1056" d="M102 451v368q0 311 129 490.5t361 179.5q130 0 218.5 -58.5t88.5 -111.5q0 -44 -34.5 -72t-86.5 -28q0 6 -1.5 16.5t-12 37.5t-28 47t-55.5 37t-89 17q-297 0 -297 -555v-6q79 102 227 102q87 0 163 -29.5t134.5 -86t92.5 -146t34 -202.5t-34 -202.5t-92.5 -146 t-134.5 -86.5t-163 -30q-181 0 -300.5 121.5t-119.5 343.5zM295 451q0 -180 63 -265.5t164 -85.5q102 0 165 85.5t63 265.5t-63 265t-165 85q-100 0 -162 -81t-65 -251v-18z" />
<glyph unicode="7" horiz-adv-x="968" d="M51 1241v234h844l-522 -1475h-201l483 1364h-493v-123h-111z" />
<glyph unicode="8" horiz-adv-x="1052" d="M102 410q0 133 51.5 228t143.5 148q-154 85 -154 322q0 105 30 181t84 118.5t120.5 62t148.5 19.5t148.5 -19.5t120.5 -62t84 -118.5t30 -181q0 -238 -155 -322q92 -53 144 -148t52 -228q0 -105 -34 -187.5t-92.5 -133.5t-134 -77t-163.5 -26t-163.5 26t-134 77 t-92.5 133.5t-34 187.5zM291 410q0 -164 66 -241t169 -77t169.5 77t66.5 241q0 165 -67 246t-169 81h-10q-99 -5 -162 -86t-63 -241zM332 1108q0 -136 54.5 -200t139.5 -64h9q82 2 134 66.5t52 197.5q0 137 -55.5 205.5t-139.5 68.5t-139 -68.5t-55 -205.5z" />
<glyph unicode="9" horiz-adv-x="1015" d="M70 1024q0 113 34 202.5t92.5 146t134.5 86.5t163 30q181 0 300 -121.5t119 -343.5v-2v-367q0 -311 -129 -490t-360 -179q-130 0 -218.5 58.5t-88.5 111.5q0 44 34.5 72t86.5 28q0 -6 1.5 -16.5t12 -37.5t28 -47.5t55.5 -37.5t89 -17q297 0 297 555v4q-77 -100 -227 -100 q-87 0 -163 30t-134.5 86.5t-92.5 146t-34 202.5zM266 1024q0 -180 63 -265t165 -85q98 0 160.5 81t66.5 251v18q0 180 -62.5 265t-164.5 85t-165 -85t-63 -265z" />
<glyph unicode=":" horiz-adv-x="360" d="M74 88q0 43 29.5 72.5t72.5 29.5t73 -29.5t30 -72.5t-30 -72.5t-73 -29.5t-72.5 29.5t-29.5 72.5zM74 936q0 43 29.5 72.5t72.5 29.5t73 -29.5t30 -72.5t-30 -72.5t-73 -29.5t-72.5 29.5t-29.5 72.5z" />
<glyph unicode=";" horiz-adv-x="364" d="M74 88q0 43 29.5 72.5t72.5 29.5t73 -29.5t30 -72.5q0 -67 -17 -125t-41 -93.5t-48 -62t-41 -37.5l-17 -10h-41q5 5 13.5 13t29.5 33.5t37 50.5t29.5 61t13.5 68v2q-4 0 -11 -1t-10 -1q-43 0 -72.5 29.5t-29.5 72.5zM74 936q0 43 29.5 72.5t72.5 29.5t73 -29.5t30 -72.5 t-30 -72.5t-73 -29.5t-72.5 29.5t-29.5 72.5z" />
<glyph unicode="&#x3c;" horiz-adv-x="968" d="M82 410v204l805 410v-123l-637 -389l637 -389v-123z" />
<glyph unicode="=" horiz-adv-x="1155" d="M102 244v184h951v-184h-951zM102 633v184h951v-184h-951z" />
<glyph unicode="&#x3e;" horiz-adv-x="1007" d="M100 0v123l637 389l-637 389v123l805 -410v-204z" />
<glyph unicode="?" horiz-adv-x="927" d="M23 1278q0 21 10 46.5t36 55t64 53.5t101.5 40t140.5 16q124 0 218 -37t148 -101t80.5 -141t26.5 -166q0 -84 -36.5 -167t-117.5 -154t-192 -96v-312h-193v414h68q74 0 129 27.5t85.5 74.5t45 100t14.5 113q0 330 -278 330q-59 0 -104 -20.5t-67 -50t-35.5 -59 t-16.5 -50.5l-3 -20q-52 0 -88 29t-36 75zM303 88q0 43 30 72.5t73 29.5t72.5 -29.5t29.5 -72.5t-29.5 -72.5t-72.5 -29.5t-73 29.5t-30 72.5z" />
<glyph unicode="A" horiz-adv-x="1230" d="M10 0l527 1364h-97v111h213l568 -1475h-203l-164 442h-561l-164 -442h-119zM334 553h479l-240 645z" />
<glyph unicode="B" horiz-adv-x="1087" d="M10 1364v111h537q99 0 170.5 -17t128 -58t84.5 -115.5t28 -184.5q0 -233 -161 -322q188 -101 188 -366q0 -412 -412 -412h-440v1364h-123zM326 111h247q96 0 155.5 74.5t59.5 226.5q0 307 -215 307h-247v-608zM326 829h245q93 8 142 70.5t49 200.5q0 148 -57 206t-158 58 h-221v-535z" />
<glyph unicode="C" horiz-adv-x="1136" d="M102 737q0 230 60 396.5t186 261t309 94.5q116 0 220.5 -36t166.5 -101v-170h-110v108q-70 92 -277 92q-79 0 -140 -29.5t-102 -83t-67 -134.5t-37.5 -178.5t-11.5 -219.5t11.5 -219.5t37.5 -178.5t67 -134.5t102 -83t140 -29.5q207 0 277 92v109h110v-170 q-62 -65 -166.5 -101t-220.5 -36q-183 0 -309 94t-186 260.5t-60 396.5z" />
<glyph unicode="D" horiz-adv-x="1193" d="M10 1364v111h527q274 0 414.5 -195t140.5 -543t-140.5 -542.5t-414.5 -194.5h-414v1364h-113zM315 111h222q99 0 168.5 41t111 123.5t60 195t18.5 266.5q0 312 -82.5 469.5t-275.5 157.5h-222v-1253z" />
<glyph unicode="E" horiz-adv-x="1044" d="M10 1364v111h920v-111h-613v-535h490v-110h-490v-608h613v-111h-805v1364h-115z" />
<glyph unicode="F" horiz-adv-x="1032" d="M10 1364v111h920v-111h-613v-535h490v-110h-490v-719h-192v1364h-115z" />
<glyph unicode="G" horiz-adv-x="1292" d="M102 737q0 230 60 396.5t186 261t309 94.5q266 0 414 -215h-176q-79 100 -238 100q-99 0 -169 -43t-111 -127.5t-59.5 -198.5t-18.5 -268t18.5 -268t59.5 -198.5t111 -127.5t169 -43q164 0 237 117t89 354h-264v111h465q-5 -161 -38.5 -287t-96.5 -218.5t-162 -141.5 t-230 -49q-183 0 -309 94t-186 260.5t-60 396.5z" />
<glyph unicode="H" horiz-adv-x="1193" d="M10 1364v111h316v-650h542v650h193v-1475h-193v715h-542v-715h-193v1364h-123z" />
<glyph unicode="I" horiz-adv-x="456" d="M10 1364v111h314v-1475h-193v1364h-121z" />
<glyph unicode="J" horiz-adv-x="825" d="M10 160q0 27 21 50t57 23q25 0 43 -10t27.5 -24.5t21.5 -32t24.5 -32t38.5 -24.5t62 -10q85 0 139 74.5t54 196.5q0 46 1 168.5t1 197.5v627h-123v111h315v-738q0 -85 -1.5 -145.5t-6 -131t-13 -120t-23 -102.5t-35.5 -88.5t-51 -69t-68.5 -52.5t-89 -30.5t-111.5 -11.5 q-68 0 -125 18.5t-89.5 46t-50.5 56.5t-18 53z" />
<glyph unicode="K" horiz-adv-x="1073" d="M10 1364v111h305v-601l496 601h131l-522 -650l643 -825h-238l-510 655v-655h-192v1364h-113z" />
<glyph unicode="L" horiz-adv-x="1017" d="M10 1364v111h314v-1364h573v122h111v-233h-877v1364h-121z" />
<glyph unicode="M" horiz-adv-x="1421" d="M10 1364v111h363l334 -1061l346 1061h235v-1475h-192v1264l-336 -1018h-195l-321 999v-1245h-111v1364h-123z" />
<glyph unicode="N" horiz-adv-x="1177" d="M10 1364v111h226l614 -983l84 -166v1149h110v-1475h-110l-617 987l-81 162v-1149h-111v1364h-115z" />
<glyph unicode="O" horiz-adv-x="1306" d="M102 737q0 350 139.5 551t411.5 201t411.5 -201t139.5 -551t-139.5 -550.5t-411.5 -200.5t-411.5 200.5t-139.5 550.5zM299 737q0 -154 18 -268t58.5 -198.5t109.5 -127.5t168 -43t168.5 43t110 127.5t58.5 198.5t18 268t-18 268t-58.5 198.5t-110 127.5t-168.5 43 t-168 -43t-109.5 -127.5t-58.5 -198.5t-18 -268z" />
<glyph unicode="P" d="M10 1364v111h563q90 0 161.5 -22t128.5 -68.5t88.5 -129t31.5 -194.5q0 -222 -106 -319t-304 -97h-247v-645h-193v1364h-123zM326 756h247q101 0 157 70t56 235q0 170 -50 236.5t-163 66.5h-247v-608z" />
<glyph unicode="Q" horiz-adv-x="1370" d="M102 737q0 350 139.5 551t411.5 201t411.5 -201t139.5 -551q0 -284 -93 -472.5t-275 -250.5q20 -60 62.5 -97.5t100.5 -37.5q45 0 78.5 18t49 44t24 52t9.5 44l1 18q50 0 78.5 -27.5t28.5 -72.5q0 -53 -77.5 -111.5t-193.5 -58.5q-85 0 -155 55.5t-92 153.5 q-41 -8 -97 -8q-272 0 -411.5 200.5t-139.5 550.5zM299 737q0 -154 18 -268t58.5 -198.5t109.5 -127.5t168 -43t168.5 43t110 127.5t58.5 198.5t18 268t-18 268t-58.5 198.5t-110 127.5t-168.5 43t-168 -43t-109.5 -127.5t-58.5 -198.5t-18 -268z" />
<glyph unicode="R" horiz-adv-x="1116" d="M10 1364v111h551q90 0 161.5 -22t128.5 -68.5t88.5 -129t31.5 -194.5q0 -320 -238 -393l373 -668h-215l-359 645h-206v-645h-193v1364h-123zM326 756h235q101 0 157 70t56 235q0 170 -50 236.5t-163 66.5h-235v-608z" />
<glyph unicode="S" horiz-adv-x="1103" d="M102 100v195h111v-127q152 -68 319 -68q50 0 96.5 16.5t88.5 50.5t67 97t25 146q0 61 -18.5 104.5t-64 76t-76 47t-100.5 41.5q-5 2 -7 3q-164 62 -241 111q-198 124 -198 315q0 182 117.5 281.5t310.5 99.5q49 0 99.5 -6t88.5 -13.5t78.5 -19.5t63 -20.5t49.5 -18.5 t31 -12v-197h-111v109q-148 63 -299 63q-103 0 -169 -65t-66 -201q0 -78 57 -126t187 -103q16 -7 59.5 -23.5t72.5 -28t74.5 -35t77 -46t67.5 -58t58 -74t36.5 -91.5t14.5 -113q0 -106 -35 -188t-98.5 -133t-148 -77t-187.5 -26q-83 0 -160.5 15t-116 29.5t-92.5 40.5 t-61 29z" />
<glyph unicode="T" horiz-adv-x="1161" d="M10 1249v226h1141v-226h-111v115h-362v-1364h-193v1364h-364v-115h-111z" />
<glyph unicode="U" horiz-adv-x="1224" d="M10 1364v111h314v-738q0 -157 14.5 -268.5t49 -197.5t96.5 -128.5t153 -42.5q180 0 262 163.5t82 473.5v738h111v-738q0 -178 -22 -310t-73 -234t-141 -154.5t-219 -52.5q-172 0 -287 94.5t-167 259.5t-52 397v627h-121z" />
<glyph unicode="V" horiz-adv-x="1159" d="M10 1364v111h281l368 -1315l371 1315h119l-428 -1475h-205l-395 1364h-111z" />
<glyph unicode="W" horiz-adv-x="1630" d="M10 1364v111h281l368 -1315l140 491l-238 824h201l162 -582l163 582h119l-227 -781l151 -534l371 1315h119l-428 -1475h-205l-133 459l-133 -459h-205l-395 1364h-111z" />
<glyph unicode="X" horiz-adv-x="1101" d="M10 1364v111h299l289 -545l309 545h121l-371 -658l435 -817h-213l-349 655l-350 -655h-121l412 768l-317 596h-144z" />
<glyph unicode="Y" horiz-adv-x="1114" d="M10 1364v111h281l346 -652l346 652h121l-406 -762v-713h-192v709l-373 655h-123z" />
<glyph unicode="Z" horiz-adv-x="1226" d="M98 0l744 1364h-543v-115h-111v226h930l-745 -1364h663v114h111v-225h-1049z" />
<glyph unicode="[" horiz-adv-x="575" d="M127 -287v1762h416v-111h-224v-1540h224v-111h-416z" />
<glyph unicode="\" horiz-adv-x="598" d="M23 1516h118l430 -1530h-106z" />
<glyph unicode="]" horiz-adv-x="561" d="M18 -176h224v1540h-224v111h416v-1762h-416v111z" />
<glyph unicode="^" horiz-adv-x="1175" d="M33 793l450 723h205l451 -723h-123l-430 583l-430 -583h-123z" />
<glyph unicode="_" horiz-adv-x="1320" d="M84 -186h1147v-103h-1147v103z" />
<glyph unicode="`" horiz-adv-x="509" d="M94 1530h185l102 -334h-102z" />
<glyph unicode="a" d="M102 244q0 85 37.5 149.5t95 101.5t137.5 59.5t151 30t151 7.5q-6 178 -52.5 265t-154.5 87q-51 0 -88.5 -18t-54.5 -44t-27 -52t-11 -44l-1 -18q-52 0 -86.5 28t-34.5 72q0 53 87.5 111.5t217.5 58.5q194 0 292.5 -124t98.5 -402v-512h-164l-20 133q0 -3 -8.5 -17.5 t-30.5 -37t-53 -42.5t-83.5 -35t-113.5 -15q-121 0 -203 72t-82 186zM281 266q0 -80 46.5 -128t112.5 -48q83 0 157.5 55t78.5 146v221v4q-52 0 -115.5 -14t-128 -42t-108 -79t-43.5 -115z" />
<glyph unicode="b" horiz-adv-x="1079" d="M10 1413v103h307v-650q88 172 306 172q100 0 169 -35t109.5 -105t58 -163.5t17.5 -222.5t-17.5 -222.5t-58 -163.5t-109.5 -105t-169 -35q-220 0 -308 174l-18 -160h-164v1413h-123zM317 512q0 -428 236 -428q235 0 235 428t-235 428q-233 0 -236 -408v-20z" />
<glyph unicode="c" horiz-adv-x="968" d="M102 512q0 113 36.5 212t99 167.5t146.5 107.5t177 39q130 0 221.5 -59t91.5 -111q0 -44 -34.5 -72t-85.5 -28q0 7 -2 19t-13.5 42.5t-29.5 53.5t-56.5 42t-89.5 19q-111 0 -191.5 -123t-80.5 -309q0 -188 73 -308t183 -120q50 0 94 7.5t72 18.5t48 22t30 18l10 8 q47 0 47 -27q0 -18 -24.5 -42.5t-64 -47.5t-97 -39t-115.5 -16q-190 0 -317.5 148.5t-127.5 377.5z" />
<glyph unicode="d" horiz-adv-x="1079" d="M102 512q0 257 89.5 391.5t285.5 134.5q193 0 285 -137v512h-123v103h307v-1516h-164l-16 131q-88 -145 -289 -145q-196 0 -285.5 134.5t-89.5 391.5zM291 512q0 -428 235 -428q236 0 236 428v20q-6 408 -236 408q-235 0 -235 -428z" />
<glyph unicode="e" horiz-adv-x="1024" d="M102 512q0 248 111 387t313 139q199 0 301.5 -137t102.5 -389h-635q0 -188 73 -308t183 -120q50 0 96 7.5t77 18.5t53.5 22t34.5 18l13 8q43 0 43 -23q0 -18 -26.5 -43t-68.5 -49t-102 -40.5t-120 -16.5q-190 0 -319.5 148.5t-129.5 377.5zM297 614h442q-9 163 -59 244.5 t-154 81.5q-210 0 -229 -326z" />
<glyph unicode="f" horiz-adv-x="763" d="M20 922v102h121v20q0 143 22.5 240t67.5 150t102 74.5t136 21.5q124 0 204.5 -44t80.5 -106q0 -44 -34.5 -72t-86.5 -28q0 6 -1 16.5t-9.5 37.5t-24 47.5t-49 37.5t-78.5 17q-75 0 -110 -93.5t-35 -298.5v-20h264v-102h-264v-922h-185v922h-121z" />
<glyph unicode="g" horiz-adv-x="1155" d="M100 268q0 74 41.5 128.5t108.5 82.5q-49 82 -49 207q0 168 91.5 260t250.5 92q129 0 217 -61q68 61 151 61q89 0 146 -40.5t57 -88.5q0 -44 -34.5 -72t-86.5 -28q0 5 -0.5 14.5t-6 32.5t-15 41t-30 32.5t-48.5 14.5q-46 0 -78 -16q80 -89 80 -242q0 -167 -96 -259.5 t-256 -92.5q-154 0 -240 80q-47 -14 -75.5 -48t-28.5 -67q0 -32 9 -52t36.5 -37.5t84 -25.5t146.5 -8h109q218 0 331 -97.5t113 -283.5q0 -73 -24.5 -131t-68 -97t-105 -65t-133 -37.5t-154.5 -11.5q-97 0 -174 19t-136.5 58.5t-91.5 106.5t-32 158q0 171 143 246 q-81 38 -116.5 100.5t-35.5 126.5zM281 -205q0 -252 262 -252q66 0 119.5 12.5t98.5 40.5t70 78.5t25 120.5q0 205 -272 205h-109q-63 0 -104 8q-90 -41 -90 -213zM373 686q0 -127 45.5 -194.5t124.5 -67.5q81 0 130.5 68.5t49.5 193.5q0 262 -180 262q-91 0 -130.5 -64.5 t-39.5 -197.5z" />
<glyph unicode="h" horiz-adv-x="1105" d="M10 1413v103h307v-662q82 184 306 184q193 0 271.5 -131.5t78.5 -394.5v-512h-185v512q0 428 -235 428q-233 0 -236 -408v-532h-184v1413h-123z" />
<glyph unicode="i" horiz-adv-x="458" d="M10 922v102h305v-1024h-184v922h-121zM121 1386q0 43 29.5 73t72.5 30t73 -30t30 -73t-30 -72.5t-73 -29.5t-72.5 29.5t-29.5 72.5z" />
<glyph unicode="j" horiz-adv-x="595" d="M18 -432q0 36 20 59t42 23q0 -3 1 -8.5t6 -20t13 -25t24.5 -19.5t37.5 -9q74 0 95 200q11 111 11 435v56v89v574h-123v102h308v-676q0 -123 -0.5 -188t-3.5 -167t-10 -156t-18.5 -127t-30 -111t-44.5 -76.5t-62.5 -54t-82.5 -15.5q-96 0 -139.5 35t-43.5 80zM258 1386 q0 43 29.5 73t72.5 30t73 -30t30 -73t-30 -72.5t-73 -29.5t-72.5 29.5t-29.5 72.5z" />
<glyph unicode="k" horiz-adv-x="1071" d="M10 1413v103h307v-861l439 369h153l-389 -328l541 -696h-230l-450 580l-64 -54v-526h-184v1413h-123z" />
<glyph unicode="l" horiz-adv-x="450" d="M10 1413v103h307v-1516h-184v1413h-123z" />
<glyph unicode="m" horiz-adv-x="1699" d="M10 922v102h287l16 -150q74 164 279 164q209 0 291 -168q80 168 305 168q379 0 379 -526v-512h-185v512q0 428 -235 428q-118 0 -161.5 -103.5t-43.5 -324.5v-512h-184v512q0 428 -236 428q-113 0 -157.5 -94.5t-47.5 -294.5v-551h-184v922h-123z" />
<glyph unicode="n" horiz-adv-x="1105" d="M10 922v102h287l18 -172q83 186 308 186q193 0 271.5 -131.5t78.5 -394.5v-512h-185v512q0 428 -235 428q-233 0 -236 -408v-532h-184v922h-123z" />
<glyph unicode="o" horiz-adv-x="1052" d="M102 512q0 248 111 387t313 139t313 -139t111 -387t-111 -387t-313 -139t-313 139t-111 387zM291 512q0 -210 56.5 -315t178.5 -105t179 105t57 315t-57 315t-179 105t-178.5 -105t-56.5 -315z" />
<glyph unicode="p" horiz-adv-x="1079" d="M10 922v102h287l14 -131q91 145 291 145q196 0 285.5 -134.5t89.5 -391.5t-89.5 -391.5t-285.5 -134.5q-194 0 -285 135v-653h-184v1454h-123zM317 512q0 -428 236 -428q235 0 235 428t-235 428q-233 0 -236 -408v-20z" />
<glyph unicode="q" horiz-adv-x="1130" d="M102 512q0 257 89.5 391.5t285.5 134.5q201 0 289 -145l16 131h287v-102h-123v-1454h-184v653q-91 -135 -285 -135q-196 0 -285.5 134.5t-89.5 391.5zM291 512q0 -428 235 -428q236 0 236 428t-236 428q-235 0 -235 -428z" />
<glyph unicode="r" horiz-adv-x="829" d="M10 922v102h287l18 -164q79 178 267 178q105 0 171 -45.5t66 -107.5q0 -44 -35 -72.5t-86 -28.5q0 6 -1 16.5t-9 36.5t-22.5 46t-46 36.5t-74.5 16.5q-91 0 -154.5 -87t-73.5 -245v-604h-184v922h-123z" />
<glyph unicode="s" horiz-adv-x="954" d="M102 55v174h111v-96q109 -41 213 -41q39 0 71 3.5t65 14.5t55.5 28.5t36.5 48t14 71.5t-19 73t-54.5 53.5t-65.5 34.5t-73 27q-7 2 -10 3q-342 116 -342 335q0 121 102.5 187.5t264.5 66.5q24 0 50.5 -2.5t48.5 -6t47.5 -9.5t42.5 -10.5t39.5 -12t33.5 -11t28.5 -10 t20.5 -7.5v-176h-110v96q-98 43 -201 43q-91 0 -136.5 -39t-45.5 -109q0 -51 32.5 -79.5t122.5 -67.5q15 -6 62.5 -22t86.5 -30t90 -43.5t85.5 -65t59 -92.5t24.5 -126q0 -75 -33.5 -129.5t-94.5 -84.5t-134.5 -44t-163.5 -14q-80 0 -170.5 21.5t-153.5 47.5z" />
<glyph unicode="t" horiz-adv-x="745" d="M86 922v102h139v174h2l183 109v-283h252v-102h-252v-594q0 -138 24.5 -191t75.5 -53q26 0 46.5 7t31.5 16.5t18 19t10 16.5l2 7q39 0 39 -33q0 -44 -51.5 -87.5t-146.5 -43.5q-124 0 -179 84t-55 258v594h-139z" />
<glyph unicode="u" horiz-adv-x="1075" d="M10 922v102h299v-512q0 -212 55.5 -320t176.5 -108q114 0 163 96t54 291v553h184v-1024h-164l-20 156q-75 -170 -287 -170q-99 0 -167.5 35t-107 105.5t-55 163.5t-16.5 222v410h-115z" />
<glyph unicode="v" d="M10 922v102h277l288 -874l295 874h113l-356 -1024h-178l-318 922h-121z" />
<glyph unicode="w" horiz-adv-x="1390" d="M10 922v102h269l288 -874l113 331l-186 543h190l107 -326l110 326h113l-170 -485l129 -389l295 874h112l-356 -1024h-178l-115 328l-113 -328h-178l-317 922h-113z" />
<glyph unicode="x" horiz-adv-x="815" d="M10 922v102h254l185 -352l186 352h96l-233 -444l307 -580h-180l-234 440l-231 -440h-99l281 532l-205 390h-127z" />
<glyph unicode="y" horiz-adv-x="913" d="M10 922v102h277l243 -772l261 772h112l-418 -1204q-76 -219 -132.5 -293t-159.5 -74q-75 0 -115.5 39.5t-40.5 87.5q0 28 15 47t40 19q0 -4 1.5 -10.5t8.5 -22.5t17.5 -28.5t32 -23t49.5 -10.5q51 0 94.5 67.5t89.5 201.5l61 184l-315 918h-121z" />
<glyph unicode="z" horiz-adv-x="1032" d="M113 0l512 922h-359v-123h-102v225h723l-512 -922h407v123h103v-225h-772z" />
<glyph unicode="&#xa1;" horiz-adv-x="401" d="M100 854q0 43 30 72.5t73 29.5t72.5 -29.5t29.5 -72.5t-29.5 -72.5t-72.5 -29.5t-73 29.5t-30 72.5zM109 -532l41 1159h110l41 -1159h-192z" />
<glyph unicode="&#xa8;" horiz-adv-x="692" d="M82 1386q0 43 29.5 73t72.5 30t73 -30t30 -73t-30 -72.5t-73 -29.5t-72.5 29.5t-29.5 72.5zM406 1386q0 43 29.5 73t72.5 30t72.5 -30t29.5 -73t-29.5 -72.5t-72.5 -29.5t-72.5 29.5t-29.5 72.5z" />
<glyph unicode="&#xad;" horiz-adv-x="798" d="M92 469v184h615v-184h-615z" />
<glyph unicode="&#xb4;" horiz-adv-x="495" d="M94 1196l103 334h184l-184 -334h-103z" />
<glyph unicode="&#xb8;" horiz-adv-x="446" d="M31 -346q0 27 32 27q0 -2 1 -4.5t5 -9t10.5 -12t20 -9.5t31.5 -4q32 0 68.5 26t54.5 76q12 34 12 59q-4 37 -39 37q-11 0 -23 -2.5t-19 -5.5t-13.5 -6.5t-7.5 -3.5v-2h-86l92 209h96l-63 -152q53 21 88 21q46 0 70 -22.5t24 -61.5v-11q0 -28 -12 -71q-30 -70 -98 -105 t-144 -35q-46 0 -73 19.5t-27 42.5z" />
<glyph unicode="&#xbf;" horiz-adv-x="960" d="M102 -102q0 62 22 126t63.5 122.5t109.5 104t152 64.5v312h192v-414h-68q-74 0 -129 -27.5t-85.5 -74.5t-45 -100t-14.5 -113q0 -330 279 -330q43 0 78.5 11t58.5 29t40 39t26 42.5t14.5 39.5t6.5 29l1 11q52 0 88.5 -29.5t36.5 -75.5q0 -21 -10 -46.5t-36.5 -55 t-64.5 -53.5t-101.5 -40t-140.5 -16q-124 0 -218 37t-148 101t-80.5 141t-26.5 166zM442 854q0 43 30 72.5t73 29.5t72.5 -29.5t29.5 -72.5t-29.5 -72.5t-72.5 -29.5t-73 29.5t-30 72.5z" />
<glyph unicode="&#xc0;" horiz-adv-x="1230" d="M10 0l527 1364h-97v111h213l568 -1475h-203l-164 442h-561l-164 -442h-119zM334 553h479l-240 645zM336 1980h184l103 -333h-103z" />
<glyph unicode="&#xc1;" horiz-adv-x="1230" d="M10 0l527 1364h-97v111h213l568 -1475h-203l-164 442h-561l-164 -442h-119zM334 553h479l-240 645zM518 1647l103 333h184l-184 -333h-103z" />
<glyph unicode="&#xc2;" horiz-adv-x="1230" d="M10 0l527 1364h-97v111h213l568 -1475h-203l-164 442h-561l-164 -442h-119zM274 1647l226 333h164l225 -333h-123l-184 231l-185 -231h-123zM334 553h479l-240 645z" />
<glyph unicode="&#xc3;" horiz-adv-x="1230" d="M10 0l527 1364h-97v111h213l568 -1475h-203l-164 442h-561l-164 -442h-119zM246 1694q0 100 42.5 165.5t129.5 65.5q55 0 108.5 -23t87.5 -50.5t75 -50.5t75 -23q43 0 65.5 37.5t22.5 89.5h63q0 -101 -42.5 -166.5t-129.5 -65.5q-45 0 -88 15t-75.5 37t-62.5 44t-61 37 t-59 15q-43 0 -66.5 -38.5t-23.5 -88.5h-61zM334 553h479l-240 645z" />
<glyph unicode="&#xc4;" horiz-adv-x="1230" d="M10 0l527 1364h-97v111h213l568 -1475h-203l-164 442h-561l-164 -442h-119zM322 1837q0 43 29.5 72.5t72.5 29.5t72.5 -29.5t29.5 -72.5t-29.5 -72.5t-72.5 -29.5t-72.5 29.5t-29.5 72.5zM334 553h479l-240 645zM645 1837q0 43 30 72.5t73 29.5t72.5 -29.5t29.5 -72.5 t-29.5 -72.5t-72.5 -29.5t-73 29.5t-30 72.5z" />
<glyph unicode="&#xc7;" horiz-adv-x="1110" d="M102 737q0 230 60 396.5t186 261t309 94.5q116 0 220.5 -36t166.5 -101v-170h-110v108q-70 92 -277 92q-79 0 -140 -29.5t-102 -83t-67 -134.5t-37.5 -178.5t-11.5 -219.5t11.5 -219.5t37.5 -178.5t67 -134.5t102 -83t140 -29.5q207 0 277 92v109h110v-170 q-62 -65 -166.5 -101t-220.5 -36q-183 0 -309 94t-186 260.5t-60 396.5zM424 -346q0 27 33 27q0 -2 0.5 -4.5t5 -9t11 -12t19.5 -9.5t31 -4q32 0 68.5 26t54.5 76q12 35 12 59q-4 37 -38 37q-11 0 -23 -2.5t-19 -5.5t-14 -6.5t-8 -3.5v-2h-86l92 209h96l-63 -152 q53 21 88 21q46 0 70 -22.5t24 -61.5v-11q0 -28 -12 -71q-30 -70 -98 -105t-144 -35q-46 0 -73 19.5t-27 42.5z" />
<glyph unicode="&#xc8;" horiz-adv-x="1091" d="M10 1364v111h920v-111h-613v-535h490v-110h-490v-608h613v-111h-805v1364h-115zM274 1980h185l102 -333h-102z" />
<glyph unicode="&#xc9;" horiz-adv-x="1091" d="M10 1364v111h920v-111h-613v-535h490v-110h-490v-608h613v-111h-805v1364h-115zM438 1647l103 333h184l-184 -333h-103z" />
<glyph unicode="&#xca;" horiz-adv-x="1091" d="M10 1364v111h920v-111h-613v-535h490v-110h-490v-608h613v-111h-805v1364h-115zM172 1647l225 333h164l225 -333h-122l-185 231l-184 -231h-123z" />
<glyph unicode="&#xcb;" horiz-adv-x="1091" d="M10 1364v111h920v-111h-613v-535h490v-110h-490v-608h613v-111h-805v1364h-115zM211 1837q0 43 29.5 72.5t72.5 29.5t73 -29.5t30 -72.5t-30 -72.5t-73 -29.5t-72.5 29.5t-29.5 72.5zM535 1837q0 43 29.5 72.5t72.5 29.5t72.5 -29.5t29.5 -72.5t-29.5 -72.5t-72.5 -29.5 t-72.5 29.5t-29.5 72.5z" />
<glyph unicode="&#xcc;" horiz-adv-x="456" d="M10 1364v111h314v-1475h-193v1364h-121zM31 1980h184l102 -333h-102z" />
<glyph unicode="&#xcd;" horiz-adv-x="464" d="M10 1364v111h314v-1475h-193v1364h-121zM96 1647l103 333h184l-184 -333h-103z" />
<glyph unicode="&#xce;" horiz-adv-x="645" d="M10 1647l226 333h163l226 -333h-123l-185 231l-184 -231h-123zM123 1364v111h313v-1475h-192v1364h-121z" />
<glyph unicode="&#xcf;" horiz-adv-x="555" d="M10 1837q0 43 30 72.5t73 29.5t72.5 -29.5t29.5 -72.5t-29.5 -72.5t-72.5 -29.5t-73 29.5t-30 72.5zM104 1364v111h314v-1475h-193v1364h-121zM334 1837q0 43 29.5 72.5t72.5 29.5t73 -29.5t30 -72.5t-30 -72.5t-73 -29.5t-72.5 29.5t-29.5 72.5z" />
<glyph unicode="&#xd1;" horiz-adv-x="1177" d="M10 1364v111h226l614 -983l84 -166v1149h110v-1475h-110l-617 987l-81 162v-1149h-111v1364h-115zM231 1694q0 100 42.5 165.5t129.5 65.5q55 0 108.5 -23t88 -50.5t75.5 -50.5t75 -23q43 0 65.5 37.5t22.5 89.5h63q0 -101 -42.5 -166.5t-129.5 -65.5q-45 0 -88 15 t-75.5 37t-62.5 44t-61 37t-59 15q-43 0 -66.5 -38.5t-23.5 -88.5h-62z" />
<glyph unicode="&#xd2;" horiz-adv-x="1306" d="M102 737q0 350 139.5 551t411.5 201t411.5 -201t139.5 -551t-139.5 -550.5t-411.5 -200.5t-411.5 200.5t-139.5 550.5zM299 737q0 -154 18 -268t58.5 -198.5t109.5 -127.5t168 -43t168.5 43t110 127.5t58.5 198.5t18 268t-18 268t-58.5 198.5t-110 127.5t-168.5 43 t-168 -43t-109.5 -127.5t-58.5 -198.5t-18 -268zM436 1980h185l102 -333h-102z" />
<glyph unicode="&#xd3;" horiz-adv-x="1306" d="M102 737q0 350 139.5 551t411.5 201t411.5 -201t139.5 -551t-139.5 -550.5t-411.5 -200.5t-411.5 200.5t-139.5 550.5zM299 737q0 -154 18 -268t58.5 -198.5t109.5 -127.5t168 -43t168.5 43t110 127.5t58.5 198.5t18 268t-18 268t-58.5 198.5t-110 127.5t-168.5 43 t-168 -43t-109.5 -127.5t-58.5 -198.5t-18 -268zM606 1647l103 333h184l-184 -333h-103z" />
<glyph unicode="&#xd4;" horiz-adv-x="1306" d="M102 737q0 350 139.5 551t411.5 201t411.5 -201t139.5 -551t-139.5 -550.5t-411.5 -200.5t-411.5 200.5t-139.5 550.5zM299 737q0 -154 18 -268t58.5 -198.5t109.5 -127.5t168 -43t168.5 43t110 127.5t58.5 198.5t18 268t-18 268t-58.5 198.5t-110 127.5t-168.5 43 t-168 -43t-109.5 -127.5t-58.5 -198.5t-18 -268zM319 1647l226 333h164l225 -333h-123l-184 231l-185 -231h-123z" />
<glyph unicode="&#xd5;" horiz-adv-x="1306" d="M102 737q0 350 139.5 551t411.5 201t411.5 -201t139.5 -551t-139.5 -550.5t-411.5 -200.5t-411.5 200.5t-139.5 550.5zM299 737q0 -154 18 -268t58.5 -198.5t109.5 -127.5t168 -43t168.5 43t110 127.5t58.5 198.5t18 268t-18 268t-58.5 198.5t-110 127.5t-168.5 43 t-168 -43t-109.5 -127.5t-58.5 -198.5t-18 -268zM313 1694q0 100 42.5 165.5t129.5 65.5q55 0 108.5 -23t87.5 -50.5t75 -50.5t75 -23q43 0 66 37.5t23 89.5h63q0 -101 -42.5 -166.5t-129.5 -65.5q-45 0 -88 15t-75.5 37t-62.5 44t-61 37t-59 15q-43 0 -66.5 -38.5 t-23.5 -88.5h-62z" />
<glyph unicode="&#xd6;" horiz-adv-x="1306" d="M102 737q0 350 139.5 551t411.5 201t411.5 -201t139.5 -551t-139.5 -550.5t-411.5 -200.5t-411.5 200.5t-139.5 550.5zM299 737q0 -154 18 -268t58.5 -198.5t109.5 -127.5t168 -43t168.5 43t110 127.5t58.5 198.5t18 268t-18 268t-58.5 198.5t-110 127.5t-168.5 43 t-168 -43t-109.5 -127.5t-58.5 -198.5t-18 -268zM379 1837q0 43 29.5 72.5t72.5 29.5t73 -29.5t30 -72.5t-30 -72.5t-73 -29.5t-72.5 29.5t-29.5 72.5zM702 1837q0 43 30 72.5t73 29.5t72.5 -29.5t29.5 -72.5t-29.5 -72.5t-72.5 -29.5t-73 29.5t-30 72.5z" />
<glyph unicode="&#xd9;" horiz-adv-x="1224" d="M10 1364v111h314v-738q0 -157 14.5 -268.5t49 -197.5t96.5 -128.5t153 -42.5q180 0 262 163.5t82 473.5v738h111v-738q0 -178 -22 -310t-73 -234t-141 -154.5t-219 -52.5q-172 0 -287 94.5t-167 259.5t-52 397v627h-121zM442 1980h185l102 -333h-102z" />
<glyph unicode="&#xda;" horiz-adv-x="1224" d="M10 1364v111h314v-738q0 -157 14.5 -268.5t49 -197.5t96.5 -128.5t153 -42.5q180 0 262 163.5t82 473.5v738h111v-738q0 -178 -22 -310t-73 -234t-141 -154.5t-219 -52.5q-172 0 -287 94.5t-167 259.5t-52 397v627h-121zM590 1647l102 333h185l-185 -333h-102z" />
<glyph unicode="&#xdb;" horiz-adv-x="1224" d="M10 1364v111h314v-738q0 -157 14.5 -268.5t49 -197.5t96.5 -128.5t153 -42.5q180 0 262 163.5t82 473.5v738h111v-738q0 -178 -22 -310t-73 -234t-141 -154.5t-219 -52.5q-172 0 -287 94.5t-167 259.5t-52 397v627h-121zM334 1647l225 333h164l225 -333h-123l-184 231 l-184 -231h-123z" />
<glyph unicode="&#xdc;" horiz-adv-x="1224" d="M10 1364v111h314v-738q0 -157 14.5 -268.5t49 -197.5t96.5 -128.5t153 -42.5q180 0 262 163.5t82 473.5v738h111v-738q0 -178 -22 -310t-73 -234t-141 -154.5t-219 -52.5q-172 0 -287 94.5t-167 259.5t-52 397v627h-121zM377 1837q0 43 29.5 72.5t72.5 29.5t73 -29.5 t30 -72.5t-30 -72.5t-73 -29.5t-72.5 29.5t-29.5 72.5zM700 1837q0 43 30 72.5t73 29.5t72.5 -29.5t29.5 -72.5t-29.5 -72.5t-72.5 -29.5t-73 29.5t-30 72.5z" />
<glyph unicode="&#xdd;" horiz-adv-x="1114" d="M10 1364v111h281l346 -652l346 652h121l-406 -762v-713h-192v709l-373 655h-123zM580 1647l102 333h184l-184 -333h-102z" />
<glyph unicode="&#xe0;" d="M102 244q0 85 37.5 149.5t95 101.5t137.5 59.5t151 30t151 7.5q-6 178 -52.5 265t-154.5 87q-51 0 -88.5 -18t-54.5 -44t-27 -52t-11 -44l-1 -18q-52 0 -86.5 28t-34.5 72q0 53 87.5 111.5t217.5 58.5q194 0 292.5 -124t98.5 -402v-512h-164l-20 133q0 -3 -8.5 -17.5 t-30.5 -37t-53 -42.5t-83.5 -35t-113.5 -15q-121 0 -203 72t-82 186zM281 266q0 -80 46.5 -128t112.5 -48q83 0 157.5 55t78.5 146v221v4q-52 0 -115.5 -14t-128 -42t-108 -79t-43.5 -115zM283 1530h184l102 -334h-102z" />
<glyph unicode="&#xe1;" d="M102 244q0 85 37.5 149.5t95 101.5t137.5 59.5t151 30t151 7.5q-6 178 -52.5 265t-154.5 87q-51 0 -88.5 -18t-54.5 -44t-27 -52t-11 -44l-1 -18q-52 0 -86.5 28t-34.5 72q0 53 87.5 111.5t217.5 58.5q194 0 292.5 -124t98.5 -402v-512h-164l-20 133q0 -3 -8.5 -17.5 t-30.5 -37t-53 -42.5t-83.5 -35t-113.5 -15q-121 0 -203 72t-82 186zM281 266q0 -80 46.5 -128t112.5 -48q83 0 157.5 55t78.5 146v221v4q-52 0 -115.5 -14t-128 -42t-108 -79t-43.5 -115zM416 1196l102 334h184l-184 -334h-102z" />
<glyph unicode="&#xe2;" d="M102 244q0 85 37.5 149.5t95 101.5t137.5 59.5t151 30t151 7.5q-6 178 -52.5 265t-154.5 87q-51 0 -88.5 -18t-54.5 -44t-27 -52t-11 -44l-1 -18q-52 0 -86.5 28t-34.5 72q0 53 87.5 111.5t217.5 58.5q194 0 292.5 -124t98.5 -402v-512h-164l-20 133q0 -3 -8.5 -17.5 t-30.5 -37t-53 -42.5t-83.5 -35t-113.5 -15q-121 0 -203 72t-82 186zM207 1196l225 334h164l225 -334h-123l-184 231l-184 -231h-123zM281 266q0 -80 46.5 -128t112.5 -48q83 0 157.5 55t78.5 146v221v4q-52 0 -115.5 -14t-128 -42t-108 -79t-43.5 -115z" />
<glyph unicode="&#xe3;" d="M102 244q0 85 37.5 149.5t95 101.5t137.5 59.5t151 30t151 7.5q-6 178 -52.5 265t-154.5 87q-51 0 -88.5 -18t-54.5 -44t-27 -52t-11 -44l-1 -18q-52 0 -86.5 28t-34.5 72q0 53 87.5 111.5t217.5 58.5q194 0 292.5 -124t98.5 -402v-512h-164l-20 133q0 -3 -8.5 -17.5 t-30.5 -37t-53 -42.5t-83.5 -35t-113.5 -15q-121 0 -203 72t-82 186zM164 1243q0 101 42.5 166.5t129.5 65.5q45 0 88 -15t75.5 -37t62.5 -44t61 -37t59 -15q43 0 65.5 37.5t22.5 89.5h64q0 -100 -42.5 -165.5t-129.5 -65.5q-55 0 -108.5 23t-88 50.5t-75.5 50.5t-75 23 q-43 0 -66.5 -38.5t-23.5 -88.5h-61zM281 266q0 -80 46.5 -128t112.5 -48q83 0 157.5 55t78.5 146v221v4q-52 0 -115.5 -14t-128 -42t-108 -79t-43.5 -115z" />
<glyph unicode="&#xe4;" d="M102 244q0 85 37.5 149.5t95 101.5t137.5 59.5t151 30t151 7.5q-6 178 -52.5 265t-154.5 87q-51 0 -88.5 -18t-54.5 -44t-27 -52t-11 -44l-1 -18q-52 0 -86.5 28t-34.5 72q0 53 87.5 111.5t217.5 58.5q194 0 292.5 -124t98.5 -402v-512h-164l-20 133q0 -3 -8.5 -17.5 t-30.5 -37t-53 -42.5t-83.5 -35t-113.5 -15q-121 0 -203 72t-82 186zM209 1386q0 43 29.5 73t72.5 30t73 -30t30 -73t-30 -72.5t-73 -29.5t-72.5 29.5t-29.5 72.5zM281 266q0 -80 46.5 -128t112.5 -48q83 0 157.5 55t78.5 146v221v4q-52 0 -115.5 -14t-128 -42t-108 -79 t-43.5 -115zM532 1386q0 43 30 73t73 30t72.5 -30t29.5 -73t-29.5 -72.5t-72.5 -29.5t-73 29.5t-30 72.5z" />
<glyph unicode="&#xe7;" horiz-adv-x="974" d="M102 512q0 113 36.5 212t99 167.5t146.5 107.5t177 39q130 0 221.5 -59t91.5 -111q0 -44 -34.5 -72t-85.5 -28q0 7 -2 19t-13.5 42.5t-29.5 53.5t-56.5 42t-89.5 19q-111 0 -191.5 -123t-80.5 -309q0 -188 73 -308t183 -120q50 0 94 7.5t72 18.5t48 22t30 18l10 8 q47 0 47 -27q0 -18 -24.5 -42.5t-64 -47.5t-97 -39t-115.5 -16q-190 0 -317.5 148.5t-127.5 377.5zM289 -346q0 27 33 27q0 -2 0.5 -4.5t5 -9t11 -12t19.5 -9.5t31 -4q32 0 68.5 26t54.5 76q12 35 12 59q-4 37 -39 37q-11 0 -23 -2.5t-19 -5.5t-13.5 -6.5t-7.5 -3.5v-2h-86 l92 209h96l-63 -152q53 21 88 21q46 0 70 -22.5t24 -61.5v-11q0 -28 -12 -71q-30 -70 -98 -105t-144 -35q-46 0 -73 19.5t-27 42.5z" />
<glyph unicode="&#xe8;" horiz-adv-x="1032" d="M102 512q0 -229 129.5 -377.5t319.5 -148.5q60 0 120 16.5t102 40.5t68.5 49t26.5 43q0 23 -43 23l-13 -8q-12 -7 -34.5 -18t-53.5 -22t-77 -18.5t-96 -7.5q-110 0 -183 120t-73 308h635q0 252 -102.5 389t-301.5 137q-202 0 -313 -139t-111 -387zM297 614 q19 326 229 326q104 0 154 -81.5t59 -244.5h-442zM313 1530h185l102 -334h-102z" />
<glyph unicode="&#xe9;" horiz-adv-x="1032" d="M102 512q0 -229 129.5 -377.5t319.5 -148.5q60 0 120 16.5t102 40.5t68.5 49t26.5 43q0 23 -43 23l-13 -8q-12 -7 -34.5 -18t-53.5 -22t-77 -18.5t-96 -7.5q-110 0 -183 120t-73 308h635q0 252 -102.5 389t-301.5 137q-202 0 -313 -139t-111 -387zM297 614 q19 326 229 326q104 0 154 -81.5t59 -244.5h-442zM457 1196l102 334h184l-184 -334h-102z" />
<glyph unicode="&#xea;" horiz-adv-x="1032" d="M102 512q0 -229 129.5 -377.5t319.5 -148.5q60 0 120 16.5t102 40.5t68.5 49t26.5 43q0 23 -43 23l-13 -8q-12 -7 -34.5 -18t-53.5 -22t-77 -18.5t-96 -7.5q-110 0 -183 120t-73 308h635q0 252 -102.5 389t-301.5 137q-202 0 -313 -139t-111 -387zM201 1196l225 334h164 l225 -334h-123l-184 231l-184 -231h-123zM297 614q19 326 229 326q104 0 154 -81.5t59 -244.5h-442z" />
<glyph unicode="&#xeb;" horiz-adv-x="1032" d="M102 512q0 -229 129.5 -377.5t319.5 -148.5q60 0 120 16.5t102 40.5t68.5 49t26.5 43q0 23 -43 23l-13 -8q-12 -7 -34.5 -18t-53.5 -22t-77 -18.5t-96 -7.5q-110 0 -183 120t-73 308h635q0 252 -102.5 389t-301.5 137q-202 0 -313 -139t-111 -387zM240 1386q0 43 29.5 73 t72.5 30t72.5 -30t29.5 -73t-29.5 -72.5t-72.5 -29.5t-72.5 29.5t-29.5 72.5zM297 614q19 326 229 326q104 0 154 -81.5t59 -244.5h-442zM563 1386q0 43 30 73t73 30t72.5 -30t29.5 -73t-29.5 -72.5t-72.5 -29.5t-73 29.5t-30 72.5z" />
<glyph unicode="&#xec;" horiz-adv-x="448" d="M10 922v102h305v-1024h-184v922h-121zM14 1530h185l102 -334h-102z" />
<glyph unicode="&#xed;" horiz-adv-x="452" d="M10 922v102h305v-1024h-184v922h-121zM100 1196l103 334h184l-184 -334h-103z" />
<glyph unicode="&#xee;" horiz-adv-x="636" d="M10 1196l226 334h163l226 -334h-123l-185 231l-184 -231h-123zM117 922v102h305v-1024h-184v922h-121z" />
<glyph unicode="&#xef;" horiz-adv-x="552" d="M10 1386q0 43 30 73t73 30t72.5 -30t29.5 -73t-29.5 -72.5t-72.5 -29.5t-73 29.5t-30 72.5zM102 922v102h306v-1024h-185v922h-121zM334 1386q0 43 29.5 73t72.5 30t73 -30t30 -73t-30 -72.5t-73 -29.5t-72.5 29.5t-29.5 72.5z" />
<glyph unicode="&#xf1;" horiz-adv-x="1105" d="M10 922v102h287l18 -172q83 186 308 186q193 0 271.5 -131.5t78.5 -394.5v-512h-185v512q0 428 -235 428q-233 0 -236 -408v-532h-184v922h-123zM199 1243q0 101 42.5 166.5t129.5 65.5q45 0 88 -15t75.5 -37t62.5 -44t61 -37t59 -15q43 0 65.5 37.5t22.5 89.5h63 q0 -100 -42.5 -165.5t-129.5 -65.5q-55 0 -108.5 23t-87.5 50.5t-75 50.5t-75 23q-43 0 -66.5 -38.5t-23.5 -88.5h-61z" />
<glyph unicode="&#xf2;" horiz-adv-x="1052" d="M102 512q0 248 111 387t313 139t313 -139t111 -387t-111 -387t-313 -139t-313 139t-111 387zM291 512q0 -210 56.5 -315t178.5 -105t179 105t57 315t-57 315t-179 105t-178.5 -105t-56.5 -315zM293 1530h184l103 -334h-103z" />
<glyph unicode="&#xf3;" horiz-adv-x="1052" d="M102 512q0 248 111 387t313 139t313 -139t111 -387t-111 -387t-313 -139t-313 139t-111 387zM291 512q0 -210 56.5 -315t178.5 -105t179 105t57 315t-57 315t-179 105t-178.5 -105t-56.5 -315zM451 1196l102 334h184l-184 -334h-102z" />
<glyph unicode="&#xf4;" horiz-adv-x="1052" d="M102 512q0 248 111 387t313 139t313 -139t111 -387t-111 -387t-313 -139t-313 139t-111 387zM223 1196l226 334h163l226 -334h-123l-185 231l-184 -231h-123zM291 512q0 -210 56.5 -315t178.5 -105t179 105t57 315t-57 315t-179 105t-178.5 -105t-56.5 -315z" />
<glyph unicode="&#xf5;" horiz-adv-x="1052" d="M102 512q0 248 111 387t313 139t313 -139t111 -387t-111 -387t-313 -139t-313 139t-111 387zM180 1243q0 101 42.5 166.5t129.5 65.5q45 0 88 -15t75.5 -37t62.5 -44t61 -37t59 -15q43 0 65.5 37.5t22.5 89.5h64q0 -100 -42.5 -165.5t-129.5 -65.5q-55 0 -108.5 23 t-87.5 50.5t-75 50.5t-75 23q-43 0 -66.5 -38.5t-23.5 -88.5h-62zM291 512q0 -210 56.5 -315t178.5 -105t179 105t57 315t-57 315t-179 105t-178.5 -105t-56.5 -315z" />
<glyph unicode="&#xf6;" horiz-adv-x="1052" d="M102 512q0 248 111 387t313 139t313 -139t111 -387t-111 -387t-313 -139t-313 139t-111 387zM260 1386q0 43 29.5 73t72.5 30t73 -30t30 -73t-30 -72.5t-73 -29.5t-72.5 29.5t-29.5 72.5zM291 512q0 -210 56.5 -315t178.5 -105t179 105t57 315t-57 315t-179 105 t-178.5 -105t-56.5 -315zM584 1386q0 43 29.5 73t72.5 30t72.5 -30t29.5 -73t-29.5 -72.5t-72.5 -29.5t-72.5 29.5t-29.5 72.5z" />
<glyph unicode="&#xf7;" horiz-adv-x="1146" d="M102 489v103h942v-103h-942zM489 88q0 43 30 72.5t73 29.5t72.5 -29.5t29.5 -72.5t-29.5 -72.5t-72.5 -29.5t-73 29.5t-30 72.5zM489 936q0 43 30 72.5t73 29.5t72.5 -29.5t29.5 -72.5t-29.5 -72.5t-72.5 -29.5t-73 29.5t-30 72.5z" />
<glyph unicode="&#xf9;" horiz-adv-x="1075" d="M10 922v102h299v-512q0 -212 55.5 -320t176.5 -108q114 0 163 96t54 291v553h184v-1024h-164l-20 156q-75 -170 -287 -170q-99 0 -167.5 35t-107 105.5t-55 163.5t-16.5 222v410h-115zM283 1530h184l102 -334h-102z" />
<glyph unicode="&#xfa;" horiz-adv-x="1075" d="M10 922v102h299v-512q0 -212 55.5 -320t176.5 -108q114 0 163 96t54 291v553h184v-1024h-164l-20 156q-75 -170 -287 -170q-99 0 -167.5 35t-107 105.5t-55 163.5t-16.5 222v410h-115zM457 1196l102 334h184l-184 -334h-102z" />
<glyph unicode="&#xfb;" horiz-adv-x="1075" d="M10 922v102h299v-512q0 -212 55.5 -320t176.5 -108q114 0 163 96t54 291v553h184v-1024h-164l-20 156q-75 -170 -287 -170q-99 0 -167.5 35t-107 105.5t-55 163.5t-16.5 222v410h-115zM201 1196l225 334h164l225 -334h-123l-184 231l-184 -231h-123z" />
<glyph unicode="&#xfc;" horiz-adv-x="1075" d="M10 922v102h299v-512q0 -212 55.5 -320t176.5 -108q114 0 163 96t54 291v553h184v-1024h-164l-20 156q-75 -170 -287 -170q-99 0 -167.5 35t-107 105.5t-55 163.5t-16.5 222v410h-115zM240 1386q0 43 29.5 73t72.5 30t72.5 -30t29.5 -73t-29.5 -72.5t-72.5 -29.5 t-72.5 29.5t-29.5 72.5zM563 1386q0 43 30 73t73 30t72.5 -30t29.5 -73t-29.5 -72.5t-72.5 -29.5t-73 29.5t-30 72.5z" />
<glyph unicode="&#xfd;" horiz-adv-x="913" d="M10 922v102h277l243 -772l261 772h112l-418 -1204q-76 -219 -132.5 -293t-159.5 -74q-75 0 -115.5 39.5t-40.5 87.5q0 28 15 47t40 19q0 -4 1.5 -10.5t8.5 -22.5t17.5 -28.5t32 -23t49.5 -10.5q51 0 94.5 67.5t89.5 201.5l61 184l-315 918h-121zM444 1196l103 334h184 l-184 -334h-103z" />
<glyph unicode="&#xff;" horiz-adv-x="913" d="M10 922v102h277l243 -772l261 772h112l-418 -1204q-76 -219 -132.5 -293t-159.5 -74q-75 0 -115.5 39.5t-40.5 87.5q0 28 15 47t40 19q0 -4 1.5 -10.5t8.5 -22.5t17.5 -28.5t32 -23t49.5 -10.5q51 0 94.5 67.5t89.5 201.5l61 184l-315 918h-121zM252 1386q0 43 29.5 73 t72.5 30t73 -30t30 -73t-30 -72.5t-73 -29.5t-72.5 29.5t-29.5 72.5zM575 1386q0 43 30 73t73 30t72.5 -30t29.5 -73t-29.5 -72.5t-72.5 -29.5t-73 29.5t-30 72.5z" />
<glyph unicode="&#x178;" horiz-adv-x="1228" d="M78 1364v111h280l347 -652l346 652h120l-405 -762v-713h-193v709l-372 655h-123zM408 1837q0 43 29.5 72.5t72.5 29.5t72.5 -29.5t29.5 -72.5t-29.5 -72.5t-72.5 -29.5t-72.5 29.5t-29.5 72.5zM731 1837q0 43 30 72.5t73 29.5t72.5 -29.5t29.5 -72.5t-29.5 -72.5 t-72.5 -29.5t-73 29.5t-30 72.5z" />
<glyph unicode="&#x2c6;" horiz-adv-x="741" d="M53 1196l226 334h163l226 -334h-123l-185 231l-184 -231h-123z" />
<glyph unicode="&#x2dc;" horiz-adv-x="987" d="M162 1243q0 101 42.5 166.5t129.5 65.5q45 0 88 -15t75.5 -37t62.5 -44t61 -37t59 -15q43 0 65.5 37.5t22.5 89.5h63q0 -100 -42.5 -165.5t-129.5 -65.5q-55 0 -108.5 23t-87.5 50.5t-75 50.5t-75 23q-43 0 -66.5 -38.5t-23.5 -88.5h-61z" />
<glyph unicode="&#x2000;" horiz-adv-x="990" />
<glyph unicode="&#x2001;" horiz-adv-x="1980" />
<glyph unicode="&#x2002;" horiz-adv-x="990" />
<glyph unicode="&#x2003;" horiz-adv-x="1980" />
<glyph unicode="&#x2004;" horiz-adv-x="660" />
<glyph unicode="&#x2005;" horiz-adv-x="495" />
<glyph unicode="&#x2006;" horiz-adv-x="330" />
<glyph unicode="&#x2007;" horiz-adv-x="330" />
<glyph unicode="&#x2008;" horiz-adv-x="247" />
<glyph unicode="&#x2009;" horiz-adv-x="396" />
<glyph unicode="&#x200a;" horiz-adv-x="110" />
<glyph unicode="&#x2010;" horiz-adv-x="798" d="M92 469v184h615v-184h-615z" />
<glyph unicode="&#x2011;" horiz-adv-x="798" d="M92 469v184h615v-184h-615z" />
<glyph unicode="&#x2012;" horiz-adv-x="798" d="M92 469v184h615v-184h-615z" />
<glyph unicode="&#x2013;" horiz-adv-x="1351" d="M102 489v103h1147v-103h-1147z" />
<glyph unicode="&#x2014;" horiz-adv-x="1536" d="M102 489v103h1332v-103h-1332z" />
<glyph unicode="&#x2022;" horiz-adv-x="337" d="M63 549q0 43 32 74.5t75 31.5t74.5 -31.5t31.5 -74.5t-31.5 -75t-74.5 -32t-75 32t-32 75z" />
<glyph unicode="&#x2026;" horiz-adv-x="1056" d="M74 88q0 43 29.5 72.5t72.5 29.5t73 -29.5t30 -72.5t-30 -72.5t-73 -29.5t-72.5 29.5t-29.5 72.5zM426 88q0 43 29.5 72.5t72.5 29.5t73 -29.5t30 -72.5t-30 -72.5t-73 -29.5t-72.5 29.5t-29.5 72.5zM778 88q0 43 30 72.5t73 29.5t72.5 -29.5t29.5 -72.5t-29.5 -72.5 t-72.5 -29.5t-73 29.5t-30 72.5z" />
<glyph unicode="&#x202f;" horiz-adv-x="396" />
<glyph unicode="&#x2039;" horiz-adv-x="540" d="M100 430v164l334 225v-123l-231 -184l231 -184v-123z" />
<glyph unicode="&#x203a;" horiz-adv-x="532" d="M100 205v123l232 184l-232 184v123l334 -225v-164z" />
<glyph unicode="&#x205f;" horiz-adv-x="495" />
<glyph unicode="&#x25fc;" horiz-adv-x="1024" d="M0 0v1024h1024v-1024h-1024z" />
<glyph unicode="&#xfb01;" horiz-adv-x="987" d="M20 922v102h121v20q0 143 22.5 240t67.5 150t102 74.5t136 21.5q124 0 204.5 -44t80.5 -106q0 -44 -34.5 -72t-86.5 -28q0 6 -1 16.5t-9.5 37.5t-24 47.5t-49 37.5t-78.5 17q-75 0 -110 -93.5t-35 -298.5v-20h264v-102h-264v-922h-185v922h-121zM508 922v102h387v-1024 h-184v922h-203z" />
</font>
</defs>
</svg>
