<svg width="20" height="15" viewBox="0 0 20 15" xmlns="http://www.w3.org/2000/svg"><title>icon--youtube</title><path d="M7.898 10.582l-.001-5.593 5.378 2.806-5.377 2.787zM19.706 4.02s-.194-1.371-.791-1.976c-.757-.792-1.605-.796-1.994-.843C14.135 1 9.957 1 9.957 1h-.009s-4.178 0-6.964.201c-.389.047-1.237.05-1.994.843C.393 2.65.2 4.02.2 4.02S0 5.631 0 7.242v1.51c0 1.61.2 3.221.2 3.221s.193 1.372.79 1.976c.757.793 1.752.768 2.195.851 1.592.153 6.768.2 6.768.2s4.182-.006 6.968-.208c.389-.046 1.237-.05 1.994-.843.597-.604.791-1.976.791-1.976s.2-1.61.2-3.221v-1.51c0-1.611-.2-3.222-.2-3.222z" fill="#FFF" fill-rule="evenodd"/></svg>