<?xml version="1.0" encoding="UTF-8"?>
<svg width="176px" height="237px" viewBox="0 0 176 237" version="1.1" xmlns="http://www.w3.org/2000/svg" xmlns:xlink="http://www.w3.org/1999/xlink">
    <!-- Generator: Sketch 50.2 (55047) - http://www.bohemiancoding.com/sketch -->
    <title>logo--gold</title>
    <desc>Created with Sketch.</desc>
    <defs></defs>
    <g id="logo--gold" stroke="none" stroke-width="1" fill="none" fill-rule="evenodd">
        <path d="M122.321929,86.7665658 L90.1813982,86.7665658 L90.1813982,192.942039 C101.631664,192.984092 112.510779,193.779382 122.321929,195.179487 L122.321929,86.7665658 Z M100.618212,111.587513 C100.618212,110.736566 101.313257,110.043934 102.169363,110.043934 C103.021752,110.043934 103.720513,110.736566 103.720513,111.587513 C103.720513,112.443408 103.021752,113.138513 102.169363,113.138513 C101.313257,113.138513 100.618212,112.443408 100.618212,111.587513 Z M106.252903,186.192592 C104.219805,186.192592 102.570779,184.545118 102.570779,182.517934 C102.570779,180.489513 104.219805,178.840803 106.252903,178.840803 C108.284761,178.840803 109.93131,180.489513 109.93131,182.517934 C109.93131,184.545118 108.284761,186.192592 106.252903,186.192592 Z M106.252903,162.518197 C104.219805,162.518197 102.570779,160.873197 102.570779,158.843539 C102.570779,156.811408 104.219805,155.166408 106.252903,155.166408 C108.284761,155.166408 109.93131,156.811408 109.93131,158.843539 C109.93131,160.873197 108.284761,162.518197 106.252903,162.518197 Z M106.252903,138.744855 C104.219805,138.744855 102.570779,137.101092 102.570779,135.073908 C102.570779,133.041776 104.219805,131.402961 106.252903,131.402961 C108.284761,131.402961 109.93131,133.041776 109.93131,135.073908 C109.93131,137.101092 108.284761,138.744855 106.252903,138.744855 Z M107.796619,114.689513 C106.107947,114.689513 104.741398,113.322803 104.741398,111.638224 C104.741398,109.952408 106.107947,108.588171 107.796619,108.588171 C109.480336,108.588171 110.850602,109.952408 110.850602,111.638224 C110.850602,113.322803 109.480336,114.689513 107.796619,114.689513 Z" id="Fill-1" fill="#FFB200"></path>
        <path d="M51.6182124,86.7665658 L39.2474159,86.7665658 C39.5769735,87.3181974 39.7690088,87.9601184 39.7690088,88.6490395 C39.7628142,90.6786974 38.1162655,92.3236974 36.0844071,92.3199868 C34.0550265,92.3199868 32.4084779,90.6725132 32.4084779,88.6465658 C32.4084779,87.9588816 32.6005133,87.3157237 32.9313097,86.7665658 L19.4776814,86.7665658 L19.4776814,205.771803 C26.9422832,201.586329 38.1224602,198.147908 51.6182124,195.884487 L51.6182124,86.7665658 Z M36.0744956,108.647539 C38.1038761,108.647539 39.7541416,110.295013 39.7541416,112.324671 C39.7541416,114.351855 38.1038761,115.996855 36.0707788,115.994382 C34.0376814,115.994382 32.3911327,114.349382 32.3911327,112.319724 C32.3960885,110.291303 34.0438761,108.647539 36.0744956,108.647539 L36.0744956,108.647539 Z M36.0583894,132.320697 C38.0914867,132.324408 39.7392743,133.969408 39.7392743,136.001539 C39.7330796,138.031197 38.085292,139.672487 36.0534336,139.672487 C34.0203363,139.667539 32.3787434,138.020066 32.3787434,135.996592 C32.3787434,133.965697 34.0240531,132.320697 36.0583894,132.320697 L36.0583894,132.320697 Z M36.0484779,156.092803 C38.0741416,156.092803 39.7219292,157.737803 39.7219292,159.766224 C39.7219292,161.797118 38.0741416,163.440882 36.0422832,163.440882 C34.0079469,163.440882 32.3613982,161.788461 32.3613982,159.76375 C32.3675929,157.736566 34.0153805,156.089092 36.0484779,156.092803 L36.0484779,156.092803 Z M34.4775044,186.254434 C32.7925487,186.254434 31.4284779,184.879066 31.4284779,183.200671 C31.4284779,181.516092 32.7925487,180.150618 34.4836991,180.150618 C36.1736106,180.150618 37.5389204,181.518566 37.5389204,183.204382 C37.5389204,184.890197 36.1674159,186.254434 34.4775044,186.254434 L34.4775044,186.254434 Z M40.1382124,184.798671 C39.285823,184.798671 38.5870619,184.102329 38.5932566,183.247671 C38.5932566,182.393013 39.285823,181.700382 40.1444071,181.701618 C40.9980354,181.701618 41.6906018,182.395487 41.6906018,183.247671 C41.6906018,184.102329 40.9980354,184.798671 40.1382124,184.798671 L40.1382124,184.798671 Z" id="Fill-3" fill="#FFB200"></path>
        <path d="M74.345292,86.7665658 L66.7084779,86.7665658 L66.7084779,193.947592 C69.2036991,193.722487 71.7534336,193.527066 74.345292,193.374934 L74.345292,86.7665658 Z" id="Fill-5" fill="#FFB200"></path>
        <path d="M82.4479469,86.7665658 L76.546885,86.7665658 L76.546885,193.256197 C78.4895398,193.154776 80.4557345,193.080566 82.4479469,193.028618 L82.4479469,86.7665658 Z" id="Fill-7" fill="#FFB200"></path>
        <polygon id="Fill-9" fill="#FFB200" points="127.428832 86.7624842 125.383345 86.7649579 125.383345 107.585958 127.428832 107.582247"></polygon>
        <polygon id="Fill-11" fill="#FFB200" points="128.315044 107.585711 132.878053 107.585711 132.878053 86.7647105 128.315044 86.7647105"></polygon>
        <polygon id="Fill-13" fill="#FFB200" points="133.865487 107.585711 138.404956 107.585711 138.404956 86.7647105 133.865487 86.7647105"></polygon>
        <polygon id="Fill-14" fill="#FFB200" points="139.878053 107.585711 143.065841 107.585711 143.065841 86.7647105 139.878053 86.7647105"></polygon>
        <polygon id="Fill-15" fill="#FFB200" points="144.923009 107.585711 148.646018 107.585711 148.646018 86.7647105 144.923009 86.7647105"></polygon>
        <polygon id="Fill-16" fill="#FFB200" points="151.075575 107.585711 154.174159 107.585711 154.174159 86.7647105 151.075575 86.7647105"></polygon>
        <polygon id="Fill-17" fill="#FFB200" points="156.281593 107.588184 157.457345 107.588184 157.457345 86.7671842 156.281593 86.7671842"></polygon>
        <polygon id="Fill-18" fill="#FFB200" points="127.428832 109.427368 125.383345 109.433553 125.383345 148.861605 127.428832 148.870263"></polygon>
        <polygon id="Fill-19" fill="#FFB200" points="128.451327 148.861605 132.878053 148.861605 132.878053 109.433553 128.451327 109.433553"></polygon>
        <polygon id="Fill-20" fill="#FFB200" points="133.865487 148.861605 138.496637 148.861605 138.496637 109.433553 133.865487 109.433553"></polygon>
        <polygon id="Fill-21" fill="#FFB200" points="139.878053 148.861605 143.065841 148.861605 143.065841 109.433553 139.878053 109.433553"></polygon>
        <polygon id="Fill-22" fill="#FFB200" points="144.923009 148.861605 148.646018 148.861605 148.646018 109.433553 144.923009 109.433553"></polygon>
        <polygon id="Fill-23" fill="#FFB200" points="151.075575 148.861605 154.174159 148.861605 154.174159 109.433553 151.075575 109.433553"></polygon>
        <polygon id="Fill-24" fill="#FFB200" points="156.281593 148.861605 157.457345 148.861605 157.457345 109.433553 156.281593 109.433553"></polygon>
        <path d="M127.428832,189.651421 L125.383345,189.657605 L125.383345,195.641447 C126.068478,195.749053 126.751133,195.861605 127.416442,195.977868 L127.428832,189.651421 Z" id="Fill-25" fill="#FFB200"></path>
        <path d="M132.877681,189.655132 L128.450956,189.655132 L128.450956,196.122579 C130.023168,196.402105 131.377327,196.694 132.877681,197.003211 L132.877681,189.655132 Z" id="Fill-26" fill="#FFB200"></path>
        <path d="M138.404584,189.655132 L133.865115,189.655132 L133.865115,197.1875 C135.452195,197.521447 136.905469,197.872711 138.404584,198.240053 L138.404584,189.655132 Z" id="Fill-27" fill="#FFB200"></path>
        <path d="M143.065469,189.655132 L139.877681,189.655132 L139.877681,198.608632 C140.965469,198.889395 142.032195,199.176342 143.065469,199.475658 L143.065469,189.655132 Z" id="Fill-28" fill="#FFB200"></path>
        <path d="M148.645646,189.655132 L144.923876,189.655132 L144.923876,200.023579 C146.207416,200.414421 147.450071,200.820105 148.645646,201.238158 L148.645646,189.655132 Z" id="Fill-29" fill="#FFB200"></path>
        <path d="M154.173788,189.655132 L151.075204,189.655132 L151.075204,202.121263 C152.146885,202.535605 153.180159,202.954895 154.173788,203.386553 L154.173788,189.655132 Z" id="Fill-30" fill="#FFB200"></path>
        <path d="M157.523876,189.655132 L156.281221,189.655132 L156.291133,204.348816 C156.441044,204.430447 157.371487,204.896737 157.523876,204.972184 L157.523876,189.655132 Z" id="Fill-31" fill="#FFB200"></path>
        <polygon id="Fill-32" fill="#FFB200" points="127.428832 150.431158 125.383345 150.437342 125.383345 187.913658 127.428832 187.908711"></polygon>
        <polygon id="Fill-33" fill="#FFB200" points="128.453805 187.913658 132.880531 187.913658 132.880531 150.436105 128.453805 150.436105"></polygon>
        <polygon id="Fill-34" fill="#FFB200" points="133.865487 187.913658 138.404956 187.913658 138.404956 150.436105 133.865487 150.436105"></polygon>
        <polygon id="Fill-35" fill="#FFB200" points="139.878053 187.913658 143.065841 187.913658 143.065841 150.436105 139.878053 150.436105"></polygon>
        <polygon id="Fill-36" fill="#FFB200" points="144.923009 187.913658 148.646018 187.913658 148.646018 150.436105 144.923009 150.436105"></polygon>
        <polygon id="Fill-37" fill="#FFB200" points="151.075575 187.913658 154.174159 187.913658 154.174159 150.436105 151.075575 150.436105"></polygon>
        <polygon id="Fill-38" fill="#FFB200" points="156.281593 187.913658 157.457345 187.913658 157.457345 150.437342 156.281593 150.437342"></polygon>
        <path d="M56.6755575,86.7665658 L54.7229912,86.7665658 L54.7229912,195.38975 C55.3635221,195.292039 56.0213982,195.200513 56.6755575,195.108987 L56.6755575,86.7665658 Z" id="Fill-39" fill="#FFB200"></path>
        <path d="M64.8178584,86.7665658 L57.8835221,86.7665658 L57.8810442,194.939539 C60.2201593,194.621671 62.3647611,194.376776 64.8178584,194.133118 L64.8178584,86.7665658 Z" id="Fill-40" fill="#FFB200"></path>
        <path d="M86.8610442,86.7665658 L85.5031681,86.7665658 L85.5031681,192.963066 C85.8921947,192.960592 86.4707788,192.955645 86.8610442,192.951934 L86.8610442,86.7665658 Z" id="Fill-41" fill="#FFB200"></path>
        <path d="M25.9273451,42.2379 L23.8930088,40.2775053 L23.8930088,31.3301895 L28.0546018,31.3301895 L30.2115929,34.4519789 L30.3714159,34.4519789 L30.3714159,27.2795316 L30.2115929,27.2795316 L28.0546018,30.0797421 L23.8930088,30.0797421 L23.8930088,19.5542158 L28.2144248,19.5542158 L31.949823,24.9616895 L32.1121239,24.9616895 L32.1121239,18.3025316 L18.0006195,18.3025316 L18.0006195,18.4954789 L19.6756637,20.5189526 L19.6756637,40.2775053 L18.0006195,42.2379 L18.0006195,42.4308474 L25.9273451,42.4308474 L25.9273451,42.2379 Z M41.2022124,19.5245316 C43.4285841,19.5245316 44.6848673,21.0347158 44.6848673,25.0260053 C44.6848673,29.3722684 42.8784956,30.6264263 40.2668142,30.6264263 L39.7179646,30.6264263 L39.7179646,19.5245316 L41.2022124,19.5245316 Z M41.3954867,42.2379 L39.7179646,40.2775053 L39.7179646,31.8459526 L41.0399115,31.8459526 L44.8137168,40.7611105 L43.9117699,42.2379 L43.9117699,42.4308474 L51.3850442,42.4308474 L51.3850442,42.2379 L49.2887611,40.3430579 L44.8793805,31.0754 C47.2593805,30.0154263 48.9046903,27.8905316 48.9046903,24.8973737 C48.9046903,20.5523474 45.9089381,18.3025316 41.5243363,18.3025316 L33.8243363,18.3025316 L33.8243363,18.4954789 L35.4993805,20.5189526 L35.4993805,40.2775053 L33.8243363,42.2379 L33.8243363,42.4308474 L41.3954867,42.4308474 L41.3954867,42.2379 Z M52.8259292,42.4308474 L67.1331858,42.4308474 L67.1331858,35.8026105 L67.0030973,35.8026105 L63.2367257,41.2113211 L58.7195575,41.2113211 L58.7195575,30.8465842 L63.1066372,30.8465842 L65.2636283,33.9708474 L65.3912389,33.9708474 L65.3912389,26.8305579 L65.2636283,26.8305579 L63.1066372,29.6295316 L58.7195575,29.6295316 L58.7195575,19.5542158 L63.0434513,19.5542158 L66.7453982,24.9616895 L66.9052212,24.9616895 L66.9052212,18.3025316 L52.8259292,18.3025316 L52.8259292,18.4954789 L54.5022124,20.5189526 L54.5022124,40.2775053 L52.8259292,42.2379 L52.8259292,42.4308474 Z M70.9367257,20.5239 L70.9367257,40.2762684 L69.2579646,42.2379 L69.2579646,42.4308474 L76.830354,42.4308474 L76.830354,42.2379 L75.1515929,40.2762684 L75.1515929,20.5239 L76.830354,18.4954789 L76.830354,18.3025316 L69.2579646,18.3025316 L69.2579646,18.4954789 L70.9367257,20.5239 Z M85.9340708,19.5245316 C88.1604425,19.5245316 89.4179646,21.0347158 89.4179646,25.0260053 C89.4179646,29.3722684 87.6115929,30.6264263 84.9986726,30.6264263 L84.449823,30.6264263 L84.449823,19.5245316 L85.9340708,19.5245316 Z M86.1285841,42.2379 L84.449823,40.2775053 L84.449823,31.8459526 L85.7717699,31.8459526 L89.5455752,40.7611105 L88.6448673,42.2379 L88.6448673,42.4308474 L96.1181416,42.4308474 L96.1181416,42.2379 L94.0243363,40.3430579 L89.6124779,31.0754 C91.9937168,30.0154263 93.6365487,27.8905316 93.6365487,24.8973737 C93.6365487,20.5523474 90.6420354,18.3025316 86.2561947,18.3025316 L78.5561947,18.3025316 L78.5561947,18.4954789 L80.2324779,20.5189526 L80.2324779,40.2775053 L78.5561947,42.2379 L78.5561947,42.4308474 L86.1285841,42.4308474 L86.1285841,42.2379 Z M107.679912,32.7822421 L102.555664,32.7822421 L105.037257,22.9369789 L107.679912,32.7822421 Z M103.234602,42.2379 L100.687345,40.0870316 L102.234779,33.9683737 L108.000796,33.9683737 L109.709292,40.3752158 L108.000796,42.2379 L108.000796,42.4308474 L115.960973,42.4308474 L115.960973,42.2379 L114.285929,40.3752158 L108.132124,18.3025316 L103.782212,18.3025316 L104.42646,20.6846895 L99.3988496,40.0524 L97.1749558,42.2379 L97.1749558,42.4308474 L103.234602,42.4308474 L103.234602,42.2379 Z M124.163982,42.7536632 C128.712124,42.7536632 130.834425,39.8606895 130.834425,34.1007158 L130.834425,20.6154263 L132.736195,18.4954789 L132.736195,18.3025316 L127.517788,18.3025316 L127.517788,18.4954789 L129.679735,20.6488211 L129.679735,34.1316368 C129.679735,40.7611105 126.679027,41.3424263 125.132832,41.3424263 C122.584336,41.3424263 120.908053,40.0524 120.908053,34.1637947 L120.908053,20.5189526 L122.840796,18.4954789 L122.840796,18.3025316 L115.046637,18.3025316 L115.046637,18.4954789 L116.689469,20.5189526 L116.689469,34.1637947 C116.689469,40.6658737 119.90823,42.7536632 124.163982,42.7536632 Z M144.667168,42.5285579 L150.886637,23.3513211 L151.113363,22.6426105 L151.113363,40.2775053 L149.435841,42.2379 L149.435841,42.4308474 L157.00823,42.4308474 L157.00823,42.2379 L155.330708,40.2775053 L155.330708,20.5869789 L157.00823,18.4954789 L157.00823,18.3025316 L151.113363,18.3025316 L145.663274,35.5169 L145.245752,34.1959526 L139.701504,18.3025316 L134.226637,18.3025316 L134.226637,18.6909 L136.061504,20.5869789 L136.061504,40.1822684 L134.159735,42.2379 L134.159735,42.4308474 L139.474779,42.4308474 L139.474779,42.2379 L137.347522,40.1822684 L137.347522,24.0909526 L144.150531,42.5285579 L144.667168,42.5285579 Z" id="Fill-43" fill="#FFB200"></path>
        <path d="M23.7035752,75.4140868 C26.5729558,75.4140868 30.6936637,73.5835605 30.6936637,68.2750342 C30.6936637,65.3127974 28.827823,63.3833237 25.5409204,60.6152711 C22.3147257,58.1044816 21.4784425,56.75385 21.4784425,55.0804026 C21.4784425,53.1162974 22.2527788,51.9264553 23.7333097,51.9264553 C24.5410973,51.9264553 25.0899469,52.0229289 25.8308319,52.31235 L29.3741947,57.7519816 L29.5018053,57.7519816 L29.5018053,51.2870079 C28.1513628,50.9345079 25.8308319,50.6772447 24.2821593,50.6772447 C20.8651681,50.6772447 17.9995044,53.0210605 17.9995044,56.8824816 C17.9995044,59.7791658 19.5791504,61.8075868 23.1547257,64.5719289 C26.347469,66.9540868 27.088354,68.4370605 27.088354,70.3022184 C27.088354,72.5866658 26.088531,74.1970342 23.9922478,74.1970342 C23.3145487,74.1970342 22.6380885,74.0016132 21.5094159,73.4561658 L18.1952566,68.0820868 L18.0329558,68.0820868 L18.0329558,74.8698763 C19.6101239,75.1259026 21.8959646,75.4140868 23.7035752,75.4140868 L23.7035752,75.4140868 Z M44.8894159,75.0912711 L44.8894159,74.8983237 L43.2143717,72.9379289 L43.2143717,64.3777447 L48.1143717,53.3438763 L50.1759646,51.1571395 L50.1759646,50.9654289 L44.5995044,50.9654289 L44.5995044,51.1571395 L46.6957876,53.2461658 L42.5069381,62.8341658 L38.3218053,53.0532184 L39.9943717,51.1571395 L39.9943717,50.9654289 L32.1642832,50.9654289 L32.1642832,51.1571395 L33.7761416,53.0532184 L38.9957876,64.5385342 L38.9957876,72.9379289 L37.288531,74.8983237 L37.288531,75.0912711 L44.8894159,75.0912711 Z M57.607115,74.8983237 L55.448885,72.8117711 L55.448885,57.2683763 L65.5722478,75.0281921 L65.5722478,75.0912711 L66.5658761,75.0912711 L66.5658761,53.2783237 L68.5977345,51.1571395 L68.5977345,50.9654289 L63.1563186,50.9654289 L63.1563186,51.1571395 L65.3133097,53.18185 L65.3133097,67.0839553 L65.2191504,66.8266921 L56.1897699,50.9654289 L51.9711858,50.9654289 L51.9711858,51.1571395 L54.1641062,53.18185 L54.1641062,72.8451658 L52.1644602,74.8983237 L52.1644602,75.0912711 L57.607115,75.0912711 L57.607115,74.8983237 Z M77.7832212,50.9654289 L70.8265841,50.9654289 L70.8265841,51.1571395 L72.5016283,53.18185 L72.5016283,72.9404026 L70.8265841,74.9007974 L70.8265841,75.0912711 L78.4931327,75.0912711 C84.0708319,75.0912711 88.7094159,70.8822974 88.7094159,62.7723237 C88.7094159,55.5640079 84.7819823,50.9654289 77.7832212,50.9654289 L77.7832212,50.9654289 Z M77.687823,52.0884816 C82.6534867,52.0884816 84.2653451,56.8824816 84.2653451,63.1248237 C84.2653451,69.7221395 82.7191504,74.0016132 78.8499469,74.0016132 L76.7202124,74.0016132 L76.7202124,52.0884816 L77.687823,52.0884816 Z M92.3407434,53.1843237 L92.3407434,72.9379289 L90.6656991,74.8983237 L90.6656991,75.0912711 L98.2343717,75.0912711 L98.2343717,74.8983237 L96.5580885,72.9379289 L96.5580885,53.1843237 L98.2343717,51.1583763 L98.2343717,50.9654289 L90.6656991,50.9654289 L90.6656991,51.1583763 L92.3407434,53.1843237 Z M108.17685,74.9007974 L106.501805,72.9404026 L106.501805,66.2156921 L107.759327,64.3505342 L112.270301,73.2285868 L111.047469,74.9007974 L111.047469,75.0912711 L119.135257,75.0912711 L119.135257,74.9007974 L117.167823,73.13335 L110.305345,60.5509553 L114.977381,53.5999026 L117.942159,51.1571395 L117.942159,50.9654289 L112.333487,50.9654289 L112.333487,51.1571395 L113.495611,53.4391132 L106.501805,63.8001395 L106.501805,53.18185 L108.17685,51.1571395 L108.17685,50.9654289 L100.608177,50.9654289 L100.608177,51.1571395 L102.28446,53.18185 L102.28446,72.9404026 L100.608177,74.9007974 L100.608177,75.0912711 L108.17685,75.0912711 L108.17685,74.9007974 Z M131.294195,65.4439026 L126.171186,65.4439026 L128.650301,55.5998763 L131.294195,65.4439026 Z M126.846407,74.9007974 L124.302867,72.7474553 L125.847823,66.6325079 L131.61508,66.6325079 L133.323575,73.0368763 L131.61508,74.9007974 L131.61508,75.0912711 L139.574018,75.0912711 L139.574018,74.9007974 L137.900212,73.0368763 L131.745168,50.9654289 L127.395257,50.9654289 L128.039504,53.3475868 L123.011894,72.7140605 L120.789239,74.9007974 L120.789239,75.0912711 L126.846407,75.0912711 L126.846407,74.9007974 Z M150.957381,74.8983237 L149.281097,72.9379289 L149.281097,52.2789553 L151.278265,52.2789553 L154.955434,57.5565605 L155.084283,57.5565605 L155.084283,50.9654289 L139.295257,50.9654289 L139.295257,57.5565605 L139.424106,57.5565605 L143.097558,52.2789553 L145.062513,52.2789553 L145.062513,72.9379289 L143.387469,74.8983237 L143.387469,75.0912711 L150.957381,75.0912711 L150.957381,74.8983237 Z" id="Fill-46" fill="#FFB200"></path>
    </g>
</svg>