<svg width="176" height="237" viewBox="0 0 176 237" xmlns="http://www.w3.org/2000/svg"><title>logo</title><path d="M122.322 86.767h-32.14v106.175c11.45.042 22.329.837 32.14 2.237V86.767zm-21.704 24.82a1.551 1.551 0 0 1 3.102 0c0 .856-.698 1.552-1.55 1.552a1.552 1.552 0 0 1-1.552-1.551zm5.635 74.606a3.68 3.68 0 0 1-3.682-3.675 3.681 3.681 0 0 1 7.36 0 3.678 3.678 0 0 1-3.678 3.675zm0-23.675a3.679 3.679 0 0 1-3.682-3.674 3.68 3.68 0 0 1 3.682-3.678 3.677 3.677 0 1 1 0 7.352zm0-23.773a3.677 3.677 0 0 1-3.682-3.671 3.674 3.674 0 0 1 3.682-3.671 3.671 3.671 0 1 1 0 7.342zm1.544-24.055a3.051 3.051 0 0 1 0-6.101 3.053 3.053 0 0 1 3.054 3.05 3.055 3.055 0 0 1-3.054 3.05zM51.618 86.767h-12.37c.329.551.521 1.193.521 1.882a3.68 3.68 0 0 1-3.685 3.671 3.677 3.677 0 0 1-3.676-3.673c0-.688.193-1.331.523-1.88H19.478v119.005c7.464-4.186 18.644-7.624 32.14-9.888V86.767zm-15.544 21.88c2.03 0 3.68 1.648 3.68 3.678a3.675 3.675 0 0 1-3.683 3.67 3.676 3.676 0 0 1-3.68-3.675 3.683 3.683 0 0 1 3.683-3.672zm-.016 23.674A3.684 3.684 0 0 1 39.74 136a3.68 3.68 0 0 1-7.36-.005 3.676 3.676 0 0 1 3.68-3.675zm-.01 23.772a3.676 3.676 0 0 1 3.674 3.673 3.676 3.676 0 0 1-3.68 3.675 3.682 3.682 0 0 1-3.68-3.677 3.683 3.683 0 0 1 3.686-3.671zm-1.57 30.161a3.056 3.056 0 0 1-3.05-3.053 3.05 3.05 0 0 1 3.056-3.05 3.053 3.053 0 0 1 3.055 3.053 3.055 3.055 0 0 1-3.061 3.05zm5.66-1.455a1.546 1.546 0 0 1-1.545-1.551c0-.855.693-1.548 1.551-1.546a1.547 1.547 0 1 1-.006 3.097zm34.207-98.032h-7.637v107.18c2.496-.225 5.045-.42 7.637-.572V86.767zm8.103 0h-5.901v106.49c1.943-.102 3.909-.176 5.9-.228V86.767zm44.981-.005l-2.046.003v20.821l2.046-.004zm.886 20.824h4.563V86.765h-4.563zm5.55 0h4.54V86.765h-4.54zm6.013 0h3.188V86.765h-3.188zm5.045 0h3.723V86.765h-3.723zm6.153 0h3.098V86.765h-3.098zm5.206.002h1.175V86.767h-1.175zm-28.853 1.839l-2.046.007v39.428l2.046.008zm1.022 39.435h4.427v-39.428h-4.427zm5.414 0h4.632v-39.428h-4.632zm6.013 0h3.188v-39.428h-3.188zm5.045 0h3.723v-39.428h-3.723zm6.153 0h3.098v-39.428h-3.098zm5.206 0h1.175v-39.428h-1.175zm-28.853 40.789l-2.046.007v5.983c.685.108 1.368.22 2.033.337l.013-6.327zm5.449.004h-4.427v6.468c1.572.28 2.926.571 4.427.88v-7.348zm5.527 0h-4.54v7.532c1.587.334 3.04.686 4.54 1.053v-8.585zm4.66 0h-3.187v8.954c1.087.28 2.154.567 3.187.867v-9.82zm5.581 0h-3.722v10.369c1.283.39 2.526.796 3.722 1.214v-11.583zm5.528 0h-3.099v12.466a81.99 81.99 0 0 1 3.099 1.266v-13.732zm3.35 0h-1.243l.01 14.694c.15.081 1.08.548 1.233.623v-15.317zm-30.095-39.224l-2.046.006v37.477l2.046-.005zm1.025 37.483h4.427v-37.478h-4.427zm5.411 0h4.54v-37.478h-4.54zm6.013 0h3.188v-37.478h-3.188zm5.045 0h3.723v-37.478h-3.723zm6.153 0h3.098v-37.478h-3.098zm5.206 0h1.175v-37.477h-1.175zM56.676 86.767h-1.953V195.39c.64-.098 1.298-.19 1.953-.281V86.767zm8.142 0h-6.934L57.88 194.94a187.81 187.81 0 0 1 6.937-.807V86.767zm22.043 0h-1.358v106.196c.39-.002.968-.007 1.358-.011V86.767zM25.927 42.238l-2.034-1.96V31.33h4.162l2.157 3.122h.16V27.28h-.16l-2.157 2.8h-4.162V19.554h4.321l3.736 5.408h.162v-6.66H18.001v.193l1.675 2.024v19.759L18 42.238v.193h7.926v-.193zm15.275-22.713c2.227 0 3.483 1.51 3.483 5.501 0 4.346-1.807 5.6-4.418 5.6h-.549V19.525h1.484zm.193 22.713l-1.677-1.96v-8.432h1.322l3.774 8.915-.902 1.477v.193h7.473v-.193l-2.096-1.895-4.41-9.268c2.38-1.06 4.026-3.184 4.026-6.178 0-4.345-2.996-6.594-7.38-6.594h-7.7v.192l1.674 2.024v19.759l-1.675 1.96v.193h7.571v-.193zm11.43.193h14.308v-6.628h-.13l-3.766 5.408H58.72V30.847h4.387l2.157 3.124h.127v-7.14h-.127l-2.157 2.799H58.72V19.554h4.323l3.702 5.408h.16v-6.66h-14.08v.193l1.677 2.024v19.759l-1.676 1.96v.193zm18.112-21.907v19.752l-1.679 1.962v.193h7.572v-.193l-1.678-1.962V20.524l1.678-2.029v-.192h-7.572v.192l1.679 2.029zm14.997-1c2.226 0 3.484 1.51 3.484 5.502 0 4.346-1.806 5.6-4.42 5.6h-.548V19.525h1.484zm.195 22.714l-1.68-1.96v-8.432h1.323l3.774 8.915-.901 1.477v.193h7.473v-.193l-2.094-1.895-4.412-9.268c2.382-1.06 4.025-3.184 4.025-6.178 0-4.345-2.995-6.594-7.38-6.594h-7.7v.192l1.675 2.024v19.759l-1.676 1.96v.193h7.573v-.193zm21.55-9.456h-5.123l2.481-9.845 2.643 9.845zm-4.444 9.456l-2.548-2.151 1.548-6.119H108l1.708 6.407L108 42.238v.193h7.96v-.193l-1.675-1.863-6.154-22.072h-4.35l.644 2.382L99.4 40.052l-2.224 2.186v.193h6.06v-.193zm20.929.516c4.548 0 6.67-2.893 6.67-8.653V20.615l1.902-2.12v-.192h-5.218v.192l2.162 2.154v13.483c0 6.63-3.001 7.21-4.547 7.21-2.549 0-4.225-1.29-4.225-7.178V20.519l1.933-2.024v-.192h-7.794v.192l1.642 2.024v13.645c0 6.502 3.22 8.59 7.475 8.59zm20.503-.225l6.22-19.178.226-.708v17.635l-1.677 1.96v.193h7.572v-.193l-1.677-1.96V20.587l1.677-2.092v-.192h-5.895l-5.45 17.214-.417-1.321-5.544-15.893h-5.475v.388l1.835 1.896v19.595l-1.902 2.056v.193h5.315v-.193l-2.127-2.056V24.091l6.803 18.438h.516zM23.704 75.414c2.869 0 6.99-1.83 6.99-7.139 0-2.962-1.866-4.892-5.153-7.66-3.226-2.51-4.063-3.861-4.063-5.535 0-1.964.775-3.154 2.255-3.154.808 0 1.357.097 2.098.386l3.543 5.44h.128v-6.465c-1.35-.352-3.671-.61-5.22-.61-3.417 0-6.282 2.344-6.282 6.205 0 2.897 1.58 4.926 5.155 7.69 3.192 2.382 3.933 3.865 3.933 5.73 0 2.285-1 3.895-3.096 3.895-.677 0-1.354-.195-2.483-.74l-3.314-5.375h-.162v6.788c1.577.256 3.863.544 5.67.544zm21.185-.323v-.193l-1.675-1.96v-8.56l4.9-11.034 2.062-2.187v-.192H44.6v.192l2.096 2.09-4.19 9.587-4.184-9.78 1.672-1.897v-.192h-7.83v.192l1.612 1.896 5.22 11.486v8.399l-1.707 1.96v.193h7.6zm12.718-.193l-2.158-2.086V57.268l10.123 17.76v.063h.994V53.278l2.032-2.12v-.193h-5.442v.192l2.157 2.025v13.902l-.094-.257-9.03-15.862h-4.218v.192l2.193 2.025v19.663l-2 2.053v.193h5.443v-.193zm20.176-23.933h-6.956v.192l1.675 2.025V72.94l-1.675 1.96v.191h7.666c5.578 0 10.216-4.209 10.216-12.319 0-7.208-3.927-11.807-10.926-11.807zm-.095 1.123c4.965 0 6.577 4.794 6.577 11.037 0 6.597-1.546 10.877-5.415 10.877h-2.13V52.088h.968zm14.653 1.096v19.754l-1.675 1.96v.193h7.568v-.193l-1.676-1.96V53.184l1.676-2.026v-.193h-7.568v.193l1.675 2.026zm15.836 21.717l-1.675-1.96v-6.725l1.257-1.865 4.511 8.878-1.223 1.672v.19h8.088v-.19l-1.967-1.768-6.863-12.582 4.672-6.951 2.965-2.443v-.192h-5.609v.192l1.163 2.282-6.994 10.361V53.182l1.675-2.025v-.192h-7.569v.192l1.676 2.025V72.94l-1.676 1.96v.191h7.569v-.19zm23.117-9.457h-5.123l2.48-9.844 2.643 9.844zm-4.448 9.457l-2.543-2.154 1.545-6.114h5.767l1.709 6.404-1.709 1.864v.19h7.959v-.19l-1.674-1.864-6.155-22.072h-4.35l.645 2.383-5.028 19.366-2.223 2.187v.19h6.057v-.19zm24.111-.003l-1.676-1.96V52.279h1.997l3.677 5.278h.13v-6.592h-15.79v6.592h.13l3.673-5.278h1.965v20.659l-1.676 1.96v.193h7.57v-.193z" fill="#8D7C00" fill-rule="evenodd"/></svg>