<?xml version="1.0" standalone="no"?>
<!DOCTYPE svg PUBLIC "-//W3C//DTD SVG 1.1//EN" "http://www.w3.org/Graphics/SVG/1.1/DTD/svg11.dtd" >
<svg xmlns="http://www.w3.org/2000/svg">
<metadata></metadata>
<defs>
<font id="atzurbold_italic" horiz-adv-x="993" >
<font-face units-per-em="2048" ascent="1536" descent="-512" />
<missing-glyph horiz-adv-x="618" />
<glyph horiz-adv-x="0" />
<glyph horiz-adv-x="682" />
<glyph horiz-adv-x="0" />
<glyph horiz-adv-x="0" />
<glyph unicode="&#xd;" horiz-adv-x="591" />
<glyph unicode=" "  horiz-adv-x="618" />
<glyph unicode="&#x09;" horiz-adv-x="618" />
<glyph unicode="&#xa0;" horiz-adv-x="618" />
<glyph unicode="!" horiz-adv-x="415" d="M82 104q9 48 52 81.5t99 33.5t91.5 -35.5t29.5 -83.5q-8 -46 -52 -80t-99 -34q-59 0 -93 34t-28 84zM164 309l143 1166h264l-227 -1166h-180z" />
<glyph unicode="&#x26;" horiz-adv-x="1409" d="M127 322q0 36 6 77q12 71 41.5 131.5t73 106.5t89.5 80t103 65l62 29q-18 22 -23 31l4 -2q-4 5 -10 13.5t-22 36.5t-28 57t-22 71.5t-10 83.5q0 43 4 61v-2q24 149 137.5 238.5t307.5 89.5q179 0 272.5 -72.5t93.5 -199.5q0 -44 -4 -64v2q-17 -117 -113 -217t-231 -176 q22 -31 211 -303q78 137 96 241h314l-19 -143h-155q-39 -103 -138 -235l228 -322h-324l-90 125q-189 -139 -418 -139q-200 0 -318 86.5t-118 249.5zM393 395q-12 -69 3.5 -122.5t49.5 -83t73.5 -44t82.5 -14.5q157 0 295 115l-279 401q-7 -4 -16 -9t-20.5 -12.5t-18.5 -11.5 q-151 -86 -170 -219zM651 1157q-7 -44 11 -95t40 -80l21 -30l18 -28q179 107 201 235q29 184 -121 184q-139 0 -170 -186z" />
<glyph unicode="'" horiz-adv-x="317" d="M248 1116l18 400h256l-106 -400h-168z" />
<glyph unicode="(" horiz-adv-x="550" d="M143 399q0 80 17 199q17 107 52.5 212.5t78.5 190t91 161.5t92.5 132.5t81 97.5t58.5 62l21 21l141 -15q-11 -16 -30.5 -46t-72.5 -124.5t-97 -191t-89.5 -235t-66.5 -267.5q-19 -123 -19 -227q0 -159 32.5 -321.5t64.5 -245.5l32 -83h-174q-9 11 -23 32t-51 90t-65 143 t-51 187.5t-23 227.5z" />
<glyph unicode=")" horiz-adv-x="550" d="M-45 -268q11 16 30.5 46.5t71.5 125t96 191t89 235.5t65 268q19 127 19 231q0 158 -32 319.5t-64 243.5l-31 83h174q9 -11 23 -31.5t50.5 -89t64 -142.5t50.5 -186.5t23 -226.5q0 -91 -17 -203q-25 -143 -82.5 -286t-122.5 -245t-126.5 -183.5t-101.5 -121.5l-40 -41z " />
<glyph unicode="+" horiz-adv-x="1126" d="M133 479l21 131h409l68 412h172l-66 -412h410l-21 -131h-409l-66 -411h-172l66 411h-412z" />
<glyph unicode="," horiz-adv-x="356" d="M-23 -233q6 4 16 12.5t36.5 33.5t48 49.5t43.5 59.5t31 66q-51 6 -80 38t-23 78q9 48 52.5 81.5t101.5 33.5q56 0 90.5 -35.5t28.5 -83.5q-11 -64 -39 -122t-60.5 -95t-63 -64.5t-51.5 -39.5l-20 -12h-111z" />
<glyph unicode="-" horiz-adv-x="798" d="M129 459l33 213h674l-33 -213h-674z" />
<glyph unicode="." horiz-adv-x="352" d="M49 104q9 48 53.5 81.5t100.5 33.5t91 -35.5t30 -83.5q-8 -46 -53.5 -80t-100.5 -34q-58 0 -92 34t-29 84z" />
<glyph unicode="/" horiz-adv-x="557" d="M-37 -14l672 1530h186l-684 -1530h-174z" />
<glyph unicode="0" horiz-adv-x="1191" d="M170 539q0 91 16 200q32 208 118.5 377t222 271t294.5 102q202 0 310 -154t108 -403q0 -78 -14 -197q-26 -155 -83.5 -291t-139 -238t-189.5 -161t-227 -59q-200 0 -308 153t-108 400zM428 483q0 -164 43.5 -258t132.5 -94q85 0 157 84t120.5 217.5t76.5 306.5 q23 141 23 246q0 167 -44 262.5t-134 95.5q-86 0 -158.5 -82.5t-120 -216.5t-73.5 -309q-23 -148 -23 -252z" />
<glyph unicode="1" horiz-adv-x="692" d="M154 1124l417 351h248l-233 -1475h-260l194 1243q-45 -38 -144.5 -119.5t-144.5 -119.5z" />
<glyph unicode="2" horiz-adv-x="1048" d="M29 0l18 127q15 11 41 31.5t102 84.5t146 128t157.5 155t153 173.5t116 174t62.5 166.5q9 50 9 90q0 213 -193 213q-38 0 -70 -16t-49.5 -38.5t-30 -45.5t-16.5 -39l-4 -16q-81 0 -132 34t-44 87q5 26 34 57t75.5 58.5t115 46t142.5 18.5q222 0 331 -87t109 -251 q0 -36 -8 -94q-22 -103 -82.5 -216.5t-136 -211t-169.5 -194.5t-173.5 -167t-157.5 -129h626l-20 -139h-952z" />
<glyph unicode="3" horiz-adv-x="923" d="M23 158q5 29 43 47t104 18q1 -4 3 -11t14 -24t29 -30t52 -24t80 -11q44 0 89 16t89.5 49t78.5 93t46 137q8 44 8 88q0 206 -219 215h-49l19 137h47q116 2 179 59t83 185q6 38 6 61q0 93 -41.5 141t-101.5 48q-40 0 -72.5 -16.5t-49.5 -40t-29 -47t-15 -40.5l-4 -16 q-80 0 -130.5 33.5t-43.5 83.5q11 55 116 117.5t246 62.5q79 0 145 -16t121 -50t86 -95t31 -144q0 -24 -8 -86q-39 -230 -215 -316q73 -49 114 -120t41 -158q0 -28 -8 -90q-16 -105 -74.5 -189t-141 -135t-175 -77.5t-186.5 -26.5q-152 0 -233 56.5t-74 115.5z" />
<glyph unicode="4" horiz-adv-x="1011" d="M49 381l17 125l712 969h252l-151 -955h204l-18 -139h-207l-61 -381h-260l59 381h-547zM276 520h340q17 113 47.5 293.5t49.5 308.5z" />
<glyph unicode="5" horiz-adv-x="1007" d="M37 174q5 31 32.5 49.5t77.5 18.5l35 -13q1 -4 4 -10.5t19 -23.5t39 -30t68.5 -23.5t103.5 -10.5q131 0 208.5 77t104.5 251q8 49 8 98q0 114 -45 169.5t-114 55.5q-39 0 -84 -22.5t-70 -45.5l-25 -22h-215l125 783h756l-21 -140h-497l-70 -442q79 35 158 35 q169 0 269 -93t100 -268q0 -41 -11 -112q-36 -229 -200 -349t-414 -120q-90 0 -160.5 19t-109.5 48t-57.5 61t-14.5 60z" />
<glyph unicode="6" horiz-adv-x="1056" d="M131 354q0 58 8 105l58 360q52 313 214.5 491.5t405.5 178.5q74 0 137 -20t100 -49t56 -60t14 -55q-7 -49 -66.5 -81t-139.5 -32q0 3 0.5 8.5t0 21t-3.5 30t-11 32t-20.5 30t-34.5 21t-50 8.5q-121 0 -205 -119t-127 -343q80 47 190 47q171 0 279 -96.5t108 -274.5 q0 -55 -8 -102q-19 -111 -70 -201.5t-122 -148t-155.5 -88.5t-174.5 -31q-171 0 -277 95.5t-106 272.5zM389 346q0 -110 39 -162.5t104 -52.5q82 0 147 81.5t93 246.5q10 68 10 110q0 109 -38 161t-105 52q-79 0 -143.5 -77.5t-92.5 -231.5q0 -3 -2 -8t-2 -8v-2 q-10 -68 -10 -109z" />
<glyph unicode="7" horiz-adv-x="968" d="M131 0l684 1335h-405l-21 -121h-182l45 261h903l-756 -1475h-268z" />
<glyph unicode="8" horiz-adv-x="1052" d="M125 330q0 30 8 88q41 250 244 366q-105 75 -105 226q0 42 9 92q18 106 62.5 183.5t109.5 120.5t138.5 63t160.5 20q164 0 261 -70t97 -227q0 -32 -8 -94q-32 -214 -195 -314q135 -91 135 -280q0 -28 -8 -90q-16 -106 -64.5 -189t-119 -134.5t-155 -78t-177.5 -26.5 q-174 0 -283.5 88.5t-109.5 255.5zM381 326q0 -104 43 -153.5t113 -49.5q84 0 150 71.5t91 223.5q8 47 8 92q0 107 -41 159t-110 52h-6q-84 -5 -149.5 -80.5t-90.5 -226.5q-8 -44 -8 -88zM532 1024q0 -86 32.5 -126t86.5 -40h8q63 2 115.5 64.5t71.5 179.5q6 41 6 76 q0 87 -32.5 130.5t-86.5 43.5q-68 0 -121.5 -63.5t-72.5 -190.5q-7 -51 -7 -74z" />
<glyph unicode="9" horiz-adv-x="1015" d="M109 170q7 49 66.5 81t139.5 32q0 -3 -0.5 -8.5t0 -21.5t3.5 -30t11.5 -31.5t21 -30.5t34.5 -21.5t51 -8.5q127 0 207.5 113.5t120.5 347.5q-38 -26 -80.5 -35.5t-108.5 -9.5q-171 0 -279 96.5t-108 274.5q0 50 9 102q40 220 187.5 344.5t334.5 124.5q171 0 277 -96 t106 -273q0 -57 -8 -104v-2l-58 -359q-50 -312 -213 -490.5t-405 -178.5q-75 0 -138.5 19.5t-100.5 49t-56 60.5t-14 55zM451 905q0 -109 39 -162t104 -53q78 0 142 79t93 232q0 3 2.5 8.5t2.5 8.5v2q10 65 10 108q0 110 -38.5 162.5t-103.5 52.5q-82 0 -147.5 -81.5 t-93.5 -245.5q-10 -68 -10 -111z" />
<glyph unicode=":" horiz-adv-x="360" d="M51 104q9 48 52.5 81.5t99.5 33.5t91.5 -35.5t29.5 -83.5q-8 -46 -52.5 -80t-99.5 -34q-59 0 -93 34t-28 84zM182 934q6 47 52 81t102 34q58 0 91.5 -34.5t27.5 -84.5q-8 -48 -51.5 -81.5t-100.5 -33.5q-58 0 -93.5 34.5t-27.5 84.5z" />
<glyph unicode=";" horiz-adv-x="364" d="M-23 -233q6 4 16 12.5t36.5 33.5t48.5 49.5t44.5 59.5t31.5 66q-52 6 -80.5 38t-22.5 78q9 48 52.5 81.5t99.5 33.5t91.5 -35.5t29.5 -83.5q-11 -64 -40 -122t-61.5 -95t-63 -64.5t-51.5 -39.5l-20 -12h-111zM182 934q6 47 51.5 81t102.5 34q58 0 91.5 -34.5t27.5 -84.5 q-9 -48 -52.5 -81.5t-99.5 -33.5q-59 0 -94.5 35t-26.5 84z" />
<glyph unicode="&#x3c;" horiz-adv-x="968" d="M113 414l32 207l930 438l-26 -166l-678 -377q100 -67 295 -200.5t262 -178.5l-25 -162z" />
<glyph unicode="=" horiz-adv-x="1155" d="M102 238l37 213h1002l-33 -213h-1006zM164 618l35 213h1003l-35 -213h-1003z" />
<glyph unicode="&#x3e;" horiz-adv-x="1007" d="M61 -27l25 166l678 377q-15 10 -233.5 159.5t-323.5 219.5l24 164l791 -438l-33 -207z" />
<glyph unicode="?" horiz-adv-x="927" d="M188 1268q4 29 29 64t71.5 71.5t129.5 61t186 24.5q115 0 201 -28.5t136.5 -79.5t74.5 -114.5t24 -140.5q0 -32 -8 -90q-13 -83 -61 -164t-138 -152t-204 -102l-49 -309h-261l68 436h100q63 0 114 26t84.5 69t54 93.5t28.5 106.5q8 44 8 93q0 210 -192 210 q-48 0 -88.5 -20t-63.5 -48.5t-39 -57t-22 -48.5l-6 -20q-81 0 -133.5 33.5t-43.5 85.5zM279 104q9 48 53 81.5t100 33.5t90.5 -35.5t28.5 -83.5q-8 -46 -52.5 -80t-99.5 -34q-58 0 -92 34t-28 84z" />
<glyph unicode="A" horiz-adv-x="1230" d="M-27 0l725 1335h-90l23 140h276l334 -1475h-272l-92 432h-488l-227 -432h-189zM461 573h385q-22 105 -56.5 260.5t-54.5 251.5z" />
<glyph unicode="B" horiz-adv-x="1087" d="M98 0l209 1335h-121l25 140h559q192 0 290.5 -63.5t98.5 -221.5q0 -51 -8 -100q-37 -213 -205 -312q131 -91 131 -266q0 -34 -8 -96q-40 -208 -171.5 -312t-330.5 -104h-469zM379 139h205q78 0 137.5 70t83.5 211q10 65 10 102q0 180 -137 180h-209q-17 -113 -48.5 -308 t-41.5 -255zM492 844h198q157 13 197 250q6 44 6 77q0 92 -37 128t-104 36h-183q-13 -93 -40.5 -264t-36.5 -227z" />
<glyph unicode="C" horiz-adv-x="1136" d="M168 522q0 103 18 217q36 228 125.5 394.5t235 261t334.5 94.5q125 0 231 -40.5t162 -111.5l-29 -182h-180l18 125q-59 72 -219 72q-171 0 -268.5 -157.5t-144.5 -459.5q-25 -150 -25 -260q0 -352 240 -352q181 0 258 84l-11 -8q2 16 9.5 59t9.5 61h180l-29 -184 q-78 -70 -196 -109.5t-240 -39.5q-240 0 -359.5 140.5t-119.5 395.5z" />
<glyph unicode="D" horiz-adv-x="1193" d="M90 0l207 1335h-109l23 140h549q241 0 362 -137.5t121 -389.5q0 -99 -18 -213q-55 -346 -232 -540.5t-461 -194.5h-442zM371 139h178q168 0 267 153.5t145 446.5q22 145 22 250q0 172 -57 259t-183 87h-182z" />
<glyph unicode="E" horiz-adv-x="1044" d="M90 0l209 1335h-113l25 140h973l-23 -140h-600q-13 -92 -41 -260.5t-37 -230.5h480l-23 -142h-479q-17 -113 -48.5 -308t-41.5 -255h600l-21 -139h-860z" />
<glyph unicode="F" horiz-adv-x="1032" d="M90 0l209 1335h-113l25 140h973l-23 -140h-600q-13 -92 -41 -260.5t-37 -230.5h480l-23 -142h-479l-109 -702h-262z" />
<glyph unicode="G" horiz-adv-x="1292" d="M168 522q0 103 18 217q36 228 125.5 394.5t235 261t334.5 94.5q288 0 415 -244h-239q-63 98 -193 98q-88 0 -156.5 -40.5t-117.5 -121t-82.5 -190t-56.5 -256.5q-25 -150 -25 -258q0 -170 58 -258t182 -88q142 0 222 105t130 323h-256l20 139h488l37 -16 q-62 -329 -226.5 -512.5t-433.5 -183.5q-239 0 -359 141t-120 395z" />
<glyph unicode="H" horiz-adv-x="1193" d="M100 0l209 1335h-121l25 140h379l-98 -635h456l101 635h262l-234 -1475h-260l111 698h-459l-111 -698h-260z" />
<glyph unicode="I" horiz-adv-x="456" d="M94 0l209 1335h-119l25 140h377l-232 -1475h-260z" />
<glyph unicode="J" horiz-adv-x="825" d="M4 174q3 32 38 59t85 27q27 0 45.5 -4.5t30.5 -15.5t17 -19.5t13 -25.5q13 -31 30.5 -47.5t53.5 -16.5q68 0 122 68.5t73 181.5q3 17 11 67t14 80q23 124 34 211l95 596h-121l22 140h381l-114 -740q-14 -85 -25.5 -145t-28 -130.5t-33.5 -119.5t-41 -102.5t-52 -88.5 t-65 -68.5t-81.5 -52.5t-100 -30.5t-120.5 -11.5q-141 0 -215 64q-69 58 -69 114q0 5 1 10z" />
<glyph unicode="K" horiz-adv-x="1073" d="M90 0l207 1335h-109l23 140h371l-82 -514l508 514h202l-630 -654q483 -774 512 -821h-304l-350 565q-86 -553 -88 -565h-260z" />
<glyph unicode="L" horiz-adv-x="1017" d="M96 0l209 1335h-119l25 140h379l-213 -1336h489l21 121h180l-41 -260h-930z" />
<glyph unicode="M" horiz-adv-x="1421" d="M100 0l209 1335h-121l25 140h424l145 -943q50 103 210 434t247 509h297l-233 -1475h-261l162 1036q-343 -706 -385 -796h-254l-125 768l-159 -1008h-181z" />
<glyph unicode="N" horiz-adv-x="1177" d="M92 0l209 1335h-113l23 140h283l460 -988l2 -8q101 623 160 996h180l-233 -1475h-170l-455 975h-2l-8 22l-156 -997h-180z" />
<glyph unicode="O" horiz-adv-x="1306" d="M168 518q0 104 18 221q27 171 84.5 308t143 236t204 152.5t261.5 53.5q237 0 356 -141t119 -394q0 -111 -17 -219q-38 -229 -126 -395t-233.5 -260t-334.5 -94q-237 0 -356 139.5t-119 392.5zM428 471q0 -169 55 -254.5t179 -85.5q169 0 265 153t146 455q23 161 23 260 q0 171 -56 257.5t-180 86.5q-171 0 -266.5 -153t-142.5 -455q-23 -141 -23 -264z" />
<glyph unicode="P" d="M98 0l209 1335h-121l25 140h586q84 0 151.5 -17.5t120 -54.5t81 -100.5t28.5 -151.5q0 -49 -9 -98q-73 -422 -503 -422h-207l-99 -631h-262zM479 772h205q83 0 139 65t82 220q10 54 10 112q0 91 -33.5 128.5t-103.5 37.5h-209q-17 -116 -51 -323t-39 -240z" />
<glyph unicode="Q" horiz-adv-x="1370" d="M168 518q0 104 18 221q27 171 84.5 308t143 236t204 152.5t261.5 53.5q237 0 356 -141t119 -394q0 -111 -17 -219q-44 -270 -164 -455.5t-307 -256.5q24 -109 101 -109q34 0 62.5 17.5t44 43t26.5 51t14 42.5l4 18q84 0 126 -32q34 -26 34 -67q0 -9 -2 -18 q-11 -56 -105.5 -118t-220.5 -62q-94 0 -162 53t-81 146q-20 -2 -64 -2q-237 0 -356 139.5t-119 392.5zM428 471q0 -169 55 -254.5t179 -85.5q169 0 265 153t146 455q23 161 23 260q0 171 -56 257.5t-180 86.5q-171 0 -266.5 -153t-142.5 -455q-23 -141 -23 -264z" />
<glyph unicode="R" horiz-adv-x="1116" d="M98 0l209 1335h-121l25 140h573q85 0 152.5 -17.5t120 -54.5t80.5 -100.5t28 -151.5q0 -54 -8 -98q-53 -304 -293 -389q16 -40 116 -289t150 -375h-282l-252 631h-139l-97 -631h-262zM479 772h193q83 0 139 65t82 220q10 54 10 112q0 91 -33.5 128.5t-103.5 37.5h-197 q-17 -116 -51 -323t-39 -240z" />
<glyph unicode="S" horiz-adv-x="1103" d="M86 111l31 211h180l-23 -138q128 -53 269 -53q41 0 82.5 16t82.5 48t72.5 90t44.5 133q2 15 2 29q-1 27 -7 51q-10 36 -25.5 60t-46.5 47t-55 35t-64 30q-67 27 -106.5 44.5t-106 59t-102.5 82.5q-34 42 -58 107q-16 43 -16 90q0 24 4 49q29 184 169.5 285.5t344.5 101.5 q174 0 368 -77q9 -3 13 -5l-2 2l47 -16l-37 -217h-182l20 118q-111 49 -246 49q-82 0 -147.5 -61t-87.5 -184q-2 -13 -2 -25q0 -53 36 -90q44 -45 146 -94h-2l51 -19q40 -16 65 -27t67 -32.5t69 -41t60 -50.5t52 -63t32.5 -75.5t13.5 -91.5q0 -28 -7 -75 q-33 -210 -185.5 -319t-375.5 -109q-73 0 -134 8.5t-112 27t-72.5 28t-62.5 30.5h2z" />
<glyph unicode="T" horiz-adv-x="1161" d="M170 1223l43 252h1188l-39 -252h-182l16 112h-281l-208 -1335h-263l209 1335h-284q-2 -14 -8 -55t-9 -57h-182z" />
<glyph unicode="U" horiz-adv-x="1224" d="M188 1335l25 140h379l-117 -740q-29 -182 -29 -297q0 -153 46.5 -230t152.5 -77q303 0 402 608q8 49 50.5 324t65.5 412h180l-116 -740q-28 -177 -72.5 -308.5t-114.5 -233.5t-173.5 -154.5t-239.5 -52.5q-220 0 -326 133t-106 377q0 123 20 243l94 596h-121z" />
<glyph unicode="V" horiz-adv-x="1159" d="M188 1335l25 140h342l143 -1176q86 196 259.5 587.5t259.5 588.5h186l-662 -1475h-262l-176 1335h-115z" />
<glyph unicode="W" horiz-adv-x="1630" d="M193 1335l22 140h344l141 -1176q154 346 160 360l-4 -8l-106 824h270l55 -455l201 455h186l-354 -785l4 6l49 -395q68 155 246.5 557.5t271.5 616.5h187l-660 -1475h-264l-45 344l-152 -344h-264l-176 1335h-112z" />
<glyph unicode="X" horiz-adv-x="1101" d="M16 0l535 768l-213 567h-150l23 140h356l178 -482l353 482h192l-477 -660l303 -815h-280l-220 588q-8 -11 -407 -588h-193z" />
<glyph unicode="Y" horiz-adv-x="1114" d="M188 1335l25 140h338l217 -584l406 584h190l-533 -773l7 9l-113 -711h-260l110 709l-256 626h-131z" />
<glyph unicode="Z" horiz-adv-x="1226" d="M55 0l938 1335h-450q-2 -14 -8 -55t-9 -57h-182l43 252h991l-942 -1336h568l18 113h180l-39 -252h-1108z" />
<glyph unicode="[" horiz-adv-x="575" d="M45 -281l279 1756h479l-23 -140h-219l-233 -1474h217l-21 -142h-479z" />
<glyph unicode="\" horiz-adv-x="598" d="M223 1516h189l186 -1530h-176z" />
<glyph unicode="]" horiz-adv-x="561" d="M-63 -281l24 142h217l234 1474h-219l22 140h479l-278 -1756h-479z" />
<glyph unicode="^" horiz-adv-x="1175" d="M115 776l575 740h254l342 -740h-190l-312 539l-481 -539h-188z" />
<glyph unicode="_" horiz-adv-x="1320" d="M4 -283l21 133h1194l-21 -133h-1194z" />
<glyph unicode="`" horiz-adv-x="509" d="M291 1528h256l53 -359h-168z" />
<glyph unicode="a" d="M51 340q0 80 15 174q41 256 157 390t324 134q145 0 231 -69q3 15 8 55h250l-159 -1024h-230l2 96q-103 -110 -266 -110q-172 0 -252 90t-80 264zM307 346q0 -229 139 -229q73 0 148 112.5t111 286.5l4 19q12 79 12 141q0 235 -143 235q-100 0 -163 -101.5t-96 -299.5 q-12 -73 -12 -164z" />
<glyph unicode="b" horiz-adv-x="1079" d="M100 0l217 1370h-118l18 131h371l-86 -547q103 84 270 84q165 0 240 -83.5t75 -247.5q0 -92 -18 -197q-22 -120 -57 -211.5t-89 -164t-133.5 -110.5t-181.5 -38q-184 0 -258 96q-19 -70 -22 -82h-228zM416 346q0 -233 141 -233q194 0 258 401q14 85 14 164 q0 233 -141 233q-95 0 -159.5 -101t-94.5 -280q0 -3 -2 -9t-2 -9v-2q-14 -85 -14 -164z" />
<glyph unicode="c" horiz-adv-x="968" d="M141 408q0 54 9 106q26 147 111.5 268t205 188.5t246.5 67.5q142 0 231 -63q83 -58 82 -111v-8q-9 -49 -68.5 -81t-138.5 -32q1 7 1.5 18.5t-3.5 41t-14.5 52.5t-37 41.5t-65.5 18.5q-90 0 -177.5 -118t-119.5 -287q-10 -65 -10 -117q0 -127 43.5 -203.5t114.5 -76.5 q22 0 42.5 1.5t38 4.5t32.5 6t28.5 7.5t23 8t20 8.5t15 7.5t11.5 7.5l8 4l16 16q54 0 79 -11.5t22 -31.5q-5 -26 -54 -61.5t-132 -64.5t-166 -29q-175 0 -284.5 116.5t-109.5 305.5z" />
<glyph unicode="d" horiz-adv-x="1079" d="M135 340q0 67 17 174q41 256 156.5 390t322.5 134q145 0 231 -69l66 401h-119l18 131h371l-237 -1501h-228l2 66q-107 -80 -266 -80q-334 0 -334 354zM391 346q0 -233 141 -233q195 0 259 401l4 21q12 79 12 141q0 235 -143 235q-194 0 -258 -401q-15 -91 -15 -164z" />
<glyph unicode="e" horiz-adv-x="1024" d="M141 410q0 52 9 104q42 242 181 383t347 141q179 0 268.5 -96.5t89.5 -277.5q0 -83 -14 -168h-616q-9 -83 -9 -103q0 -128 43 -204t115 -76q121 0 252 63q-4 -1 1 5l3 3q52 0 75 -10t21 -29q-3 -19 -36 -45.5t-82.5 -52t-117.5 -43.5t-132 -18q-176 0 -287 117.5 t-111 306.5zM430 627h354q2 29 2 75q0 105 -28.5 157t-95.5 52q-168 0 -232 -284z" />
<glyph unicode="f" horiz-adv-x="763" d="M29 -516l217 1409h-115l21 131h116v6q23 143 62.5 240t96 149t120.5 73t149 21q134 0 214 -47q75 -44 75 -105v-9q-9 -47 -70.5 -79t-138.5 -32q1 6 2 16t-1 36t-9.5 46t-29 36t-54.5 16q-56 0 -96.5 -87.5t-69.5 -277.5v-2h256l-20 -131h-256q-36 -226 -108.5 -698.5 t-110.5 -710.5h-250z" />
<glyph unicode="g" horiz-adv-x="1155" d="M43 -250q0 47 4 70q14 81 60.5 141t111.5 94q-62 42 -87 105q-22 53 -22 100q0 10 1 19q10 67 58.5 119t121.5 85q-25 61 -25 117q0 24 8 82q24 170 137.5 263t282.5 93q121 0 201 -47q75 47 158 47q101 0 160 -45q52 -40 52 -85q0 -7 -1 -13q-7 -49 -67 -80t-140 -31 q1 5 2 14t1.5 31.5t-2.5 40t-12.5 31.5t-25.5 14q-29 0 -41 -4q45 -68 45 -159q0 -40 -6 -74q-32 -163 -150 -258.5t-282 -95.5q-160 0 -232 69q-28 -14 -46 -39.5t-23 -50.5q-4 -26 1 -42t25.5 -30.5t66 -21t118.5 -6.5h106q205 0 309.5 -78t104.5 -229q0 -40 -6 -80 q-15 -91 -64 -159t-125 -108t-168.5 -59.5t-201.5 -19.5q-191 0 -299.5 67.5t-108.5 212.5zM281 -242q0 -170 184 -170q117 0 201 55.5t106 176.5q2 17 2 33q0 32 -10 57q-14 37 -45.5 55.5t-66.5 26.5t-77 8h-104q-55 0 -98 6q-65 -44 -86 -190q-6 -34 -6 -58zM504 596 q0 -76 25 -115t71 -39q63 0 111.5 62.5t68.5 177.5q8 44 8 86q0 152 -106 152q-71 0 -111 -59.5t-59 -182.5q-8 -41 -8 -82z" />
<glyph unicode="h" horiz-adv-x="1105" d="M100 0l217 1370h-118l18 131h371l-86 -551q101 88 270 88q165 0 238 -82t73 -245q0 -90 -18 -201l-80 -510h-250l80 514q14 85 14 164q0 233 -141 233q-95 0 -159.5 -101t-94.5 -280l-84 -530h-250z" />
<glyph unicode="i" horiz-adv-x="458" d="M94 0l142 893h-117l18 131h369l-162 -1024h-250zM299 1362q6 47 51 80t101 33q57 1 91 -33q28 -28 28 -69q0 -7 -1 -15q-9 -48 -52 -80.5t-99 -32.5q-60 0 -94 34q-27 27 -27 63q0 10 2 20z" />
<glyph unicode="j" horiz-adv-x="595" d="M-78 -401q8 39 53.5 66.5t87.5 27.5q1 -1 0 -8.5t0.5 -19.5t4 -23.5t9.5 -20t17 -8.5q16 0 32 22.5t31.5 73.5t27.5 100.5t27.5 136.5t25.5 146t26 162q2 18 8.5 51t8.5 49l86 539h-117l18 131h369l-107 -672q-19 -122 -30 -186t-30 -164.5t-34.5 -154t-39.5 -125.5 t-50.5 -109t-61 -75t-76.5 -53t-93 -15q-110 0 -155 40q-39 34 -39 76q0 6 1 13zM432 1362q6 47 50.5 80t99.5 33q58 0 92 -33q29 -30 29 -71q0 -7 -1 -13q-9 -48 -52 -80.5t-99 -32.5q-59 0 -93 34q-28 27 -28 63q0 10 2 20z" />
<glyph unicode="k" horiz-adv-x="1071" d="M100 0l217 1370h-118l18 131h371l-125 -786l420 309h223l-451 -336l426 -688h-293l-333 541l-23 -17l-82 -524h-250z" />
<glyph unicode="l" horiz-adv-x="450" d="M96 0l217 1370h-118l18 131h371l-238 -1501h-250z" />
<glyph unicode="m" horiz-adv-x="1699" d="M104 0l142 893h-119l20 131h347l-2 -68q94 82 253 82q189 0 267 -116q104 116 311 116q338 0 338 -356q0 -81 -16 -172l-78 -510h-252l80 514q14 85 14 164q0 233 -141 233q-91 0 -143 -101t-85 -300l-79 -510h-250l80 514q12 73 12 164q0 233 -139 233q-87 0 -139 -92 t-85 -272q-67 -437 -86 -547h-250z" />
<glyph unicode="n" horiz-adv-x="1105" d="M100 0l142 893h-119l18 131h348l-4 -86q109 100 287 100q165 0 238 -82t73 -245q0 -90 -18 -201l-80 -510h-250l80 514q14 85 14 164q0 233 -141 233q-95 0 -159.5 -101t-94.5 -280l-84 -530h-250z" />
<glyph unicode="o" horiz-adv-x="1052" d="M139 377q0 51 11 137q42 248 179.5 386t348.5 138q183 0 280 -101.5t97 -287.5q0 -63 -13 -139q-43 -238 -183 -381t-343 -143q-183 0 -280 102t-97 289zM391 350q0 -229 141 -229q101 0 163.5 98.5t92.5 294.5q15 91 15 164q0 114 -34 169.5t-107 55.5q-196 0 -259 -393 q-12 -91 -12 -160z" />
<glyph unicode="p" horiz-adv-x="1079" d="M16 -516l224 1409h-119l20 131h348l-2 -63q108 77 265 77q172 0 251.5 -89.5t79.5 -262.5q0 -91 -14 -176q-43 -247 -161.5 -385.5t-319.5 -138.5q-153 0 -232 67l-90 -569h-250zM416 346q0 -233 141 -233q100 0 162.5 101.5t95.5 299.5q12 92 12 164q0 233 -139 233 q-95 0 -159.5 -101t-94.5 -280q0 -3 -2 -9t-2 -9v-2q-14 -85 -14 -164z" />
<glyph unicode="q" horiz-adv-x="1130" d="M135 340q0 67 17 174q41 256 157 390t324 134q157 0 244 -84l18 70h346l-20 -131h-119q-144 -900 -223 -1409h-250l88 567q-105 -65 -248 -65q-334 0 -334 354zM391 346q0 -233 141 -233q195 0 259 401q14 85 14 164q0 233 -141 233q-194 0 -258 -401q-15 -91 -15 -164z " />
<glyph unicode="r" horiz-adv-x="829" d="M100 0l140 893h-119l20 131h348l-2 -78q99 92 244 92q119 0 186 -50q58 -43 57 -99q0 -9 -1 -19q-9 -49 -67.5 -79.5t-139.5 -30.5q1 3 1.5 8.5t1 20.5t-1 29t-7 31t-14.5 29t-26 20.5t-40 8.5q-74 0 -139 -80.5t-99 -228.5v2l-92 -600h-250z" />
<glyph unicode="s" horiz-adv-x="954" d="M88 160q0 44 62.5 74t142.5 30q0 -6 1.5 -15.5t10 -34t22 -43.5t42 -34.5t65.5 -15.5q42 0 75.5 5.5t66 20.5t54 45.5t27.5 75.5q4 26 0.5 48t-18 38.5t-27 27.5t-38 22.5t-38 16t-40.5 13.5q-41 15 -79 33t-84 50t-77.5 67.5t-50.5 86.5q-14 37 -14 77q0 15 2 30 q24 122 143 191t287 69q137 0 233 -53t96 -121q0 -44 -62 -74t-142 -30q0 6 -1.5 15.5t-10 34t-21.5 43.5t-41.5 34.5t-65.5 15.5q-71 0 -114 -34.5t-52 -94.5v-9q0 -35 22 -61q25 -28 89 -57l-4 2l53 -20q54 -18 86 -31t85.5 -44.5t81.5 -66.5q27 -35 45 -93q11 -36 11 -77 q0 -26 -4 -53q-10 -62 -41.5 -110t-76.5 -79t-105.5 -51.5t-125.5 -29t-140 -8.5q-137 0 -233.5 53t-96.5 121z" />
<glyph unicode="t" horiz-adv-x="745" d="M195 893l20 131h135l25 158l272 145l-47 -303h244l-21 -131h-243l-91 -561q-10 -82 -10 -123q0 -54 8 -75t27 -21q52 0 88 63q52 0 75.5 -13t20.5 -36q-8 -48 -74 -94.5t-175 -46.5q-114 0 -167 55.5t-53 167.5q0 48 11 127l90 557h-135z" />
<glyph unicode="u" horiz-adv-x="1075" d="M123 893l20 131h361l-82 -514q-14 -85 -14 -170q0 -227 137 -227q88 0 144.5 92.5t90.5 269.5l86 549h250l-160 -1024h-227l2 76q-104 -90 -268 -90q-165 0 -237 81t-72 242q0 91 18 205l61 379h-110z" />
<glyph unicode="v" d="M123 893l20 131h336l129 -754q55 111 182.5 365.5t192.5 388.5h180l-518 -1024h-233l-168 893h-121z" />
<glyph unicode="w" horiz-adv-x="1390" d="M127 893l18 131h328l129 -756l109 213l-103 543h258l39 -223l111 223h180l-248 -485q7 -44 14.5 -91.5t14 -87t16.5 -92.5q315 631 377 756h180l-516 -1024h-235l-43 225l-115 -225h-235l-166 893h-113z" />
<glyph unicode="x" horiz-adv-x="815" d="M18 0l367 532l-133 361h-131l20 131h310l104 -289l199 289h166l-308 -446l217 -578h-245l-140 375q-51 -74 -149 -218t-107 -157h-170z" />
<glyph unicode="y" horiz-adv-x="913" d="M-55 -389q6 33 41.5 55.5t93.5 22.5q1 -1 0 -9.5t2 -22.5t7 -27.5t15.5 -23t28.5 -9.5q34 0 79.5 63t109.5 188v-2q14 29 43.5 90t44.5 91l-4 -9q-26 148 -82 438t-82 437h-121l20 131h336l103 -653l323 653h180l-600 -1190q-57 -112 -96.5 -176.5t-83 -110t-88 -61.5 t-106.5 -16q-90 0 -131 44q-35 36 -35 78q0 10 2 19z" />
<glyph unicode="z" horiz-adv-x="1032" d="M70 0l637 893h-265l-20 -119h-172l41 250h782l-639 -893h314l20 119h170l-39 -250h-829z" />
<glyph unicode="&#xa1;" horiz-adv-x="401" d="M225 838q-6 50 28 84t93 34q55 0 99.5 -34t52.5 -80q6 -48 -29.5 -83.5t-91.5 -35.5t-99.5 33.5t-52.5 81.5zM307 633h180l228 -1165h-264z" />
<glyph unicode="&#xa8;" horiz-adv-x="692" d="M264 1374q6 47 51.5 81t102.5 34q58 0 91.5 -34.5t27.5 -84.5q-9 -48 -52.5 -81.5t-99.5 -33.5q-59 0 -94.5 35t-26.5 84zM582 1374q6 47 50.5 81t100.5 34q58 0 92.5 -34.5t28.5 -84.5q-9 -48 -52.5 -81.5t-101.5 -33.5t-92.5 34.5t-25.5 84.5z" />
<glyph unicode="&#xad;" horiz-adv-x="798" d="M129 459l33 213h674l-33 -213h-674z" />
<glyph unicode="&#xb4;" horiz-adv-x="495" d="M240 1169l166 359h256l-254 -359h-168z" />
<glyph unicode="&#xb8;" horiz-adv-x="446" d="M-55 -322q2 18 20 29.5t49 11.5l35 -16q0 -2 0.5 -6t6.5 -10t18 -6q20 0 50 23.5t54 68.5v-2q15 30 17 55q0 16 2 18q-16 0 -39 -14l8 2l-10 -8h-152l139 235h170l-75 -129q12 2 32 2q62 0 91.5 -27.5t23.5 -72.5q0 -2 -1 -5.5t-1 -4.5q-2 -24 -16 -55 q-49 -83 -132.5 -124.5t-168.5 -41.5q-62 0 -94 24.5t-27 52.5z" />
<glyph unicode="&#xbf;" horiz-adv-x="960" d="M57 -184q0 25 9 90q13 83 61 164t138 152t204 102l49 309h260l-67 -436h-101q-63 0 -114 -26t-84 -69.5t-53.5 -93.5t-28.5 -106q-8 -44 -8 -92q0 -211 192 -211q48 0 88.5 20t63.5 48.5t39 57t22 48.5l6 20q81 0 133 -33t43 -86q-4 -29 -29 -64t-71 -71.5t-129 -61 t-186 -24.5q-115 0 -201.5 28.5t-136.5 79.5t-74.5 114.5t-24.5 140.5zM547 842q8 46 52 80t99 34q58 0 92.5 -34t28.5 -84q-9 -48 -53 -81.5t-100 -33.5t-90.5 35.5t-28.5 83.5z" />
<glyph unicode="&#xc0;" horiz-adv-x="1230" d="M-27 0l725 1335h-90l23 140h276l334 -1475h-272l-92 432h-488l-227 -432h-189zM461 573h385q-22 105 -56.5 260.5t-54.5 251.5zM602 1978h256l53 -358h-168z" />
<glyph unicode="&#xc1;" horiz-adv-x="1230" d="M-27 0l725 1335h-90l23 140h276l334 -1475h-272l-92 432h-488l-227 -432h-189zM461 573h385q-22 105 -56.5 260.5t-54.5 251.5zM733 1620l166 358h256l-254 -358h-168z" />
<glyph unicode="&#xc2;" horiz-adv-x="1230" d="M-27 0l725 1335h-90l23 140h276l334 -1475h-272l-92 432h-488l-227 -432h-189zM461 573h385q-22 105 -56.5 260.5t-54.5 251.5zM483 1620l299 358h211l185 -358h-189l-125 199l-188 -199h-193z" />
<glyph unicode="&#xc3;" horiz-adv-x="1230" d="M-27 0l725 1335h-90l23 140h276l334 -1475h-272l-92 432h-488l-227 -432h-189zM461 573h385q-22 105 -56.5 260.5t-54.5 251.5zM473 1667q16 110 79 184t165 74q49 0 93 -15.5t65.5 -30t56.5 -42.5q69 -55 98 -55q26 0 46 36.5t28 86.5h133q-19 -111 -80 -184.5 t-162 -73.5q-49 0 -94 15.5t-66.5 30t-58.5 42.5q-56 45 -77 52q-11 3 -21 3q-26 0 -45.5 -37t-26.5 -86h-133z" />
<glyph unicode="&#xc4;" horiz-adv-x="1230" d="M-27 0l725 1335h-90l23 140h276l334 -1475h-272l-92 432h-488l-227 -432h-189zM461 573h385q-22 105 -56.5 260.5t-54.5 251.5zM573 1825q6 47 51.5 80.5t102.5 33.5q58 0 91.5 -34t27.5 -84q-9 -48 -52.5 -81.5t-99.5 -33.5q-59 0 -94.5 35t-26.5 84zM891 1825 q6 47 50.5 80.5t100.5 33.5q58 0 92.5 -34t28.5 -84q-9 -48 -52.5 -81.5t-100.5 -33.5q-58 0 -93 35t-26 84z" />
<glyph unicode="&#xc7;" horiz-adv-x="1110" d="M168 522q0 103 18 217q36 228 125.5 394.5t235 261t334.5 94.5q125 0 231 -40.5t162 -111.5l-29 -182h-180l18 125q-59 72 -219 72q-171 0 -268.5 -157.5t-144.5 -459.5q-25 -150 -25 -260q0 -352 240 -352q181 0 258 84l-11 -8q2 16 9.5 59t9.5 61h180l-29 -184 q-78 -70 -196 -109.5t-240 -39.5q-240 0 -359.5 140.5t-119.5 395.5zM338 -322q2 18 20.5 29.5t49.5 11.5l34 -16q0 -2 0.5 -6t6.5 -10t18 -6q20 0 50 23.5t54 68.5v-2q15 30 17 55q0 16 2 18q-16 0 -39 -14l8 2l-10 -8h-152l140 235h170l-76 -129q12 2 33 2q62 0 91 -27.5 t23 -72.5q0 -2 -1 -5.5t-1 -4.5q-2 -24 -16 -55q-49 -83 -132.5 -124.5t-168.5 -41.5q-62 0 -94 24.5t-27 52.5z" />
<glyph unicode="&#xc8;" horiz-adv-x="1091" d="M90 0l209 1335h-113l25 140h973l-23 -140h-600q-13 -92 -41 -260.5t-37 -230.5h480l-23 -142h-479q-17 -113 -48.5 -308t-41.5 -255h600l-21 -139h-860zM541 1978h256l53 -358h-168z" />
<glyph unicode="&#xc9;" horiz-adv-x="1091" d="M90 0l209 1335h-113l25 140h973l-23 -140h-600q-13 -92 -41 -260.5t-37 -230.5h480l-23 -142h-479q-17 -113 -48.5 -308t-41.5 -255h600l-21 -139h-860zM653 1620l166 358h256l-254 -358h-168z" />
<glyph unicode="&#xca;" horiz-adv-x="1091" d="M90 0l209 1335h-113l25 140h973l-23 -140h-600q-13 -92 -41 -260.5t-37 -230.5h480l-23 -142h-479q-17 -113 -48.5 -308t-41.5 -255h600l-21 -139h-860zM381 1620l299 358h211l184 -358h-188l-125 199l-189 -199h-192z" />
<glyph unicode="&#xcb;" horiz-adv-x="1091" d="M90 0l209 1335h-113l25 140h973l-23 -140h-600q-13 -92 -41 -260.5t-37 -230.5h480l-23 -142h-479q-17 -113 -48.5 -308t-41.5 -255h600l-21 -139h-860zM463 1825q6 47 51 80.5t102 33.5q58 0 91.5 -34t27.5 -84q-9 -48 -52 -81.5t-99 -33.5q-59 0 -94.5 35t-26.5 84z M780 1825q6 47 51 80.5t101 33.5q58 0 92.5 -34t28.5 -84q-9 -48 -52.5 -81.5t-101.5 -33.5q-59 0 -93.5 34.5t-25.5 84.5z" />
<glyph unicode="&#xcc;" horiz-adv-x="456" d="M94 0l209 1335h-119l25 140h377l-232 -1475h-260zM297 1978h256l53 -358h-168z" />
<glyph unicode="&#xcd;" horiz-adv-x="464" d="M94 0l209 1335h-119l25 140h377l-232 -1475h-260zM311 1620l166 358h256l-254 -358h-168z" />
<glyph unicode="&#xce;" horiz-adv-x="645" d="M207 0l209 1335h-119l25 140h376l-231 -1475h-260zM219 1620l299 358h211l184 -358h-188l-125 199l-188 -199h-193z" />
<glyph unicode="&#xcf;" horiz-adv-x="555" d="M188 0l209 1335h-118l24 140h377l-231 -1475h-261zM264 1825q6 47 51.5 80.5t102.5 33.5q58 0 91.5 -34t27.5 -84q-9 -48 -52.5 -81.5t-99.5 -33.5q-59 0 -94.5 35t-26.5 84zM582 1825q6 47 50.5 80.5t100.5 33.5q58 0 92.5 -34t28.5 -84q-9 -48 -52.5 -81.5 t-101.5 -33.5t-92.5 34.5t-25.5 84.5z" />
<glyph unicode="&#xd1;" horiz-adv-x="1177" d="M92 0l209 1335h-113l23 140h283l460 -988l2 -8q101 623 160 996h180l-233 -1475h-170l-455 975h-2l-8 22l-156 -997h-180zM459 1667q16 110 78.5 184t164.5 74q38 0 70 -7t60 -22.5t44 -26.5t42 -32q69 -55 98 -55q26 0 46 36.5t28 86.5h133q-19 -111 -80 -184.5 t-162 -73.5q-49 0 -94 15.5t-66.5 30t-58.5 42.5q-56 45 -77 52q-11 3 -21 3q-26 0 -45.5 -37t-26.5 -86h-133z" />
<glyph unicode="&#xd2;" horiz-adv-x="1306" d="M168 518q0 104 18 221q27 171 84.5 308t143 236t204 152.5t261.5 53.5q237 0 356 -141t119 -394q0 -111 -17 -219q-38 -229 -126 -395t-233.5 -260t-334.5 -94q-237 0 -356 139.5t-119 392.5zM428 471q0 -169 55 -254.5t179 -85.5q169 0 265 153t146 455q23 161 23 260 q0 171 -56 257.5t-180 86.5q-171 0 -266.5 -153t-142.5 -455q-23 -141 -23 -264zM702 1978h256l54 -358h-168z" />
<glyph unicode="&#xd3;" horiz-adv-x="1306" d="M168 518q0 104 18 221q27 171 84.5 308t143 236t204 152.5t261.5 53.5q237 0 356 -141t119 -394q0 -111 -17 -219q-38 -229 -126 -395t-233.5 -260t-334.5 -94q-237 0 -356 139.5t-119 392.5zM428 471q0 -169 55 -254.5t179 -85.5q169 0 265 153t146 455q23 161 23 260 q0 171 -56 257.5t-180 86.5q-171 0 -266.5 -153t-142.5 -455q-23 -141 -23 -264zM821 1620l166 358h256l-254 -358h-168z" />
<glyph unicode="&#xd4;" horiz-adv-x="1306" d="M168 518q0 104 18 221q27 171 84.5 308t143 236t204 152.5t261.5 53.5q237 0 356 -141t119 -394q0 -111 -17 -219q-38 -229 -126 -395t-233.5 -260t-334.5 -94q-237 0 -356 139.5t-119 392.5zM428 471q0 -169 55 -254.5t179 -85.5q169 0 265 153t146 455q23 161 23 260 q0 171 -56 257.5t-180 86.5q-171 0 -266.5 -153t-142.5 -455q-23 -141 -23 -264zM528 1620l299 358h211l185 -358h-189l-125 199l-188 -199h-193z" />
<glyph unicode="&#xd5;" horiz-adv-x="1306" d="M168 518q0 104 18 221q27 171 84.5 308t143 236t204 152.5t261.5 53.5q237 0 356 -141t119 -394q0 -111 -17 -219q-38 -229 -126 -395t-233.5 -260t-334.5 -94q-237 0 -356 139.5t-119 392.5zM428 471q0 -169 55 -254.5t179 -85.5q169 0 265 153t146 455q23 161 23 260 q0 171 -56 257.5t-180 86.5q-171 0 -266.5 -153t-142.5 -455q-23 -141 -23 -264zM541 1667q16 110 78.5 184t164.5 74q49 0 93 -15.5t65.5 -30t56.5 -42.5q69 -55 99 -55q26 0 45.5 36t27.5 87h134q-19 -111 -80 -184.5t-162 -73.5q-49 0 -94 15.5t-66.5 30t-58.5 42.5 q-26 21 -37.5 29.5t-29 17t-32.5 8.5q-26 0 -45 -37t-26 -86h-133z" />
<glyph unicode="&#xd6;" horiz-adv-x="1306" d="M168 518q0 104 18 221q27 171 84.5 308t143 236t204 152.5t261.5 53.5q237 0 356 -141t119 -394q0 -111 -17 -219q-38 -229 -126 -395t-233.5 -260t-334.5 -94q-237 0 -356 139.5t-119 392.5zM428 471q0 -169 55 -254.5t179 -85.5q169 0 265 153t146 455q23 161 23 260 q0 171 -56 257.5t-180 86.5q-171 0 -266.5 -153t-142.5 -455q-23 -141 -23 -264zM631 1825q6 47 51 80.5t102 33.5q58 0 91.5 -34t27.5 -84q-9 -48 -52 -81.5t-99 -33.5q-59 0 -94.5 35t-26.5 84zM948 1825q6 47 51 80.5t101 33.5q58 0 92.5 -34t28.5 -84 q-9 -48 -52.5 -81.5t-101.5 -33.5q-59 0 -93.5 35t-25.5 84z" />
<glyph unicode="&#xd9;" horiz-adv-x="1224" d="M188 1335l25 140h379l-117 -740q-29 -182 -29 -297q0 -153 46.5 -230t152.5 -77q303 0 402 608q8 49 50.5 324t65.5 412h180l-116 -740q-28 -177 -72.5 -308.5t-114.5 -233.5t-173.5 -154.5t-239.5 -52.5q-220 0 -326 133t-106 377q0 123 20 243l94 596h-121zM709 1978 h256l53 -358h-168z" />
<glyph unicode="&#xda;" horiz-adv-x="1224" d="M188 1335l25 140h379l-117 -740q-29 -182 -29 -297q0 -153 46.5 -230t152.5 -77q303 0 402 608q8 49 50.5 324t65.5 412h180l-116 -740q-28 -177 -72.5 -308.5t-114.5 -233.5t-173.5 -154.5t-239.5 -52.5q-220 0 -326 133t-106 377q0 123 20 243l94 596h-121zM805 1620 l166 358h256l-254 -358h-168z" />
<glyph unicode="&#xdb;" horiz-adv-x="1224" d="M188 1335l25 140h379l-117 -740q-29 -182 -29 -297q0 -153 46.5 -230t152.5 -77q303 0 402 608q8 49 50.5 324t65.5 412h180l-116 -740q-28 -177 -72.5 -308.5t-114.5 -233.5t-173.5 -154.5t-239.5 -52.5q-220 0 -326 133t-106 377q0 123 20 243l94 596h-121zM543 1620 l299 358h211l184 -358h-188l-125 199l-189 -199h-192z" />
<glyph unicode="&#xdc;" horiz-adv-x="1224" d="M188 1335l25 140h379l-117 -740q-29 -182 -29 -297q0 -153 46.5 -230t152.5 -77q303 0 402 608q8 49 50.5 324t65.5 412h180l-116 -740q-28 -177 -72.5 -308.5t-114.5 -233.5t-173.5 -154.5t-239.5 -52.5q-220 0 -326 133t-106 377q0 123 20 243l94 596h-121zM629 1825 q6 47 51 80.5t102 33.5q58 0 91.5 -34t27.5 -84q-9 -48 -52 -81.5t-99 -33.5q-59 0 -94.5 35t-26.5 84zM946 1825q6 47 51 80.5t101 33.5q58 0 92.5 -34t28.5 -84q-9 -48 -52.5 -81.5t-101.5 -33.5q-59 0 -93.5 35t-25.5 84z" />
<glyph unicode="&#xdd;" horiz-adv-x="1114" d="M188 1335l25 140h338l217 -584l406 584h190l-533 -773l7 9l-113 -711h-260l110 709l-256 626h-131zM795 1620l166 358h256l-254 -358h-168z" />
<glyph unicode="&#xe0;" d="M51 340q0 80 15 174q41 256 157 390t324 134q145 0 231 -69q3 15 8 55h250l-159 -1024h-230l2 96q-103 -110 -266 -110q-172 0 -252 90t-80 264zM307 346q0 -229 139 -229q73 0 148 112.5t111 286.5l4 19q12 79 12 141q0 235 -143 235q-100 0 -163 -101.5t-96 -299.5 q-12 -73 -12 -164zM479 1528h256l53 -359h-167z" />
<glyph unicode="&#xe1;" d="M51 340q0 80 15 174q41 256 157 390t324 134q145 0 231 -69q3 15 8 55h250l-159 -1024h-230l2 96q-103 -110 -266 -110q-172 0 -252 90t-80 264zM307 346q0 -229 139 -229q73 0 148 112.5t111 286.5l4 19q12 79 12 141q0 235 -143 235q-100 0 -163 -101.5t-96 -299.5 q-12 -73 -12 -164zM561 1169l166 359h256l-254 -359h-168z" />
<glyph unicode="&#xe2;" d="M51 340q0 80 15 174q41 256 157 390t324 134q145 0 231 -69q3 15 8 55h250l-159 -1024h-230l2 96q-103 -110 -266 -110q-172 0 -252 90t-80 264zM307 346q0 -229 139 -229q73 0 148 112.5t111 286.5l4 19q12 79 12 141q0 235 -143 235q-100 0 -163 -101.5t-96 -299.5 q-12 -73 -12 -164zM346 1169l299 359h211l184 -359h-188l-125 199l-188 -199h-193z" />
<glyph unicode="&#xe3;" d="M51 340q0 80 15 174q41 256 157 390t324 134q145 0 231 -69q3 15 8 55h250l-159 -1024h-230l2 96q-103 -110 -266 -110q-172 0 -252 90t-80 264zM307 346q0 -229 139 -229q73 0 148 112.5t111 286.5l4 19q12 79 12 141q0 235 -143 235q-100 0 -163 -101.5t-96 -299.5 q-12 -73 -12 -164zM322 1217q16 110 78.5 184t164.5 74q38 0 69.5 -7t60 -23t43.5 -26.5t42 -32.5q69 -55 99 -55q26 0 45.5 36t27.5 87h133q-19 -111 -80 -184.5t-161 -73.5q-49 0 -94 15.5t-66.5 30t-58.5 42.5q-26 21 -37.5 29.5t-29 17t-32.5 8.5q-26 0 -45 -36.5 t-26 -85.5h-133z" />
<glyph unicode="&#xe4;" d="M51 340q0 80 15 174q41 256 157 390t324 134q145 0 231 -69q3 15 8 55h250l-159 -1024h-230l2 96q-103 -110 -266 -110q-172 0 -252 90t-80 264zM307 346q0 -229 139 -229q73 0 148 112.5t111 286.5l4 19q12 79 12 141q0 235 -143 235q-100 0 -163 -101.5t-96 -299.5 q-12 -73 -12 -164zM391 1374q6 47 51.5 81t102.5 34q58 0 91.5 -34.5t27.5 -84.5q-9 -48 -52.5 -81.5t-99.5 -33.5q-59 0 -94.5 35t-26.5 84zM709 1374q6 47 50.5 81t100.5 34q58 0 92.5 -34.5t28.5 -84.5q-9 -48 -52.5 -81.5t-101.5 -33.5t-92.5 34.5t-25.5 84.5z" />
<glyph unicode="&#xe7;" horiz-adv-x="974" d="M141 408q0 54 9 106q26 147 111.5 268t205 188.5t246.5 67.5q142 0 231 -63t82 -119q-9 -49 -68.5 -81t-138.5 -32q1 7 1.5 18.5t-3.5 41t-14.5 52.5t-37 41.5t-65.5 18.5q-90 0 -177.5 -118t-119.5 -287q-10 -65 -10 -117q0 -127 43.5 -203.5t114.5 -76.5q22 0 42.5 1.5 t38 4.5t32.5 6t28.5 7.5t23 8t20 8.5t15 7.5t11.5 7.5l8 4l16 16q54 0 79 -11.5t22 -31.5q-5 -26 -54 -61.5t-132 -64.5t-166 -29q-175 0 -284.5 116.5t-109.5 305.5zM203 -322q2 18 20 29.5t49 11.5l35 -16q0 -2 0.5 -6t6.5 -10t18 -6q20 0 50 23.5t54 68.5v-2q15 30 17 55 q0 16 2 18q-16 0 -39 -14l8 2l-10 -8h-152l139 235h170l-75 -129q12 2 32 2q62 0 91.5 -27.5t23.5 -72.5q0 -2 -1 -5.5t-1 -4.5q-2 -24 -16 -55q-49 -83 -132.5 -124.5t-168.5 -41.5q-62 0 -94 24.5t-27 52.5z" />
<glyph unicode="&#xe8;" horiz-adv-x="1032" d="M141 410q0 -189 111 -306.5t287 -117.5q64 0 132 18t117.5 43.5t82.5 52t36 45.5q2 19 -21 29t-75 10q-3 -3 -4.5 -5t0.5 -3q-131 -63 -252 -63q-72 0 -115 76t-43 204q0 20 9 103h616q14 85 14 168q0 181 -89.5 277.5t-268.5 96.5q-208 0 -347 -141t-181 -383 q-9 -52 -9 -104zM430 627q64 284 232 284q67 0 95.5 -52t28.5 -157q0 -46 -2 -75h-354zM510 1528h256l53 -359h-168z" />
<glyph unicode="&#xe9;" horiz-adv-x="1032" d="M141 410q0 -189 111 -306.5t287 -117.5q64 0 132 18t117.5 43.5t82.5 52t36 45.5q2 19 -21 29t-75 10q-3 -3 -4.5 -5t0.5 -3q-131 -63 -252 -63q-72 0 -115 76t-43 204q0 20 9 103h616q14 85 14 168q0 181 -89.5 277.5t-268.5 96.5q-208 0 -347 -141t-181 -383 q-9 -52 -9 -104zM430 627q64 284 232 284q67 0 95.5 -52t28.5 -157q0 -46 -2 -75h-354zM602 1169l166 359h256l-254 -359h-168z" />
<glyph unicode="&#xea;" horiz-adv-x="1032" d="M141 410q0 -189 111 -306.5t287 -117.5q64 0 132 18t117.5 43.5t82.5 52t36 45.5q2 19 -21 29t-75 10q-3 -3 -4.5 -5t0.5 -3q-131 -63 -252 -63q-72 0 -115 76t-43 204q0 20 9 103h616q14 85 14 168q0 181 -89.5 277.5t-268.5 96.5q-208 0 -347 -141t-181 -383 q-9 -52 -9 -104zM340 1169l299 359h211l184 -359h-188l-125 199l-189 -199h-192zM430 627q64 284 232 284q67 0 95.5 -52t28.5 -157q0 -46 -2 -75h-354z" />
<glyph unicode="&#xeb;" horiz-adv-x="1032" d="M141 410q0 -189 111 -306.5t287 -117.5q64 0 132 18t117.5 43.5t82.5 52t36 45.5q2 19 -21 29t-75 10q-3 -3 -4.5 -5t0.5 -3q-131 -63 -252 -63q-72 0 -115 76t-43 204q0 20 9 103h616q14 85 14 168q0 181 -89.5 277.5t-268.5 96.5q-208 0 -347 -141t-181 -383 q-9 -52 -9 -104zM422 1374q6 47 51 81t102 34q58 0 91.5 -34.5t27.5 -84.5q-9 -48 -52 -81.5t-99 -33.5q-59 0 -94.5 35t-26.5 84zM430 627q64 284 232 284q67 0 95.5 -52t28.5 -157q0 -46 -2 -75h-354zM739 1374q6 47 51 81t101 34q58 0 92.5 -34.5t28.5 -84.5 q-9 -48 -52.5 -81.5t-101.5 -33.5t-93 34.5t-26 84.5z" />
<glyph unicode="&#xec;" horiz-adv-x="448" d="M94 0l142 893h-117l18 131h367l-160 -1024h-250zM219 1544h256l53 -358h-168z" />
<glyph unicode="&#xed;" horiz-adv-x="452" d="M94 0l142 893h-117l20 131h367l-160 -1024h-252zM252 1186l166 358h256l-254 -358h-168z" />
<glyph unicode="&#xee;" horiz-adv-x="636" d="M158 1186l299 358h211l184 -358h-188l-125 198l-189 -198h-192zM201 0l141 893h-119l21 131h366l-159 -1024h-250z" />
<glyph unicode="&#xef;" horiz-adv-x="552" d="M186 0l142 893h-119l20 131h367l-160 -1024h-250zM203 1391q6 47 51 80.5t102 33.5q58 0 91.5 -34.5t27.5 -84.5q-9 -48 -52 -81t-99 -33q-59 0 -94.5 35t-26.5 84zM520 1391q6 47 51 80.5t101 33.5q58 0 92.5 -34.5t28.5 -84.5q-9 -48 -52.5 -81t-101.5 -33 q-59 0 -93.5 35t-25.5 84z" />
<glyph unicode="&#xf1;" horiz-adv-x="1105" d="M100 0l142 893h-119l18 131h348l-4 -86q109 100 287 100q165 0 238 -82t73 -245q0 -90 -18 -201l-80 -510h-250l80 514q14 85 14 164q0 233 -141 233q-95 0 -159.5 -101t-94.5 -280l-84 -530h-250zM356 1217q16 110 79 184t165 74q38 0 69.5 -7t60 -23t43.5 -26.5 t42 -32.5q69 -55 98 -55q26 0 46 36.5t28 86.5h133q-19 -111 -80 -184.5t-161 -73.5q-49 0 -94 15.5t-67.5 30t-58.5 42.5q-56 45 -77 52q-11 3 -21 3q-26 0 -45.5 -37t-26.5 -85h-133z" />
<glyph unicode="&#xf2;" horiz-adv-x="1052" d="M139 377q0 51 11 137q42 248 179.5 386t348.5 138q183 0 280 -101.5t97 -287.5q0 -63 -13 -139q-43 -238 -183 -381t-343 -143q-183 0 -280 102t-97 289zM391 350q0 -229 141 -229q101 0 163.5 98.5t92.5 294.5q15 91 15 164q0 114 -34 169.5t-107 55.5q-196 0 -259 -393 q-12 -91 -12 -160zM489 1528h256l54 -359h-168z" />
<glyph unicode="&#xf3;" horiz-adv-x="1052" d="M139 377q0 51 11 137q42 248 179.5 386t348.5 138q183 0 280 -101.5t97 -287.5q0 -63 -13 -139q-43 -238 -183 -381t-343 -143q-183 0 -280 102t-97 289zM391 350q0 -229 141 -229q101 0 163.5 98.5t92.5 294.5q15 91 15 164q0 114 -34 169.5t-107 55.5q-196 0 -259 -393 q-12 -91 -12 -160zM596 1169l166 359h256l-254 -359h-168z" />
<glyph unicode="&#xf4;" horiz-adv-x="1052" d="M139 377q0 51 11 137q42 248 179.5 386t348.5 138q183 0 280 -101.5t97 -287.5q0 -63 -13 -139q-43 -238 -183 -381t-343 -143q-183 0 -280 102t-97 289zM362 1169l300 359h210l185 -359h-189l-125 199l-188 -199h-193zM391 350q0 -229 141 -229q101 0 163.5 98.5 t92.5 294.5q15 91 15 164q0 114 -34 169.5t-107 55.5q-196 0 -259 -393q-12 -91 -12 -160z" />
<glyph unicode="&#xf5;" horiz-adv-x="1052" d="M139 377q0 51 11 137q42 248 179.5 386t348.5 138q183 0 280 -101.5t97 -287.5q0 -63 -13 -139q-43 -238 -183 -381t-343 -143q-183 0 -280 102t-97 289zM338 1217q16 110 79 184t165 74q38 0 69.5 -7t60 -23t43.5 -26.5t42 -32.5q69 -55 98 -55q26 0 46 36.5t28 86.5 h133q-19 -111 -80 -184.5t-162 -73.5q-49 0 -94 15.5t-66.5 30t-58.5 42.5q-56 45 -77 52q-11 3 -21 3q-26 0 -45.5 -37t-26.5 -85h-133zM391 350q0 -229 141 -229q101 0 163.5 98.5t92.5 294.5q15 91 15 164q0 114 -34 169.5t-107 55.5q-196 0 -259 -393q-12 -91 -12 -160z " />
<glyph unicode="&#xf6;" horiz-adv-x="1052" d="M139 377q0 51 11 137q42 248 179.5 386t348.5 138q183 0 280 -101.5t97 -287.5q0 -63 -13 -139q-43 -238 -183 -381t-343 -143q-183 0 -280 102t-97 289zM391 350q0 -229 141 -229q101 0 163.5 98.5t92.5 294.5q15 91 15 164q0 114 -34 169.5t-107 55.5q-196 0 -259 -393 q-12 -91 -12 -160zM442 1374q6 47 51.5 81t102.5 34q58 0 91.5 -34.5t27.5 -84.5q-9 -48 -52.5 -81.5t-99.5 -33.5q-59 0 -94.5 35t-26.5 84zM760 1374q6 47 50.5 81t100.5 34q58 0 92.5 -34.5t28.5 -84.5q-9 -48 -52.5 -81.5t-100.5 -33.5q-59 0 -93.5 34.5t-25.5 84.5z " />
<glyph unicode="&#xf7;" horiz-adv-x="1146" d="M143 479l21 131h993l-20 -131h-994zM467 104q9 48 52 81.5t99 33.5t91.5 -35.5t29.5 -83.5q-8 -46 -52 -80t-99 -34q-59 0 -93 34t-28 84zM598 934q6 47 52 81t102 34q58 0 91 -34.5t27 -84.5q-8 -48 -51.5 -81.5t-99.5 -33.5q-58 0 -93.5 34.5t-27.5 84.5z" />
<glyph unicode="&#xf9;" horiz-adv-x="1075" d="M123 893l20 131h361l-82 -514q-14 -85 -14 -170q0 -227 137 -227q88 0 144.5 92.5t90.5 269.5l86 549h250l-160 -1024h-227l2 76q-104 -90 -268 -90q-165 0 -237 81t-72 242q0 91 18 205l61 379h-110zM479 1528h256l53 -359h-167z" />
<glyph unicode="&#xfa;" horiz-adv-x="1075" d="M123 893l20 131h361l-82 -514q-14 -85 -14 -170q0 -227 137 -227q88 0 144.5 92.5t90.5 269.5l86 549h250l-160 -1024h-227l2 76q-104 -90 -268 -90q-165 0 -237 81t-72 242q0 91 18 205l61 379h-110zM602 1169l166 359h256l-254 -359h-168z" />
<glyph unicode="&#xfb;" horiz-adv-x="1075" d="M123 893l20 131h361l-82 -514q-14 -85 -14 -170q0 -227 137 -227q88 0 144.5 92.5t90.5 269.5l86 549h250l-160 -1024h-227l2 76q-104 -90 -268 -90q-165 0 -237 81t-72 242q0 91 18 205l61 379h-110zM340 1169l299 359h211l184 -359h-188l-125 199l-189 -199h-192z" />
<glyph unicode="&#xfc;" horiz-adv-x="1075" d="M123 893l20 131h361l-82 -514q-14 -85 -14 -170q0 -227 137 -227q88 0 144.5 92.5t90.5 269.5l86 549h250l-160 -1024h-227l2 76q-104 -90 -268 -90q-165 0 -237 81t-72 242q0 91 18 205l61 379h-110zM422 1374q6 47 51 81t102 34q58 0 91.5 -34.5t27.5 -84.5 q-9 -48 -52 -81.5t-99 -33.5q-59 0 -94.5 35t-26.5 84zM739 1374q6 47 51 81t101 34q58 0 92.5 -34.5t28.5 -84.5q-9 -48 -52.5 -81.5t-101.5 -33.5t-93 34.5t-26 84.5z" />
<glyph unicode="&#xfd;" horiz-adv-x="913" d="M-55 -389q6 33 41.5 55.5t93.5 22.5q1 -1 0 -9.5t2 -22.5t7 -27.5t15.5 -23t28.5 -9.5q34 0 79.5 63t109.5 188v-2q14 29 43.5 90t44.5 91l-4 -9q-26 148 -82 438t-82 437h-121l20 131h336l103 -653l323 653h180l-600 -1190q-57 -112 -96.5 -176.5t-83 -110t-88 -61.5 t-106.5 -16q-90 0 -131.5 44t-32.5 97zM590 1169l166 359h256l-254 -359h-168z" />
<glyph unicode="&#xff;" horiz-adv-x="913" d="M-55 -389q6 33 41.5 55.5t93.5 22.5q1 -1 0 -9.5t2 -22.5t7 -27.5t15.5 -23t28.5 -9.5q34 0 79.5 63t109.5 188v-2q14 29 43.5 90t44.5 91l-4 -9q-26 148 -82 438t-82 437h-121l20 131h336l103 -653l323 653h180l-600 -1190q-57 -112 -96.5 -176.5t-83 -110t-88 -61.5 t-106.5 -16q-90 0 -131.5 44t-32.5 97zM434 1374q6 47 51.5 81t102.5 34q58 0 91.5 -34.5t27.5 -84.5q-9 -48 -52.5 -81.5t-99.5 -33.5q-59 0 -94.5 35t-26.5 84zM752 1374q6 47 50.5 81t100.5 34q58 0 92.5 -34.5t28.5 -84.5q-9 -48 -52.5 -81.5t-101.5 -33.5t-92.5 34.5 t-25.5 84.5z" />
<glyph unicode="&#x178;" horiz-adv-x="1228" d="M256 1335l25 140h337l218 -584l405 584h191l-533 -773l6 9l-112 -711h-261l111 709l-256 626h-131zM659 1825q6 47 51.5 80.5t102.5 33.5q58 0 91.5 -34t27.5 -84q-9 -48 -52.5 -81.5t-99.5 -33.5q-59 0 -94.5 35t-26.5 84zM977 1825q6 47 50.5 80.5t100.5 33.5 q58 0 92.5 -34t28.5 -84q-9 -48 -52.5 -81.5t-100.5 -33.5q-58 0 -93 35t-26 84z" />
<glyph unicode="&#x2c6;" horiz-adv-x="741" d="M193 1169l299 359h210l185 -359h-189l-125 199l-188 -199h-192z" />
<glyph unicode="&#x2dc;" horiz-adv-x="987" d="M319 1217q16 110 79 184t165 74q38 0 69.5 -7t60 -23t43.5 -26.5t42 -32.5q69 -55 99 -55q26 0 45.5 36t27.5 87h133q-19 -111 -80 -184.5t-161 -73.5q-49 0 -94 15.5t-66.5 30t-58.5 42.5q-26 21 -37.5 29.5t-29 17t-32.5 8.5q-26 0 -45 -36.5t-26 -85.5h-134z" />
<glyph unicode="&#x2000;" horiz-adv-x="989" />
<glyph unicode="&#x2001;" horiz-adv-x="1978" />
<glyph unicode="&#x2002;" horiz-adv-x="989" />
<glyph unicode="&#x2003;" horiz-adv-x="1978" />
<glyph unicode="&#x2004;" horiz-adv-x="659" />
<glyph unicode="&#x2005;" horiz-adv-x="494" />
<glyph unicode="&#x2006;" horiz-adv-x="329" />
<glyph unicode="&#x2007;" horiz-adv-x="329" />
<glyph unicode="&#x2008;" horiz-adv-x="247" />
<glyph unicode="&#x2009;" horiz-adv-x="395" />
<glyph unicode="&#x200a;" horiz-adv-x="109" />
<glyph unicode="&#x2010;" horiz-adv-x="798" d="M129 459l33 213h674l-33 -213h-674z" />
<glyph unicode="&#x2011;" horiz-adv-x="798" d="M129 459l33 213h674l-33 -213h-674z" />
<glyph unicode="&#x2012;" horiz-adv-x="798" d="M129 459l33 213h674l-33 -213h-674z" />
<glyph unicode="&#x2013;" horiz-adv-x="1351" d="M145 479l19 131h1194l-19 -131h-1194z" />
<glyph unicode="&#x2014;" horiz-adv-x="1536" d="M145 479l21 131h1374l-20 -131h-1375z" />
<glyph unicode="&#x2022;" horiz-adv-x="337" d="M113 555q6 47 52.5 83t102.5 36q60 0 96.5 -36.5t28.5 -86.5q-6 -47 -52.5 -83t-102.5 -36q-58 0 -95.5 36.5t-29.5 86.5z" />
<glyph unicode="&#x2026;" horiz-adv-x="1056" d="M53 104q9 48 53.5 81.5t100.5 33.5t90.5 -35.5t28.5 -83.5q-8 -46 -52.5 -80t-99.5 -34q-58 0 -92.5 34t-28.5 84zM399 104q8 48 51.5 81.5t100.5 33.5q56 0 91.5 -35.5t29.5 -83.5q-8 -46 -53.5 -80t-100.5 -34q-58 0 -91.5 34t-27.5 84zM743 104q9 48 52.5 81.5 t99.5 33.5t91.5 -35.5t29.5 -83.5q-8 -46 -52.5 -80t-99.5 -34q-59 0 -93 34t-28 84z" />
<glyph unicode="&#x202f;" horiz-adv-x="395" />
<glyph unicode="&#x2039;" horiz-adv-x="540" d="M133 434l23 166l442 270l-27 -176l-252 -178l195 -180l-27 -170z" />
<glyph unicode="&#x203a;" horiz-adv-x="532" d="M88 164l27 174l254 178l-197 180l29 172l354 -270l-25 -166z" />
<glyph unicode="&#x205f;" horiz-adv-x="494" />
<glyph unicode="&#x25fc;" horiz-adv-x="1024" d="M0 0v1024h1024v-1024h-1024z" />
<glyph unicode="&#xfb01;" horiz-adv-x="987" d="M37 -500l217 1409h-115l21 131h116v7q19 115 49 200t67.5 139t88 86.5t104 45t120.5 12.5q134 0 214 -47.5t74 -114.5q-9 -47 -70.5 -79t-138.5 -32q1 6 2 16t-1 36t-9.5 46t-29 36t-54.5 16q-56 0 -96.5 -87.5t-69.5 -277.5v-2h256l-20 -131h-256 q-36 -226 -108.5 -698.5t-110.5 -710.5h-250zM604 893l21 131h446l-162 -1024h-250l142 893h-197z" />
</font>
</defs>
</svg>
