<?xml version="1.0" encoding="utf-8"?>
<svg version="1.2" xmlns="http://www.w3.org/2000/svg"  width="176px" height="220.2px" viewBox="0 0 176 220.2" >
	<g id="freiraum">
		<path fill="#9E856D" d="M25.3,24.8v8.5h9.7v0.5h-9.7v9.7h-0.6V24.2h11v0.5H25.3z"/>
		<path fill="#9E856D" d="M50.9,43.5L45,33.8h-4.5v9.7h-0.6V24.2h5.3c1.5,0,3.1,0.2,4.4,1.1c1.1,0.8,1.6,2.1,1.7,3.5
			c0,1.4-0.4,2.8-1.6,3.7c-1.1,0.9-2.6,1.3-4,1.3l5.9,9.8H50.9z M50.7,29c0-1.3-0.5-2.6-1.6-3.3c-1.2-0.8-2.7-0.9-4.1-0.9h-4.4v8.5
			h4.7c1.3,0,2.7-0.2,3.8-1C50.2,31.6,50.7,30.3,50.7,29z"/>
		<path fill="#9E856D" d="M56.1,43.5V24.2h11.2v0.5H56.7v8.5h10v0.5h-10V43h11.1v0.5H56.1z"/>
		<path fill="#9E856D" d="M72.2,43.5V24.2h0.6v19.3H72.2z"/>
		<path fill="#9E856D" d="M89.5,43.5l-5.8-9.7h-4.5v9.7h-0.6V24.2h5.3c1.5,0,3.1,0.2,4.4,1.1c1.1,0.8,1.6,2.1,1.7,3.5
			c0,1.4-0.4,2.8-1.6,3.7c-1.1,0.9-2.6,1.3-4,1.3l5.9,9.8H89.5z M89.3,29c0-1.3-0.5-2.6-1.6-3.3c-1.2-0.8-2.7-0.9-4.1-0.9h-4.4v8.5
			h4.7c1.3,0,2.7-0.2,3.8-1C88.8,31.6,89.3,30.3,89.3,29z"/>
		<path fill="#9E856D" d="M108.8,43.5l-2.3-5.5H95.3L93,43.5h-0.7l8.4-19.3h0.8l8,19.3H108.8z M101,24.6l-5.5,12.9h10.8L101,24.6z"
			/>
		<path fill="#9E856D" d="M126.6,39.3c-0.4,1.7-1.5,3.1-3,3.9c-1.6,0.9-3.6,1-5.4,0.8c-1.7-0.2-3.3-1-4.4-2.4
			c-1.2-1.5-1.5-3.5-1.5-5.4v-12h0.6v11.9c0,1.9,0.3,4,1.7,5.5c1.3,1.4,3.2,1.9,5.1,1.9c1.8,0,3.6-0.4,4.9-1.7
			c1.5-1.5,1.9-3.7,1.9-5.7V24.2h0.6v12C127,37.3,126.8,38.4,126.6,39.3C126.3,40.3,126.8,38.4,126.6,39.3z"/>
		<path fill="#9E856D" d="M150.8,43.5V24.9h-0.1l-8.5,18.6h-0.5l-8.5-18.6h-0.1v18.6h-0.6V24.2h1.1l8.4,18.4l8.4-18.4h1.1v19.3
			H150.8z"/>
	</g>
	<g id="syndikat">
		<path fill="#9E856D" d="M36.7,63.2c0,2.8-2.1,4.7-4.7,5.2c-2.6,0.5-5.5-0.3-7.4-2.3l0.5-0.4c2.4,2.6,7.4,3.4,9.9,0.4
			c1.1-1.3,1.4-3.5,0.4-5c-1.1-1.6-3.1-2.2-4.9-2.8c-1.8-0.6-3.9-1.2-5-2.9c-1-1.6-0.9-3.9,0.2-5.4c2.3-3.2,8-3.1,10.5-0.2l-0.5,0.4
			c-2.2-2.7-7.2-2.9-9.3-0.1c-1,1.3-1.2,3.3-0.4,4.7c0.9,1.6,2.8,2.2,4.5,2.8C33.4,58.6,36.7,59.8,36.7,63.2z"/>
		<path fill="#9E856D" d="M46.1,59.3V68h-0.6v-8.6l-6.9-11.1h0.7l6.5,10.5l6.5-10.5H53L46.1,59.3z"/>
		<path fill="#9E856D" d="M71.5,68L57.1,49H57V68h-0.6V48.3h0.9l14.4,18.9h0.1V48.3h0.6V68H71.5z"/>
		<path fill="#9E856D" d="M95.1,58.1c0,2.7-0.8,5.4-2.9,7.3C90,67.3,86.9,68,84,68h-5.7V48.3H84c2.9,0,5.9,0.6,8.1,2.6
			C94.3,52.7,95.1,55.4,95.1,58.1z M79,48.8v18.6h4.9c2.7,0,5.7-0.6,7.8-2.4c2-1.7,2.8-4.3,2.8-6.9c0-2.6-0.8-5.2-2.8-6.9
			c-2.1-1.8-5.1-2.4-7.8-2.4H79z"/>
		<path fill="#9E856D" d="M100.2,68V48.3h0.6V68H100.2z"/>
		<path fill="#9E856D" d="M107.4,57.3l10.1-9h0.9l-10.2,9L118.9,68H118L107.4,57.3L107.4,57.3l0,10.7h-0.6V48.3h0.6L107.4,57.3
			L107.4,57.3z"/>
		<path fill="#9E856D" d="M137.1,68l-2.4-5.7h-11.6l-2.5,5.7h-0.7l8.7-19.7h0.8l8.3,19.7H137.1z M129,48.7l-5.7,13.1h11.2L129,48.7z
			"/>
		<path fill="#9E856D" d="M144.5,48.8V68h-0.6V48.8h-6.8v-0.6h14.3v0.6H144.5z"/>
	</g>
	<path fill="#9E856D" d="M17.1,190.1v-173h141.8v173c0.4,0.5,0.8,1,1.1,1.5V16H16v175.6C16.3,191.1,16.7,190.6,17.1,190.1z"/>
	<path id="flöte_2" fill="#9E856D" d="M118.7,175.3V75.3H89.1v97.8C99.6,173.2,109.6,174,118.7,175.3z M103.9,166.9
		c-1.8,0-3.4-1.5-3.4-3.4c0-1.8,1.5-3.4,3.4-3.4s3.4,1.5,3.4,3.4C107.3,165.4,105.7,166.9,103.9,166.9z M103.9,145.1
		c-1.8,0-3.4-1.5-3.4-3.4c0-1.8,1.5-3.4,3.4-3.4s3.4,1.5,3.4,3.4C107.3,143.6,105.7,145.1,103.9,145.1z M103.9,123.2
		c-1.8,0-3.4-1.5-3.4-3.4c0-1.8,1.5-3.4,3.4-3.4c1.8,0,3.4,1.5,3.4,3.4C107.3,121.7,105.7,123.2,103.9,123.2z M105.3,95.4
		c1.5,0,2.8,1.3,2.8,2.8c0,1.5-1.3,2.8-2.8,2.8c-1.5,0-2.8-1.3-2.8-2.8C102.5,96.7,103.8,95.4,105.3,95.4z M100.5,96.8
		c1.8,0,1.8,2.9,0,2.9C98.6,99.6,98.6,96.8,100.5,96.8z"/>
	<g id="cello">
		<path fill="#9E856D" d="M86,173.2V75.3H85v97.9C85.3,173.2,85.7,173.2,86,173.2z"/>
		<path fill="#9E856D" d="M82,173.2V75.3h-5.4v98.1C78.3,173.4,80.1,173.3,82,173.2z"/>
		<path fill="#9E856D" d="M74.5,173.6V75.3h-7v98.7C69.8,173.9,72.1,173.7,74.5,173.6z"/>
		<path fill="#9E856D" d="M65.8,174.2V75.3h-6.6V175C61.3,174.7,63.5,174.5,65.8,174.2z"/>
		<path fill="#9E856D" d="M58.3,175.1V75.3h-1.8v100.1C57.1,175.3,57.7,175.2,58.3,175.1z"/>
	</g>
	<path id="flöte_1" fill="#9E856D" d="M53.6,175.8V75.3H42.2c1.3,2.2-0.3,5.1-2.9,5.1c-2.6,0-4.2-2.9-2.9-5.1H24.1v109.5
		C31,181,41.2,177.9,53.6,175.8z M44.1,164.2c0,1.8-2.9,1.8-2.9,0S44.1,162.4,44.1,164.2C44.1,165,44.1,163.4,44.1,164.2z
		 M39.3,95.5c1.8,0,3.4,1.5,3.4,3.4c0,1.8-1.5,3.4-3.4,3.4c-1.8,0-3.4-1.5-3.4-3.4C35.9,97,37.5,95.5,39.3,95.5z M39.3,117.3
		c1.8,0,3.4,1.5,3.4,3.4s-1.5,3.4-3.4,3.4c-1.8,0-3.4-1.5-3.4-3.4C35.9,118.8,37.5,117.3,39.3,117.3z M39.3,139.2
		c1.8,0,3.4,1.5,3.4,3.4c0,1.8-1.5,3.4-3.4,3.4c-1.8,0-3.4-1.5-3.4-3.4C35.9,140.7,37.4,139.2,39.3,139.2z M37.9,161.4
		c1.5,0,2.8,1.3,2.8,2.8c0,1.5-1.3,2.8-2.8,2.8c-1.5,0-2.8-1.3-2.8-2.8C35,162.7,36.3,161.4,37.9,161.4z"/>
	<g id="gitarre">
		<rect x="121.5" y="75.3" fill="#9E856D" width="2" height="19.2"/>
		<rect x="124" y="75.3" fill="#9E856D" width="4.4" height="19.2"/>
		<rect x="129.2" y="75.3" fill="#9E856D" width="4.3" height="19.2"/>
		<rect x="134.8" y="75.3" fill="#9E856D" width="2.9" height="19.2"/>
		<rect x="139.4" y="75.3" fill="#9E856D" width="3.4" height="19.2"/>
		<rect x="145.1" y="75.3" fill="#9E856D" width="2.9" height="19.2"/>
		<rect x="150.4" y="75.3" fill="#9E856D" width="0.6" height="19.2"/>
		<rect x="121.5" y="96.2" fill="#9E856D" width="2" height="36.3"/>
		<rect x="124.1" y="96.2" fill="#9E856D" width="4.2" height="36.3"/>
		<rect x="129.2" y="96.2" fill="#9E856D" width="4.3" height="36.3"/>
		<rect x="134.8" y="96.2" fill="#9E856D" width="2.9" height="36.3"/>
		<rect x="139.4" y="96.2" fill="#9E856D" width="3.4" height="36.3"/>
		<rect x="145.1" y="96.2" fill="#9E856D" width="2.9" height="36.3"/>
		<rect x="150.4" y="96.2" fill="#9E856D" width="0.6" height="36.3"/>
		<rect x="121.5" y="134" fill="#9E856D" width="2" height="34.5"/>
		<rect x="124.1" y="134" fill="#9E856D" width="4.2" height="34.5"/>
		<rect x="129.2" y="134" fill="#9E856D" width="4.3" height="34.5"/>
		<rect x="134.8" y="134" fill="#9E856D" width="2.9" height="34.5"/>
		<rect x="139.4" y="134" fill="#9E856D" width="3.4" height="34.5"/>
		<rect x="145.1" y="134" fill="#9E856D" width="2.9" height="34.5"/>
		<rect x="150.4" y="134" fill="#9E856D" width="0.6" height="34.5"/>
		<path fill="#9E856D" d="M123.5,176v-5.9h-2v5.6C122.2,175.8,122.8,175.9,123.5,176z"/>
		<path fill="#9E856D" d="M128.4,177v-6.8h-4.2v6C125.6,176.4,127,176.7,128.4,177z"/>
		<path fill="#9E856D" d="M133.5,178.1v-8h-4.3v7C130.7,177.4,132.1,177.8,133.5,178.1z"/>
		<path fill="#9E856D" d="M137.7,179.3v-9.1h-2.9v8.3C135.8,178.7,136.8,179,137.7,179.3z"/>
		<path fill="#9E856D" d="M142.9,180.9v-10.8h-3.4v9.6C140.6,180.1,141.8,180.5,142.9,180.9z"/>
		<path fill="#9E856D" d="M148,182.9v-12.8h-2.9v11.6C146.1,182.1,147,182.5,148,182.9z"/>
		<path fill="#9E856D" d="M151,184.4v-14.2h-0.4v14C150.8,184.2,150.9,184.3,151,184.4z"/>
	</g>
</svg>
