<?xml version="1.0" encoding="utf-8"?>
<svg version="1.1" xmlns="http://www.w3.org/2000/svg" x="0px" y="0px"
	 width="29.4px" height="560px" viewBox="465.3 0 29.4 560">
<g fill="#9E856D">
  <path d="M486.5,545.2c3.1,0,6.5,1.6,7,5c0.2,0.9,0.4,1.7,0.4,2.6v7.2h-27.7v-6.4c0-0.9,0.1-1.7,0.4-2.7
  	c0.2-0.9,0.6-1.7,1.1-2.3c0.5-0.7,1.2-1.2,2-1.7c1.7-0.7,3.9-0.8,5.7-0.2c1.2,0.4,2.6,1.4,3.1,2.7c0.4,0.6,0.6,1.2,0.7,1.7h0.1
  	c0.1-0.6,0.2-1.2,0.6-2c0.5-1.6,2.1-2.8,3.5-3.4C484.2,545.5,485.3,545.2,486.5,545.2z M472.8,547.1c-1.7,0-3.3,0.6-4.5,1.9
  	c-1.2,1.3-1.4,3.3-1.4,5v5.5h12v-5.6c0-2.4-1.1-4.8-3.3-5.9C474.7,547.3,473.9,547.1,472.8,547.1z M486.6,546
  	c-1.2,0-2.3,0.2-3.2,0.6c-0.9,0.5-1.6,1-2.2,1.6c-1,1.3-1.6,2.9-1.6,4.5v6.5h13.4V553c0-1.8-0.4-3.6-1.5-5.1
  	c-0.5-0.6-1.2-1.1-2.1-1.5C488.7,546.2,487.7,546,486.6,546z"/>
  <path d="M493.9,522.5l-7.9,2.8V539l7.9,2.9v0.9l-27.7-10.1v-1l27.7-9.8V522.5z M466.7,532l18.4,6.7v-13.2L466.7,532z
  	"/>
  <path d="M493.9,504.3l-14,7.1v5.5h14v0.7h-27.9v-6.5c0-0.9,0.1-1.7,0.2-2.6c0.2-0.9,0.5-1.7,1.1-2.3
  	c2.6-3.9,11.2-3,12,2.1c0.2,0.9,0.4,1.6,0.4,2.3l14-7.1v0.7H493.9z M473,504.5c-1.8,0-3.9,0.5-4.9,2.2c-1,1.3-1.2,3.2-1.2,4.8v5.4
  	h12.2v-5.7c0-2.2-0.5-3.8-1.6-5C476.5,505,475,504.5,473,504.5z"/>
  <path d="M480,474.9c2.2,0,4.2,0.2,5.9,0.9c3,1,5.8,3,7.4,5.8c1.7,3.1,1.9,6.9,0.3,10.1c-0.7,1.5-1.7,2.8-3.1,3.8
  	c-4.3,3.6-11.1,4.4-16.4,2.6c-3-1-5.8-3-7.4-5.8c-1.8-3.2-1.8-7.1-0.3-10.3c1.5-3.1,4.5-5.3,7.7-6.4
  	C475.8,475.2,477.8,474.9,480,474.9z M480,475.6c-2,0-3.8,0.2-5.4,0.9c-4.6,1.6-8.4,5.2-8.4,10.4c0,4.9,3.8,9.1,8.4,10.4
  	c3.3,1.2,7.5,1.3,10.8,0c6.3-1.8,10.7-9,7.3-15.1c-1.6-2.9-4.2-4.8-7.3-5.9C483.8,475.8,482,475.6,480,475.6z"/>
  <path d="M479.8,445.9c4.2,0,8.9,1.6,11.6,5c0.9,1,1.3,2.1,1.7,3.3h0.1v-9.5h0.7v13.4c0,1.6-0.4,3.2-1,4.6
  	c-1.3,3.1-4.2,5.3-7.3,6.4c-4.8,1.7-10.9,1.3-15.1-1.7c-4.6-3.2-6.3-9.2-3.9-14.3c0.7-1.5,1.7-2.7,3.1-3.8c1.2-1.1,2.8-2,4.5-2.6
  	C475.7,446.3,477.7,445.9,479.8,445.9z M479.8,446.6c-5.5,0-11.6,2.9-13.2,8.6c-1.6,5.8,2.5,11.4,7.9,13.1c3.3,1.2,7.2,1.2,10.5,0
  	c2.9-1.1,5.7-2.9,7.1-5.9c1.5-2.7,1.3-6.5-0.1-9.2c-1.6-2.9-4.2-4.7-7.2-5.9C483.2,446.9,481.5,446.6,479.8,446.6z"/>
  <path d="M487.8,422.6c1.3,0.4,2.6,0.9,3.5,1.5c1,0.7,1.8,1.6,2.4,2.8c1.9,3.5,0.9,8.9-2.4,11.1
  	c-2.2,1.7-5.2,2.1-7.9,2.1h-17.3v-0.7h17.1c1.1,0,2.3-0.1,3.5-0.2c1.2-0.2,2.4-0.6,3.4-1.2c1.1-0.6,2-1.5,2.7-2.4
  	c1.6-2.4,1.5-6.1,0.1-8.6c-0.7-1.1-1.6-2-2.6-2.6c-2.2-1.2-4.5-1.5-7-1.5h-17.1v-0.7h17.2C484.9,422.1,486.4,422.2,487.8,422.6
  	C489.2,422.9,486.4,422.2,487.8,422.6z"/>
  <path d="M493.9,415.4h-27.9v-13.7h0.7v12.9H479v-12.2h0.7v12.2h13.2v-13.6h0.7v14.3H493.9z"/>
  <path d="M492.3,372.1c1.7,1.1,2.4,3.2,2.2,5.2c-0.2,2.4-2.1,4.1-4.2,5l-0.4-0.6c3-1.2,4.9-4.2,3.3-7.3
  	c-0.9-1.4-2.4-2.2-4-2.6c-1-0.2-2-0.2-3.1-0.2h-20v-0.7h20.2C488.9,370.5,490.9,371,492.3,372.1C493.8,373.1,490.9,371,492.3,372.1z
  	"/>
  <path d="M493.9,346.8l-7.9,2.8v13.7l7.9,2.9v0.9L466.2,357v-1l27.7-9.8V346.8z M466.7,356.4l18.4,6.7v-13.2
  	L466.7,356.4z"/>
  <path d="M493.9,343.6h-1.1l-25.9-15.4v15h-0.9v-15.6h1.1l25.8,15.4v-15.9h0.7v16.5H493.9z"/>
  <path d="M493.9,324h-1.1l-25.9-15.5v15h-0.9v-15.6h1.1l25.8,15.4v-15.9h0.7V324H493.9z"/>
  <path d="M493.6,271.9c2.3,4.6,0.8,10.1-3.1,13.3c-5.8,4.7-15.2,4.3-21,0c-1.3-1.1-2.3-2.3-3.1-3.8
  	c-2.1-4.1-1.3-9.7,2.4-12.7l0.6,0.5c-1.2,0.9-1.8,2.2-2.6,3.4c-1.1,2.8-1.1,5.8,0.2,8.6c1.6,2.9,4.2,4.8,7.3,5.9
  	c5.1,1.5,10.9,1.1,15.1-2.3c1.2-1,2.2-2.2,2.9-3.5c1.5-2.7,1.4-6.1,0.1-8.9c-0.6-1.5-1.7-2.6-3.1-3.5l0.6-0.5
  	C491.8,269.2,492.9,270.5,493.6,271.9C494.3,273.4,492.9,270.5,493.6,271.9z"/>
  <path d="M493.9,246.9h-14v15.8h13.9v0.7h-27.7v-0.7h13.1v-15.8h-13.1v-0.7h27.7v0.7H493.9z"/>
  <path d="M493.9,222l-7.9,2.8v13.7l7.9,2.9v0.9l-27.7-10.1v-1l27.7-9.8V222z M466.7,231.5l18.4,6.7V225L466.7,231.5z"
  	/>
  <path d="M493.9,194.7h-26.9v0.1l26.8,10.4v0.6l-26.8,10.4v0.1h26.8v0.7h-27.7v-1.3l26.5-10.3l-26.5-10.3v-1.3h27.7
  	v0.9H493.9z"/>
  <path d="M486.5,172.3c1.5,0,2.7,0.2,3.7,0.7c1.6,0.8,3,2.4,3.3,4.3c0.2,0.9,0.4,1.7,0.4,2.6v7.2h-27.7v-6.4
  	c0-0.9,0.1-1.7,0.4-2.7c0.2-0.9,0.6-1.7,1.1-2.3c0.5-0.7,1.2-1.2,2-1.7c2.8-1.2,7.5-0.8,8.8,2.4c0.4,0.6,0.6,1.2,0.7,1.7h0.1
  	c0.1-0.6,0.2-1.2,0.6-2C480.7,173.4,483.8,172.3,486.5,172.3z M472.8,174.1c-1.7,0-3.3,0.6-4.5,1.9c-1.2,1.3-1.4,3.3-1.4,5v5.5h12
  	v-5.6c0-2.4-1.1-4.8-3.3-5.9C474.7,174.2,473.9,174.1,472.8,174.1z M486.6,173c-1.2,0-2.3,0.2-3.2,0.6c-0.9,0.5-1.6,1-2.2,1.6
  	c-1,1.3-1.6,2.9-1.6,4.5v6.5h13.4v-6.1c0-2.7-0.9-5.5-3.5-6.6C488.7,173.1,487.7,173,486.6,173z"/>
  <path d="M493.9,166.6h-27.9v-13.7h0.7v12.9H479v-12.2h0.7v12.2h13.2v-13.6h0.7v14.3H493.9z"/>
  <path d="M493.9,133.8l-14,7.1v5.5h14v0.7h-27.9v-6.5c0-0.9,0.1-1.7,0.2-2.6c0.2-0.9,0.5-1.7,1.1-2.3
  	c2.6-3.9,11.2-3,12,2.1c0.2,0.9,0.4,1.6,0.4,2.3l14-7.1v0.7H493.9z M473,133.9c-1.8,0-3.9,0.5-4.9,2.2c-0.5,0.6-0.7,1.5-1,2.2
  	c-0.2,0.9-0.2,1.7-0.2,2.6v5.4h12.2v-5.7c0-2.2-0.5-3.8-1.6-5C476.5,134.5,475,133.9,473,133.9z"/>
  <path d="M493.9,96.8c1.7,5,0.5,10.4-3.4,13.9c-1.3,1.1-2.9,2-4.6,2.6c-5.4,1.8-11.8,0.9-16.4-2.4
  	c-2.4-1.9-3.9-4.8-4.1-7.8c-0.3-3.4,0.9-6.5,3.1-9l0.6,0.5c-4.2,4.2-4.1,11,0.2,15.1c4,3.8,10.8,4.8,15.9,2.9c3.5-1,6.7-3.7,8-7.2
  	c1.3-3.7,0.4-8-1.5-11.4h-10.9v6.1H480v-6.8h12.2C492.8,94.2,493.4,95.4,493.9,96.8C494.4,98.2,493.4,95.4,493.9,96.8z"/>
  <path d="M493.9,73.3l-14,7.1v5.5h14v0.7h-27.9v-6.5c0-0.9,0.1-1.7,0.2-2.6c0.2-1,0.6-1.8,1.1-2.4
  	c2.6-3.9,11.2-3,12,2.1c0.2,0.9,0.4,1.6,0.4,2.3l14-7.1v0.9H493.9z M473,73.4c-1.8,0-3.9,0.5-4.9,2.2c-0.5,0.6-0.7,1.5-1,2.2
  	c-0.2,0.9-0.2,1.7-0.2,2.6v5.4h12.2V80c0-2.2-0.5-3.8-1.6-5C476.5,74,475,73.4,473,73.4z"/>
  <path d="M480,43.9c2.2,0,4.2,0.2,5.9,0.9c3.8,1.3,7.2,4.1,8.3,8c1.3,4.1-0.2,9.1-3.7,11.7
  	c-4.3,3.6-11.1,4.4-16.4,2.6c-3-1-5.8-3-7.4-5.8c-1.8-3.2-1.8-7.1-0.3-10.3c1.5-3.1,4.5-5.3,7.7-6.4C475.8,44.1,477.8,43.9,480,43.9
  	z M480,44.6c-2,0-3.8,0.2-5.4,0.9c-4.6,1.6-8.4,5.2-8.4,10.4c0,4.9,3.8,9.1,8.4,10.4c3.3,1.2,7.5,1.3,10.8,0
  	c4.7-1.3,8.4-5.5,8.4-10.5c0-5.2-3.8-8.8-8.4-10.5C483.8,44.8,482,44.6,480,44.6z"/>
  <path d="M487.8,20.8c1.3,0.4,2.6,0.9,3.5,1.5c1,0.7,1.8,1.6,2.4,2.8c1,1.8,1,4.2,0.7,6.2c-0.3,2-1.5,3.9-3.2,5
  	c-1,0.7-2.2,1.2-3.5,1.5c-1.3,0.4-2.8,0.5-4.4,0.5h-17.3v-0.7h17.1c1.1,0,2.3-0.1,3.5-0.2c1.2-0.2,2.4-0.6,3.4-1.2
  	c1.1-0.6,2-1.5,2.7-2.4c1.6-2.4,1.5-6.1,0.1-8.6c-0.7-1.1-1.6-2-2.6-2.6c-2.2-1.2-4.5-1.5-7-1.5h-17.1v-0.7h17.2
  	C484.9,20.4,486.4,20.5,487.8,20.8C489.2,21.1,486.4,20.5,487.8,20.8z"/>
  <path d="M473,0c1.2,0,2.2,0.2,3.2,0.5c0.9,0.4,1.7,0.9,2.2,1.5c0.6,0.6,1.1,1.3,1.3,2.2c0.4,0.9,0.5,1.7,0.5,2.7v6.1
  	h13.7v0.7h-27.9V7.2c0-2.8,1.1-5.2,3.5-6.6C470.6,0.2,471.7,0,473,0z M473,0.7c-1.2,0-2.2,0.2-2.9,0.6c-0.9,0.4-1.5,0.9-2,1.5
	c-0.9,1.2-1.2,2.7-1.2,4.2v6h12.6V6.8c0-1.5-0.5-3-1.5-4.2C476.6,1.3,475,0.7,473,0.7z"/>
</g>
</svg>
