<?xml version="1.0" encoding="UTF-8" standalone="no"?>
<svg width="29px" height="15px" viewBox="0 0 29 15" version="1.1" xmlns="http://www.w3.org/2000/svg" xmlns:xlink="http://www.w3.org/1999/xlink">
    <!-- Generator: Sketch 3.6.1 (26313) - http://www.bohemiancoding.com/sketch -->
    <title>icon--soundcloud</title>
    <desc>Created with Sketch.</desc>
    <defs></defs>
    <g id="assets" stroke="none" stroke-width="1" fill="none" fill-rule="evenodd">
        <g id="icon--soundcloud" transform="translate(0.000000, 2.000000)" fill="#FEFEFE">
            <path d="M1.39860482,6.22725864 C1.33707959,6.22725864 1.28646261,6.27375079 1.27814839,6.33783455 C1.27814839,6.33808586 0.993402982,8.79431623 0.993402982,8.79431623 L1.27814839,11.1967037 C1.28646261,11.2609759 1.33707959,11.3075309 1.39860482,11.3075309 C1.45966445,11.3075309 1.50901766,11.2621696 1.51879518,11.1972063 L1.84291674,8.79431623 L1.51892821,6.3377089 C1.50901766,6.27249424 1.45966445,6.22725864 1.39860482,6.22725864" id="Fill-1"></path>
            <path d="M0.327886239,7.16813403 C0.267491743,7.16813403 0.219734862,7.21223874 0.211753211,7.2751288 L-2.66055044e-05,8.79435393 L0.211753211,10.2876314 C0.219734862,10.3505215 0.267491743,10.3945005 0.327886239,10.3945005 C0.38661789,10.3945005 0.434175229,10.3508984 0.443753211,10.2881969 L0.694576606,8.79435393 L0.443753211,7.27456335 C0.434308257,7.21192461 0.38661789,7.16813403 0.327886239,7.16813403" id="Fill-3"></path>
            <path d="M2.53635596,5.74559372 C2.45986514,5.74559372 2.3988055,5.80201257 2.39108991,5.8798555 C2.39108991,5.88004398 2.12091101,8.79459895 2.12091101,8.79459895 L2.39108991,11.6029131 C2.3988055,11.6810073 2.45986514,11.7373634 2.53635596,11.7373634 C2.61145,11.7373634 2.67237661,11.6810073 2.68128945,11.6034785 L2.98845,8.79459895 L2.68148899,5.87972984 C2.67237661,5.80188691 2.61145,5.74559372 2.53635596,5.74559372" id="Fill-6"></path>
            <path d="M3.68345894,5.6425822 C3.59366537,5.6425822 3.52056674,5.7104356 3.51338326,5.80034136 L3.25797041,8.79518953 L3.51338326,11.6925298 C3.52056674,11.7821215 3.59366537,11.849912 3.68345894,11.849912 C3.77205528,11.849912 3.84508739,11.7821215 3.85313555,11.6925298 L4.14333509,8.79518953 L3.85313555,5.79977592 C3.84508739,5.71024712 3.77205528,5.6425822 3.68345894,5.6425822" id="Fill-8"></path>
            <path d="M5.03419381,6.01620314 C5.02674427,5.91379476 4.94306995,5.83595183 4.83964106,5.83595183 C4.73528096,5.83595183 4.65167317,5.91392042 4.64515482,6.01739686 L4.40404243,8.79542827 L4.64515482,11.7166429 C4.65167317,11.8195539 4.73528096,11.8976482 4.83964106,11.8976482 C4.94300344,11.8976482 5.02661124,11.8196168 5.03419381,11.7165173 L5.30736583,8.79542827 L5.03419381,6.01620314 Z" id="Fill-12"></path>
            <path d="M6.00546101,4.07168796 C5.8884633,4.07168796 5.79208486,4.1617822 5.78616514,4.27669319 C5.78616514,4.27681885 5.55975229,8.79660942 5.55975229,8.79660942 L5.78616514,11.7175099 C5.79208486,11.8316042 5.8884633,11.9217613 6.00546101,11.9217613 C6.12146101,11.9217613 6.21770642,11.8316042 6.22462385,11.7169445 L6.22462385,11.7178241 L6.48076835,8.79660942 L6.22462385,4.27650471 C6.21770642,4.16159372 6.12146101,4.07168796 6.00546101,4.07168796" id="Fill-14"></path>
            <path d="M7.16244128,3.03037068 C7.03107661,3.03037068 6.92392294,3.13064293 6.91820275,3.25874764 C6.91820275,3.25906178 6.70655596,8.81236021 6.70655596,8.81236021 L6.91846881,11.7151665 C6.92392294,11.8422031 7.03107661,11.9424754 7.16244128,11.9424754 C7.29287477,11.9424754 7.40002844,11.8422031 7.40628073,11.7140984 L7.40614771,11.7157319 L7.64573028,8.81236021 L7.40628073,3.25874764 C7.40002844,3.13064293 7.29287477,3.03037068 7.16244128,3.03037068" id="Fill-16"></path>
            <path d="M8.36468417,2.52861361 C8.21908555,2.52861361 8.10102362,2.63944084 8.09583555,2.78073927 C8.09583555,2.78086492 7.89875528,8.79776545 7.89875528,8.79776545 L8.09596858,11.6707288 C8.10102362,11.8105822 8.21908555,11.9212209 8.36468417,11.9212209 C8.50948463,11.9212209 8.62741353,11.8108963 8.63339977,11.6695351 L8.63326674,11.6712314 L8.85582179,8.79776545 L8.63339977,2.78061361 C8.62741353,2.63925236 8.50948463,2.52861361 8.36468417,2.52861361" id="Fill-19"></path>
            <path d="M9.85169908,2.57819058 C9.84651101,2.4236356 9.71774037,2.30269319 9.55837339,2.30269319 C9.39847431,2.30269319 9.26957064,2.42382408 9.26491468,2.57837906 L9.08240092,8.79808586 L9.26504771,11.6531435 C9.26957064,11.8060021 9.39847431,11.9269445 9.55837339,11.9269445 C9.71767385,11.9269445 9.84637798,11.8060649 9.85169908,11.6519497 L10.0573596,8.79833717 L9.85169908,2.57819058 Z" id="Fill-21"></path>
            <path d="M10.7613945,2.43857592 C10.5869954,2.43857592 10.4471835,2.56988482 10.4431261,2.73750785 L10.2751789,8.79863874 L10.4433257,11.6264293 C10.4471835,11.7924817 10.5869954,11.9241047 10.7613945,11.9241047 C10.9350619,11.9241047 11.0746743,11.7924817 11.0793968,11.6249843 L11.0793968,11.6269948 L11.2681628,8.79863874 L11.0793968,2.73719372 C11.0746743,2.56969634 10.9350619,2.43857592 10.7613945,2.43857592" id="Fill-25"></path>
            <path d="M11.9737076,2.63650681 C11.7851411,2.63650681 11.6344209,2.77830785 11.6308291,2.95912461 L11.4775814,8.79891518 L11.6309622,11.6089257 C11.6344209,11.7879204 11.7851411,11.9292817 11.9737076,11.9292817 C12.161742,11.9292817 12.3123291,11.7879204 12.316453,11.6069152 L12.316453,11.6092398 L12.4881915,8.79922932 L12.316453,2.95855916 C12.3123291,2.7781822 12.161742,2.63650681 11.9737076,2.63650681" id="Fill-27"></path>
            <path d="M13.3983658,1.56332356 C13.3399667,1.52594136 13.2700608,1.50414031 13.1952993,1.50414031 C13.1225998,1.50414031 13.0546892,1.52493613 12.9973544,1.56043351 C12.8973177,1.62219267 12.8298062,1.72893613 12.8278108,1.85019267 L12.8264805,1.91572147 L12.6890631,8.7975644 C12.6890631,8.80171099 12.8278108,11.5911141 12.8278108,11.5911141 C12.8278773,11.5951351 12.8284094,11.5990304 12.8286089,11.6029885 C12.8327993,11.6809571 12.8641273,11.7527058 12.9142122,11.8093759 C12.9818567,11.8859623 13.0831571,11.9350304 13.1952993,11.9350304 C13.2949369,11.9350304 13.3859943,11.896266 13.452508,11.8336272 C13.5190218,11.7711141 13.5610585,11.6847895 13.5629209,11.5895435 L13.578219,11.3134178 L13.7177649,8.79970052 L13.5629874,1.84987853 C13.5607259,1.73075812 13.4955424,1.62552251 13.3983658,1.56332356" id="Fill-29"></path>
            <path d="M14.6112642,0.904372775 C14.5525991,0.870823037 14.4844225,0.851158115 14.4117229,0.851158115 C14.3182046,0.851158115 14.2319362,0.882885864 14.1642252,0.93572356 C14.0771587,1.00357696 14.0208216,1.10617382 14.0192252,1.22070785 L14.0183606,1.25890681 L13.858395,8.8004356 L13.9400073,10.1945089 L14.0192917,11.5512 C14.0220853,11.7519958 14.1979477,11.9177969 14.4117229,11.9177969 C14.6247665,11.9177969 14.8006954,11.7519958 14.8036885,11.5483099 L14.8036885,11.5514513 L14.8036885,11.5515141 L14.9782872,8.8004356 L14.9782872,8.80037277 L14.8036885,1.22014241 C14.8016931,1.08632042 14.7244706,0.96902199 14.6112642,0.904372775" id="Fill-33"></path>
            <path d="M25.3984461,5.21254869 C24.9103681,5.21254869 24.4446388,5.3060356 24.0206135,5.47378429 C23.7371319,2.44161675 21.0451869,0.062852356 17.761336,0.062852356 C16.9577167,0.062852356 16.1744507,0.212067016 15.4825745,0.46488377 C15.2136594,0.563271204 15.1423567,0.664108901 15.1397626,0.860506806 L15.1397626,11.5394387 C15.1426227,11.7453864 15.3117672,11.9054073 15.5245447,11.925512 C15.5335906,11.9263916 25.3984461,11.925512 25.3984461,11.925512 C27.3656571,11.925512 28.9603245,10.4358785 28.9603245,8.57744921 C28.9603245,6.71895707 27.3656571,5.21254869 25.3984461,5.21254869" id="Fill-35"></path>
        </g>
    </g>
</svg>