<svg xmlns="http://www.w3.org/2000/svg" width="29.4" height="560" viewBox="465.3 0 29.4 560"><path d="M486.5 545.2c3.1 0 6.5 1.6 7 5 .2.9.4 1.7.4 2.6v7.2h-27.7v-6.4c0-.9.1-1.7.4-2.7.2-.9.6-1.7 1.1-2.3.5-.7 1.2-1.2 2-1.7 1.7-.7 3.9-.8 5.7-.2 1.2.4 2.6 1.4 3.1 2.7.4.6.6 1.2.7 1.7h.1c.1-.6.2-1.2.6-2 .5-1.6 2.1-2.8 3.5-3.4.8-.2 1.9-.5 3.1-.5zm-13.7 1.9c-1.7 0-3.3.6-4.5 1.9-1.2 1.3-1.4 3.3-1.4 5v5.5h12v-5.6c0-2.4-1.1-4.8-3.3-5.9-.9-.7-1.7-.9-2.8-.9zm13.8-1.1c-1.2 0-2.3.2-3.2.6-.9.5-1.6 1-2.2 1.6-1 1.3-1.6 2.9-1.6 4.5v6.5H493V553c0-1.8-.4-3.6-1.5-5.1-.5-.6-1.2-1.1-2.1-1.5-.7-.2-1.7-.4-2.8-.4zm7.3-23.5l-7.9 2.8V539l7.9 2.9v.9l-27.7-10.1v-1l27.7-9.8v.6zm-27.2 9.5l18.4 6.7v-13.2l-18.4 6.5zm27.2-27.7l-14 7.1v5.5h14v.7H466v-6.5c0-.9.1-1.7.2-2.6.2-.9.5-1.7 1.1-2.3 2.6-3.9 11.2-3 12 2.1.2.9.4 1.6.4 2.3l14-7.1v.7h.2zm-20.9.2c-1.8 0-3.9.5-4.9 2.2-1 1.3-1.2 3.2-1.2 4.8v5.4h12.2v-5.7c0-2.2-.5-3.8-1.6-5-1-1.2-2.5-1.7-4.5-1.7zm7-29.6c2.2 0 4.2.2 5.9.9 3 1 5.8 3 7.4 5.8 1.7 3.1 1.9 6.9.3 10.1-.7 1.5-1.7 2.8-3.1 3.8-4.3 3.6-11.1 4.4-16.4 2.6-3-1-5.8-3-7.4-5.8-1.8-3.2-1.8-7.1-.3-10.3 1.5-3.1 4.5-5.3 7.7-6.4 1.7-.4 3.7-.7 5.9-.7zm0 .7c-2 0-3.8.2-5.4.9-4.6 1.6-8.4 5.2-8.4 10.4 0 4.9 3.8 9.1 8.4 10.4 3.3 1.2 7.5 1.3 10.8 0 6.3-1.8 10.7-9 7.3-15.1-1.6-2.9-4.2-4.8-7.3-5.9-1.6-.5-3.4-.7-5.4-.7zm-.2-29.7c4.2 0 8.9 1.6 11.6 5 .9 1 1.3 2.1 1.7 3.3h.1v-9.5h.7v13.4c0 1.6-.4 3.2-1 4.6-1.3 3.1-4.2 5.3-7.3 6.4-4.8 1.7-10.9 1.3-15.1-1.7-4.6-3.2-6.3-9.2-3.9-14.3.7-1.5 1.7-2.7 3.1-3.8 1.2-1.1 2.8-2 4.5-2.6 1.5-.4 3.5-.8 5.6-.8zm0 .7c-5.5 0-11.6 2.9-13.2 8.6-1.6 5.8 2.5 11.4 7.9 13.1 3.3 1.2 7.2 1.2 10.5 0 2.9-1.1 5.7-2.9 7.1-5.9 1.5-2.7 1.3-6.5-.1-9.2-1.6-2.9-4.2-4.7-7.2-5.9-1.6-.4-3.3-.7-5-.7zm8-24c1.3.4 2.6.9 3.5 1.5 1 .7 1.8 1.6 2.4 2.8 1.9 3.5.9 8.9-2.4 11.1-2.2 1.7-5.2 2.1-7.9 2.1h-17.3v-.7h17.1c1.1 0 2.3-.1 3.5-.2 1.2-.2 2.4-.6 3.4-1.2 1.1-.6 2-1.5 2.7-2.4 1.6-2.4 1.5-6.1.1-8.6-.7-1.1-1.6-2-2.6-2.6-2.2-1.2-4.5-1.5-7-1.5h-17.1v-.7h17.2c1.5-.1 3 0 4.4.4 1.4.3-1.4-.4 0 0zm6.1-7.2H466v-13.7h.7v12.9H479v-12.2h.7v12.2h13.2V401h.7v14.3h.3zm-1.6-43.3c1.7 1.1 2.4 3.2 2.2 5.2-.2 2.4-2.1 4.1-4.2 5l-.4-.6c3-1.2 4.9-4.2 3.3-7.3-.9-1.4-2.4-2.2-4-2.6-1-.2-2-.2-3.1-.2h-20v-.7h20.2c2.6-.4 4.6.1 6 1.2 1.5 1-1.4-1.1 0 0zm1.6-25.3l-7.9 2.8v13.7l7.9 2.9v.9L466.2 357v-1l27.7-9.8v.6zm-27.2 9.6l18.4 6.7v-13.2l-18.4 6.5zm27.2-12.8h-1.1l-25.9-15.4v15h-.9v-15.6h1.1l25.8 15.4v-15.9h.7v16.5h.3zm0-19.6h-1.1l-25.9-15.5v15h-.9v-15.6h1.1l25.8 15.4v-15.9h.7V324h.3zm-.3-52.1c2.3 4.6.8 10.1-3.1 13.3-5.8 4.7-15.2 4.3-21 0-1.3-1.1-2.3-2.3-3.1-3.8-2.1-4.1-1.3-9.7 2.4-12.7l.6.5c-1.2.9-1.8 2.2-2.6 3.4-1.1 2.8-1.1 5.8.2 8.6 1.6 2.9 4.2 4.8 7.3 5.9 5.1 1.5 10.9 1.1 15.1-2.3 1.2-1 2.2-2.2 2.9-3.5 1.5-2.7 1.4-6.1.1-8.9-.6-1.5-1.7-2.6-3.1-3.5l.6-.5c1.9.8 3 2.1 3.7 3.5.7 1.5-.7-1.4 0 0zm.3-25h-14v15.8h13.9v.7h-27.7v-.7h13.1v-15.8h-13.1v-.7h27.7v.7h.1zm0-24.9l-7.9 2.8v13.7l7.9 2.9v.9l-27.7-10.1v-1l27.7-9.8v.6zm-27.2 9.5l18.4 6.7V225l-18.4 6.5zm27.2-36.8H467v.1l26.8 10.4v.6L467 216.2v.1h26.8v.7h-27.7v-1.3l26.5-10.3-26.5-10.3v-1.3h27.7v.9h.1zm-7.4-22.4c1.5 0 2.7.2 3.7.7 1.6.8 3 2.4 3.3 4.3.2.9.4 1.7.4 2.6v7.2h-27.7v-6.4c0-.9.1-1.7.4-2.7.2-.9.6-1.7 1.1-2.3.5-.7 1.2-1.2 2-1.7 2.8-1.2 7.5-.8 8.8 2.4.4.6.6 1.2.7 1.7h.1c.1-.6.2-1.2.6-2 .8-2.7 3.9-3.8 6.6-3.8zm-13.7 1.8c-1.7 0-3.3.6-4.5 1.9-1.2 1.3-1.4 3.3-1.4 5v5.5h12v-5.6c0-2.4-1.1-4.8-3.3-5.9-.9-.8-1.7-.9-2.8-.9zm13.8-1.1c-1.2 0-2.3.2-3.2.6-.9.5-1.6 1-2.2 1.6-1 1.3-1.6 2.9-1.6 4.5v6.5H493v-6.1c0-2.7-.9-5.5-3.5-6.6-.8-.4-1.8-.5-2.9-.5zm7.3-6.4H466v-13.7h.7v12.9H479v-12.2h.7v12.2h13.2v-13.6h.7v14.3h.3zm0-32.8l-14 7.1v5.5h14v.7H466v-6.5c0-.9.1-1.7.2-2.6.2-.9.5-1.7 1.1-2.3 2.6-3.9 11.2-3 12 2.1.2.9.4 1.6.4 2.3l14-7.1v.7h.2zm-20.9.1c-1.8 0-3.9.5-4.9 2.2-.5.6-.7 1.5-1 2.2-.2.9-.2 1.7-.2 2.6v5.4h12.2v-5.7c0-2.2-.5-3.8-1.6-5-1-1.1-2.5-1.7-4.5-1.7zm20.9-37.1c1.7 5 .5 10.4-3.4 13.9-1.3 1.1-2.9 2-4.6 2.6-5.4 1.8-11.8.9-16.4-2.4-2.4-1.9-3.9-4.8-4.1-7.8-.3-3.4.9-6.5 3.1-9l.6.5c-4.2 4.2-4.1 11 .2 15.1 4 3.8 10.8 4.8 15.9 2.9 3.5-1 6.7-3.7 8-7.2 1.3-3.7.4-8-1.5-11.4h-10.9v6.1h-.8v-6.8h12.2c.6.9 1.2 2.1 1.7 3.5s-.5-1.4 0 0zm0-23.5l-14 7.1v5.5h14v.7H466v-6.5c0-.9.1-1.7.2-2.6.2-1 .6-1.8 1.1-2.4 2.6-3.9 11.2-3 12 2.1.2.9.4 1.6.4 2.3l14-7.1v.9h.2zm-20.9.1c-1.8 0-3.9.5-4.9 2.2-.5.6-.7 1.5-1 2.2-.2.9-.2 1.7-.2 2.6v5.4h12.2V80c0-2.2-.5-3.8-1.6-5-1-1-2.5-1.6-4.5-1.6zm7-29.5c2.2 0 4.2.2 5.9.9 3.8 1.3 7.2 4.1 8.3 8 1.3 4.1-.2 9.1-3.7 11.7-4.3 3.6-11.1 4.4-16.4 2.6-3-1-5.8-3-7.4-5.8-1.8-3.2-1.8-7.1-.3-10.3 1.5-3.1 4.5-5.3 7.7-6.4 1.7-.5 3.7-.7 5.9-.7zm0 .7c-2 0-3.8.2-5.4.9-4.6 1.6-8.4 5.2-8.4 10.4 0 4.9 3.8 9.1 8.4 10.4 3.3 1.2 7.5 1.3 10.8 0 4.7-1.3 8.4-5.5 8.4-10.5 0-5.2-3.8-8.8-8.4-10.5-1.6-.5-3.4-.7-5.4-.7zm7.8-23.8c1.3.4 2.6.9 3.5 1.5 1 .7 1.8 1.6 2.4 2.8 1 1.8 1 4.2.7 6.2-.3 2-1.5 3.9-3.2 5-1 .7-2.2 1.2-3.5 1.5-1.3.4-2.8.5-4.4.5H466v-.7h17.1c1.1 0 2.3-.1 3.5-.2 1.2-.2 2.4-.6 3.4-1.2 1.1-.6 2-1.5 2.7-2.4 1.6-2.4 1.5-6.1.1-8.6-.7-1.1-1.6-2-2.6-2.6-2.2-1.2-4.5-1.5-7-1.5h-17.1v-.7h17.2c1.6 0 3.1.1 4.5.4 1.4.3-1.4-.3 0 0zM473 0c1.2 0 2.2.2 3.2.5.9.4 1.7.9 2.2 1.5.6.6 1.1 1.3 1.3 2.2.4.9.5 1.7.5 2.7V13h13.7v.7H466V7.2c0-2.8 1.1-5.2 3.5-6.6 1.1-.4 2.2-.6 3.5-.6zm0 .7c-1.2 0-2.2.2-2.9.6-.9.4-1.5.9-2 1.5-.9 1.2-1.2 2.7-1.2 4.2v6h12.6V6.8c0-1.5-.5-3-1.5-4.2-1.4-1.3-3-1.9-5-1.9z" fill="#9E856D"/></svg>