<svg width="29" height="15" viewBox="0 0 29 15" xmlns="http://www.w3.org/2000/svg"><path d="M1.399 8.227a.123.123 0 0 0-.12.11l-.286 2.457.285 2.403c.008.064.06.11.12.11.062 0 .111-.045.12-.11l.325-2.403-.324-2.456c-.01-.066-.06-.11-.12-.11m-1.071.94a.117.117 0 0 0-.116.107L0 10.795l.212 1.493a.117.117 0 0 0 .116.107c.059 0 .106-.044.116-.107l.25-1.494-.25-1.52c-.01-.062-.057-.106-.116-.106m2.208-1.422a.145.145 0 0 0-.145.134l-.27 2.915.27 2.808a.145.145 0 0 0 .145.134.146.146 0 0 0 .145-.134l.307-2.808-.307-2.915a.147.147 0 0 0-.145-.134m1.147-.103a.17.17 0 0 0-.17.157l-.255 2.995.255 2.898a.17.17 0 0 0 .34 0l.29-2.898-.29-2.995a.17.17 0 0 0-.17-.157m1.351.373a.193.193 0 0 0-.194-.18.192.192 0 0 0-.195.181l-.241 2.778.241 2.922c.007.103.09.18.195.18a.194.194 0 0 0 .194-.18l.273-2.922-.273-2.779zm.971-1.944a.218.218 0 0 0-.219.205l-.226 4.52.226 2.92a.218.218 0 0 0 .22.205.22.22 0 0 0 .219-.205l.256-2.92-.256-4.52a.219.219 0 0 0-.22-.205M7.162 5.03c-.13 0-.238.1-.244.229l-.211 5.553.211 2.903a.24.24 0 0 0 .244.227c.13 0 .238-.1.244-.228v.002l.24-2.904-.24-5.553a.242.242 0 0 0-.244-.229m1.203-.501a.265.265 0 0 0-.27.252L7.9 10.798l.197 2.873c.005.14.123.25.269.25.144 0 .262-.11.268-.251v.001l.223-2.873-.223-6.017a.266.266 0 0 0-.268-.252m1.486.049a.288.288 0 0 0-.294-.275.288.288 0 0 0-.293.275l-.183 6.22.183 2.855a.287.287 0 0 0 .293.274c.16 0 .288-.12.294-.275l.205-2.854-.205-6.22zm.909-.139a.31.31 0 0 0-.318.299l-.168 6.06.168 2.828a.31.31 0 0 0 .318.298.312.312 0 0 0 .318-.299v.002l.19-2.828-.19-6.062a.311.311 0 0 0-.318-.298m1.213.198a.334.334 0 0 0-.343.322l-.153 5.84.153 2.81c.003.179.154.32.343.32a.335.335 0 0 0 .342-.322v.002l.172-2.81-.172-5.84a.335.335 0 0 0-.342-.322m1.424-1.074a.376.376 0 0 0-.4-.003.35.35 0 0 0-.17.29l-.002.066-.137 6.882.139 2.793v.012c.005.078.036.15.086.206a.375.375 0 0 0 .539.025.344.344 0 0 0 .11-.244l.015-.277.14-2.513-.155-6.95a.35.35 0 0 0-.165-.287m1.213-.659a.401.401 0 0 0-.447.032.368.368 0 0 0-.145.285v.038l-.16 7.541.081 1.395.08 1.356c.002.201.178.367.392.367a.386.386 0 0 0 .392-.37v.003l.174-2.75-.174-7.58a.373.373 0 0 0-.193-.317m10.787 4.309c-.488 0-.953.093-1.377.26-.284-3.031-2.976-5.41-6.26-5.41-.803 0-1.587.15-2.278.402-.27.098-.34.2-.343.396v10.678c.003.206.172.366.385.387h9.873c1.968 0 3.562-1.49 3.562-3.349 0-1.858-1.594-3.364-3.562-3.364" fill="#FEFEFE" fill-rule="evenodd"/></svg>